Lexend-Medium.ufo
<glyph name="numbersign" format="2">
  <advance width="678"/>
  <unicode hex="0023"/>
  <outline>
    <contour>
      <point x="191" y="0" type="line"/>
      <point x="101" y="0" type="line"/>
      <point x="221" y="700" type="line"/>
      <point x="311" y="700" type="line"/>
    </contour>
    <contour>
      <point x="647" y="453" type="line"/>
      <point x="69" y="453" type="line"/>
      <point x="69" y="536" type="line"/>
      <point x="647" y="536" type="line"/>
    </contour>
    <contour>
      <point x="457" y="0" type="line"/>
      <point x="367" y="0" type="line"/>
      <point x="487" y="700" type="line"/>
      <point x="577" y="700" type="line"/>
    </contour>
    <contour>
      <point x="610" y="173" type="line"/>
      <point x="31" y="173" type="line"/>
      <point x="31" y="256" type="line"/>
      <point x="610" y="256" type="line"/>
    </contour>
  </outline>
</glyph>
<glyph name="ampersand" format="2">
  <advance width="739"/>
  <unicode hex="0026"/>
  <outline>
    <contour>
      <point x="306" y="-10" type="qcurve"/>
      <point x="199" y="-10"/>
      <point x="50" y="122"/>
      <point x="50" y="212" type="qcurve"/>
      <point x="50" y="291"/>
      <point x="137" y="407"/>
      <point x="221" y="438" type="qcurve"/>
      <point x="285" y="361" type="line"/>
      <point x="221" y="347"/>
      <point x="159" y="282"/>
      <point x="159" y="227" type="qcurve"/>
      <point x="159" y="164"/>
      <point x="248" y="85"/>
      <point x="326" y="85" type="qcurve"/>
      <point x="415" y="85"/>
      <point x="537" y="219"/>
      <point x="554" y="329" type="qcurve"/>
      <point x="646" y="329" type="line"/>
      <point x="625" y="177"/>
      <point x="443" y="-10"/>
    </contour>
    <contour>
      <point x="709" y="0" type="line"/>
      <point x="575" y="0" type="line"/>
      <point x="500" y="80" type="line"/>
      <point x="484" y="97" type="line"/>
      <point x="295" y="308" type="line"/>
      <point x="221" y="392"/>
      <point x="168" y="489"/>
      <point x="168" y="532" type="qcurve"/>
      <point x="168" y="609"/>
      <point x="284" y="710"/>
      <point x="375" y="710" type="qcurve"/>
      <point x="442" y="710"/>
      <point x="549" y="637"/>
      <point x="568" y="579" type="qcurve"/>
      <point x="490" y="529" type="line"/>
      <point x="471" y="575"/>
      <point x="416" y="617"/>
      <point x="375" y="617" type="qcurve"/>
      <point x="329" y="617"/>
      <point x="280" y="575"/>
      <point x="280" y="535" type="qcurve"/>
      <point x="280" y="503"/>
      <point x="335" y="414"/>
      <point x="398" y="343" type="qcurve"/>
      <point x="547" y="177" type="line"/>
      <point x="566" y="156" type="line"/>
    </contour>
  </outline>
</glyph>
<glyph name="parenright" format="2">
  <advance width="363"/>
  <unicode hex="0029"/>
  <outline>
    <contour>
      <point x="324" y="258" type="qcurve"/>
      <point x="324" y="119"/>
      <point x="195" y="-110"/>
      <point x="73" y="-186" type="qcurve"/>
      <point x="18" y="-124" type="line"/>
      <point x="120" y="-53"/>
      <point x="227" y="144"/>
      <point x="227" y="258" type="qcurve"/>
      <point x="227" y="372"/>
      <point x="120" y="569"/>
      <point x="18" y="640" type="qcurve"/>
      <point x="74" y="702" type="line"/>
      <point x="196" y="626"/>
      <point x="324" y="398"/>
    </contour>
  </outline>
</glyph>
<glyph name="comma" format="2">
  <advance width="267"/>
  <unicode hex="002C"/>
  <outline>
    <contour>
      <point x="132" y="117" type="qcurve"/>
      <point x="170" y="117"/>
      <point x="221" y="54"/>
      <point x="221" y="4" type="qcurve"/>
      <point x="221" y="-55"/>
      <point x="145" y="-157"/>
      <point x="88" y="-179" type="qcurve"/>
      <point x="50" y="-133" type="line"/>
      <point x="85" y="-113"/>
      <point x="129" y="-61"/>
      <point x="129" y="-42" type="qcurve"/>
      <point x="129" y="-32"/>
      <point x="119" y="-13"/>
      <point x="103" y="4" type="qcurve"/>
      <point x="83" y="23"/>
      <point x="71" y="49"/>
      <point x="71" y="64" type="qcurve"/>
      <point x="71" y="88"/>
      <point x="105" y="117"/>
    </contour>
  </outline>
</glyph>
<glyph name="slash" format="2">
  <advance width="557"/>
  <unicode hex="002F"/>
  <outline>
    <contour>
      <point x="118" y="-132" type="line"/>
      <point x="18" y="-132" type="line"/>
      <point x="430" y="700" type="line"/>
      <point x="529" y="700" type="line"/>
    </contour>
  </outline>
</glyph>
<glyph name="five" format="2">
  <advance width="568"/>
  <unicode hex="0035"/>
  <outline>
    <contour>
      <point x="508" y="238" type="qcurve"/>
      <point x="508" y="134"/>
      <point x="364" y="-7"/>
      <point x="257" y="-7" type="qcurve"/>
      <point x="188" y="-7"/>
      <point x="76" y="56"/>
      <point x="39" y="115" type="qcurve"/>
      <point x="99" y="182" type="line"/>
      <point x="146" y="130"/>
      <point x="216" y="92"/>
      <point x="257" y="92" type="qcurve"/>
      <point x="319" y="92"/>
      <point x="403" y="171"/>
      <point x="403" y="228" type="qcurve"/>
      <point x="403" y="288"/>
      <point x="323" y="368"/>
      <point x="265" y="368" type="qcurve"/>
      <point x="237" y="368"/>
      <point x="183" y="355"/>
      <point x="125" y="326" type="qcurve"/>
      <point x="68" y="403" type="line"/>
      <point x="109" y="700" type="line"/>
      <point x="487" y="700" type="line"/>
      <point x="487" y="600" type="line"/>
      <point x="177" y="600" type="line"/>
      <point x="198" y="619" type="line"/>
      <point x="165" y="397" type="line"/>
      <point x="140" y="426" type="line"/>
      <point x="155" y="441"/>
      <point x="244" y="468"/>
      <point x="284" y="468" type="qcurve"/>
      <point x="380" y="468"/>
      <point x="508" y="339"/>
    </contour>
  </outline>
</glyph>
<glyph name="six" format="2">
  <advance width="557"/>
  <unicode hex="0036"/>
  <outline>
    <contour>
      <point x="522" y="260" type="qcurve"/>
      <point x="522" y="148"/>
      <point x="388" y="0"/>
      <point x="283" y="0" type="qcurve"/>
      <point x="179" y="0"/>
      <point x="40" y="140"/>
      <point x="40" y="247" type="qcurve"/>
      <point x="40" y="301"/>
      <point x="101" y="461"/>
      <point x="159" y="558" type="qcurve"/>
      <point x="250" y="712" type="line"/>
      <point x="355" y="712" type="line"/>
      <point x="359" y="702" type="line"/>
      <point x="249" y="517" type="line"/>
      <point x="204" y="441"/>
      <point x="144" y="309"/>
      <point x="132" y="260" type="qcurve"/>
      <point x="108" y="363" type="line"/>
      <point x="146" y="425"/>
      <point x="247" y="489"/>
      <point x="308" y="489" type="qcurve"/>
      <point x="395" y="489"/>
      <point x="522" y="353"/>
    </contour>
    <contour>
      <point x="144" y="248" type="qcurve"/>
      <point x="144" y="185"/>
      <point x="222" y="100"/>
      <point x="283" y="100" type="qcurve"/>
      <point x="341" y="100"/>
      <point x="418" y="182"/>
      <point x="418" y="247" type="qcurve"/>
      <point x="418" y="303"/>
      <point x="340" y="389"/>
      <point x="285" y="389" type="qcurve"/>
      <point x="223" y="389"/>
      <point x="144" y="307"/>
    </contour>
  </outline>
</glyph>
<glyph name="colon" format="2">
  <advance width="268"/>
  <unicode hex="003A"/>
  <outline>
    <contour>
      <point x="203" y="65" type="qcurve"/>
      <point x="203" y="32"/>
      <point x="165" y="-10"/>
      <point x="134" y="-10" type="qcurve"/>
      <point x="101" y="-10"/>
      <point x="65" y="29"/>
      <point x="65" y="65" type="qcurve"/>
      <point x="65" y="98"/>
      <point x="103" y="140"/>
      <point x="134" y="140" type="qcurve"/>
      <point x="167" y="140"/>
      <point x="203" y="101"/>
    </contour>
    <contour>
      <point x="203" y="460" type="qcurve"/>
      <point x="203" y="427"/>
      <point x="165" y="385"/>
      <point x="134" y="385" type="qcurve"/>
      <point x="101" y="385"/>
      <point x="65" y="424"/>
      <point x="65" y="460" type="qcurve"/>
      <point x="65" y="493"/>
      <point x="103" y="535"/>
      <point x="134" y="535" type="qcurve"/>
      <point x="167" y="535"/>
      <point x="203" y="496"/>
    </contour>
  </outline>
</glyph>
<glyph name="underscore" format="2">
  <advance width="690"/>
  <unicode hex="005F"/>
  <outline>
    <contour>
      <point x="637" y="-160" type="line"/>
      <point x="53" y="-160" type="line"/>
      <point x="53" y="-82" type="line"/>
      <point x="637" y="-82" type="line"/>
    </contour>
  </outline>
</glyph>
<glyph name="b" format="2">
  <advance width="630"/>
  <unicode hex="0062"/>
  <outline>
    <contour>
      <point x="345" y="536" type="qcurve"/>
      <point x="451" y="536"/>
      <point x="590" y="383"/>
      <point x="590" y="264" type="qcurve"/>
      <point x="590" y="146"/>
      <point x="452" y="-10"/>
      <point x="348" y="-10" type="qcurve"/>
      <point x="279" y="-10"/>
      <point x="160" y="71"/>
      <point x="149" y="117" type="qcurve"/>
      <point x="175" y="131" type="line"/>
      <point x="175" y="3" type="line"/>
      <point x="72" y="3" type="line"/>
      <point x="72" y="740" type="line"/>
      <point x="175" y="740" type="line"/>
      <point x="175" y="405" type="line"/>
      <point x="159" y="414" type="line"/>
      <point x="168" y="459"/>
      <point x="281" y="536"/>
    </contour>
    <contour>
      <point x="491" y="264" type="qcurve"/>
      <point x="491" y="341"/>
      <point x="401" y="442"/>
      <point x="331" y="442" type="qcurve"/>
      <point x="261" y="442"/>
      <point x="170" y="341"/>
      <point x="170" y="264" type="qcurve"/>
      <point x="170" y="186"/>
      <point x="261" y="84"/>
      <point x="331" y="84" type="qcurve"/>
      <point x="400" y="84"/>
      <point x="491" y="186"/>
    </contour>
  </outline>
</glyph>
<glyph name="y" format="2">
  <advance width="581"/>
  <unicode hex="0079"/>
  <outline>
    <contour>
      <point x="320" y="45" type="qcurve"/>
      <point x="265" y="-63" type="line"/>
      <point x="5" y="525" type="line"/>
      <point x="125" y="525" type="line"/>
      <point x="289" y="139" type="line"/>
      <point x="295" y="126"/>
      <point x="315" y="64"/>
    </contour>
    <contour>
      <point x="271" y="-230" type="line"/>
      <point x="160" y="-230" type="line"/>
      <point x="246" y="-33" type="line"/>
      <point x="285" y="58" type="line"/>
      <point x="290" y="71"/>
      <point x="302" y="104"/>
      <point x="317" y="146" type="qcurve"/>
      <point x="454" y="525" type="line"/>
      <point x="576" y="525" type="line"/>
      <point x="360" y="0" type="line"/>
    </contour>
  </outline>
</glyph>
<glyph name="z" format="2">
  <advance width="484"/>
  <unicode hex="007A"/>
  <outline>
    <contour>
      <point x="162" y="89" type="line"/>
      <point x="439" y="89" type="line"/>
      <point x="439" y="0" type="line"/>
      <point x="50" y="0" type="line"/>
      <point x="50" y="86" type="line"/>
      <point x="321" y="448" type="line"/>
      <point x="321" y="436" type="line"/>
      <point x="50" y="436" type="line"/>
      <point x="50" y="525" type="line"/>
      <point x="433" y="525" type="line"/>
      <point x="433" y="441" type="line"/>
      <point x="166" y="84" type="line"/>
    </contour>
  </outline>
</glyph>
<glyph name="braceleft" format="2">
  <advance width="411"/>
  <unicode hex="007B"/>
  <outline>
    <contour>
      <point x="387" y="-131" type="qcurve"/>
      <point x="369" y="-200" type="line"/>
      <point x="271" y="-180"/>
      <point x="184" y="-92"/>
      <point x="184" y="-7" type="qcurve"/>
      <point x="185" y="88" type="line"/>
      <point x="185" y="146"/>
      <point x="134" y="211"/>
      <point x="87" y="212" type="qcurve"/>
      <point x="44" y="212" type="line"/>
      <point x="44" y="288" type="line"/>
      <point x="89" y="288" type="line"/>
      <point x="136" y="289"/>
      <point x="185" y="353"/>
      <point x="185" y="412" type="qcurve"/>
      <point x="184" y="507" type="line"/>
      <point x="184" y="589"/>
      <point x="270" y="679"/>
      <point x="369" y="700" type="qcurve"/>
      <point x="387" y="631" type="line"/>
      <point x="323" y="610"/>
      <point x="275" y="555"/>
      <point x="275" y="493" type="qcurve"/>
      <point x="277" y="398" type="line"/>
      <point x="277" y="340"/>
      <point x="224" y="264"/>
      <point x="174" y="249" type="qcurve"/>
      <point x="173" y="252" type="line"/>
      <point x="224" y="235"/>
      <point x="277" y="159"/>
      <point x="277" y="102" type="qcurve"/>
      <point x="275" y="7" type="line"/>
      <point x="275" y="-54"/>
      <point x="322" y="-109"/>
    </contour>
  </outline>
</glyph>
<glyph name="exclamdown" format="2">
  <advance width="236"/>
  <unicode hex="00A1"/>
  <outline>
    <contour>
      <point x="81" y="289" type="qcurve"/>
      <point x="141" y="289" type="line"/>
      <point x="152" y="195"/>
      <point x="165" y="-12"/>
      <point x="165" y="-100" type="qcurve"/>
      <point x="165" y="-170" type="line"/>
      <point x="57" y="-170" type="line"/>
      <point x="57" y="-100" type="line"/>
      <point x="57" y="-7"/>
      <point x="70" y="202"/>
    </contour>
    <contour>
      <point x="45" y="466" type="qcurve"/>
      <point x="45" y="499"/>
      <point x="83" y="541"/>
      <point x="114" y="541" type="qcurve"/>
      <point x="147" y="541"/>
      <point x="183" y="502"/>
      <point x="183" y="466" type="qcurve"/>
      <point x="183" y="433"/>
      <point x="145" y="391"/>
      <point x="114" y="391" type="qcurve"/>
      <point x="81" y="391"/>
      <point x="45" y="430"/>
    </contour>
  </outline>
</glyph>
<glyph name="guillemotleft" format="2">
  <advance width="481"/>
  <unicode hex="00AB"/>
  <outline>
    <contour>
      <point x="324" y="255" type="line"/>
      <point x="325" y="266" type="line"/>
      <point x="444" y="95" type="line"/>
      <point x="381" y="50" type="line"/>
      <point x="218" y="262" type="line"/>
      <point x="218" y="254" type="line"/>
      <point x="380" y="471" type="line"/>
      <point x="443" y="426" type="line"/>
    </contour>
    <contour>
      <point x="111" y="255" type="line"/>
      <point x="112" y="266" type="line"/>
      <point x="231" y="95" type="line"/>
      <point x="168" y="50" type="line"/>
      <point x="5" y="262" type="line"/>
      <point x="5" y="254" type="line"/>
      <point x="167" y="471" type="line"/>
      <point x="230" y="426" type="line"/>
    </contour>
  </outline>
</glyph>
<glyph name="degree" format="2">
  <advance width="532"/>
  <unicode hex="00B0"/>
  <outline>
    <contour>
      <point x="422" y="554" type="qcurve"/>
      <point x="422" y="489"/>
      <point x="332" y="399"/>
      <point x="266" y="399" type="qcurve"/>
      <point x="200" y="399"/>
      <point x="110" y="489"/>
      <point x="110" y="553" type="qcurve"/>
      <point x="110" y="619"/>
      <point x="199" y="709"/>
      <point x="266" y="709" type="qcurve"/>
      <point x="333" y="709"/>
      <point x="422" y="619"/>
    </contour>
    <contour>
      <point x="185" y="553" type="qcurve"/>
      <point x="185" y="517"/>
      <point x="232" y="466"/>
      <point x="266" y="466" type="qcurve"/>
      <point x="300" y="466"/>
      <point x="347" y="518"/>
      <point x="347" y="554" type="qcurve"/>
      <point x="347" y="590"/>
      <point x="300" y="641"/>
      <point x="266" y="641" type="qcurve"/>
      <point x="231" y="641"/>
      <point x="185" y="590"/>
    </contour>
  </outline>
</glyph>
<glyph name="paragraph" format="2">
  <advance width="712"/>
  <unicode hex="00B6"/>
  <outline>
    <contour>
      <point x="614" y="0" type="line"/>
      <point x="506" y="0" type="line"/>
      <point x="506" y="660" type="line"/>
      <point x="522" y="596" type="line"/>
      <point x="310" y="596" type="line"/>
      <point x="354" y="652" type="line"/>
      <point x="354" y="0" type="line"/>
      <point x="246" y="0" type="line"/>
      <point x="246" y="314" type="line"/>
      <point x="270" y="279" type="line"/>
      <point x="236" y="279" type="line"/>
      <point x="155" y="279"/>
      <point x="48" y="396"/>
      <point x="48" y="486" type="qcurve"/>
      <point x="48" y="583"/>
      <point x="171" y="700"/>
      <point x="273" y="700" type="qcurve"/>
      <point x="614" y="700" type="line"/>
    </contour>
  </outline>
</glyph>
<glyph name="uni00B9" format="2">
  <advance width="281"/>
  <unicode hex="00B9"/>
  <outline>
    <contour>
      <point x="201" y="777" type="line"/>
      <point x="201" y="429" type="line"/>
      <point x="182" y="429"/>
      <point x="145" y="429"/>
      <point x="126" y="429" type="qcurve"/>
      <point x="126" y="703" type="line"/>
      <point x="132" y="685" type="line"/>
      <point x="82" y="653" type="line"/>
      <point x="47" y="719" type="line"/>
      <point x="145" y="777" type="line"/>
    </contour>
  </outline>
</glyph>
<glyph name="guillemotright" format="2">
  <advance width="497"/>
  <unicode hex="00BB"/>
  <outline>
    <contour>
      <point x="384" y="266" type="line"/>
      <point x="383" y="255" type="line"/>
      <point x="264" y="426" type="line"/>
      <point x="327" y="471" type="line"/>
      <point x="490" y="259" type="line"/>
      <point x="490" y="267" type="line"/>
      <point x="328" y="50" type="line"/>
      <point x="265" y="95" type="line"/>
    </contour>
    <contour>
      <point x="168" y="266" type="line"/>
      <point x="167" y="255" type="line"/>
      <point x="48" y="426" type="line"/>
      <point x="111" y="471" type="line"/>
      <point x="274" y="259" type="line"/>
      <point x="274" y="267" type="line"/>
      <point x="112" y="50" type="line"/>
      <point x="49" y="95" type="line"/>
    </contour>
  </outline>
</glyph>
<glyph name="onequarter" format="2">
  <advance width="793"/>
  <unicode hex="00BC"/>
  <outline>
    <contour>
      <point x="208" y="707" type="line"/>
      <point x="208" y="359" type="line"/>
      <point x="189" y="359"/>
      <point x="152" y="359"/>
      <point x="133" y="359" type="qcurve"/>
      <point x="133" y="633" type="line"/>
      <point x="139" y="615" type="line"/>
      <point x="89" y="583" type="line"/>
      <point x="54" y="649" type="line"/>
      <point x="152" y="707" type="line"/>
    </contour>
    <contour>
      <point x="209" y="0" type="line"/>
      <point x="111" y="0" type="line"/>
      <point x="332" y="335" type="line"/>
      <point x="574" y="700" type="line"/>
      <point x="677" y="700" type="line"/>
      <point x="414" y="307" type="line"/>
    </contour>
    <contour>
      <point x="690" y="-2" type="line"/>
      <point x="615" y="-2" type="line"/>
      <point x="615" y="104" type="line"/>
      <point x="615" y="122" type="line"/>
      <point x="615" y="290" type="line"/>
      <point x="647" y="276" type="line"/>
      <point x="521" y="130" type="line"/>
      <point x="524" y="149" type="line"/>
      <point x="751" y="149" type="line"/>
      <point x="751" y="81" type="line"/>
      <point x="473" y="81" type="line"/>
      <point x="456" y="150" type="line"/>
      <point x="624" y="356" type="line"/>
      <point x="690" y="356" type="line"/>
    </contour>
  </outline>
</glyph>
<glyph name="onehalf" format="2">
  <advance width="803"/>
  <unicode hex="00BD"/>
  <outline>
    <contour>
      <point x="208" y="707" type="line"/>
      <point x="208" y="359" type="line"/>
      <point x="189" y="359"/>
      <point x="152" y="359"/>
      <point x="133" y="359" type="qcurve"/>
      <point x="133" y="633" type="line"/>
      <point x="139" y="615" type="line"/>
      <point x="89" y="583" type="line"/>
      <point x="54" y="649" type="line"/>
      <point x="152" y="707" type="line"/>
    </contour>
    <contour>
      <point x="211" y="0" type="line"/>
      <point x="113" y="0" type="line"/>
      <point x="334" y="335" type="line"/>
      <point x="576" y="700" type="line"/>
      <point x="679" y="700" type="line"/>
      <point x="416" y="307" type="line"/>
    </contour>
    <contour>
      <point x="753" y="0" type="line"/>
      <point x="522" y="0" type="line"/>
      <point x="513" y="71" type="line"/>
      <point x="590" y="148" type="line"/>
      <point x="596" y="154"/>
      <point x="628" y="185"/>
      <point x="636" y="194" type="qcurve"/>
      <point x="652" y="211"/>
      <point x="666" y="237"/>
      <point x="666" y="249" type="qcurve"/>
      <point x="666" y="267"/>
      <point x="644" y="289"/>
      <point x="626" y="289" type="qcurve"/>
      <point x="611" y="289"/>
      <point x="575" y="265"/>
      <point x="551" y="238" type="qcurve"/>
      <point x="499" y="275" type="line"/>
      <point x="522" y="314"/>
      <point x="594" y="361"/>
      <point x="633" y="361" type="qcurve"/>
      <point x="687" y="361"/>
      <point x="750" y="299"/>
      <point x="750" y="251" type="qcurve"/>
      <point x="750" y="229"/>
      <point x="721" y="181"/>
      <point x="662" y="123" type="qcurve"/>
      <point x="595" y="58" type="line"/>
      <point x="599" y="67" type="line"/>
      <point x="753" y="67" type="line"/>
    </contour>
  </outline>
</glyph>
<glyph name="Adieresis" format="2">
  <advance width="700"/>
  <unicode hex="00C4"/>
  <outline>
    <contour>
      <point x="337" y="612" type="qcurve"/>
      <point x="360" y="613" type="line"/>
      <point x="348" y="580"/>
      <point x="306" y="449"/>
      <point x="294" y="418" type="qcurve"/>
      <point x="135" y="0" type="line"/>
      <point x="25" y="0" type="line"/>
      <point x="296" y="700" type="line"/>
      <point x="406" y="700" type="line"/>
      <point x="675" y="0" type="line"/>
      <point x="560" y="0" type="line"/>
      <point x="400" y="422" type="line"/>
      <point x="390" y="451"/>
      <point x="349" y="579"/>
    </contour>
    <contour>
      <point x="354" y="174" type="line"/>
      <point x="145" y="174" type="line"/>
      <point x="185" y="278" type="line"/>
      <point x="354" y="278" type="line"/>
    </contour>
    <contour>
      <point x="549" y="174" type="line"/>
      <point x="354" y="174" type="line"/>
      <point x="354" y="278" type="line"/>
      <point x="503" y="278" type="line"/>
    </contour>
    <contour>
      <point x="320" y="814" type="qcurve"/>
      <point x="320" y="785"/>
      <point x="283" y="749"/>
      <point x="251" y="749" type="qcurve"/>
      <point x="218" y="749"/>
      <point x="182" y="783"/>
      <point x="182" y="814" type="qcurve"/>
      <point x="182" y="843"/>
      <point x="219" y="879"/>
      <point x="251" y="879" type="qcurve"/>
      <point x="284" y="879"/>
      <point x="320" y="845"/>
    </contour>
    <contour>
      <point x="526" y="814" type="qcurve"/>
      <point x="526" y="785"/>
      <point x="489" y="749"/>
      <point x="457" y="749" type="qcurve"/>
      <point x="424" y="749"/>
      <point x="388" y="783"/>
      <point x="388" y="814" type="qcurve"/>
      <point x="388" y="843"/>
      <point x="425" y="879"/>
      <point x="457" y="879" type="qcurve"/>
      <point x="490" y="879"/>
      <point x="526" y="845"/>
    </contour>
  </outline>
</glyph>
<glyph name="Egrave" format="2">
  <advance width="614"/>
  <unicode hex="00C8"/>
  <outline>
    <contour>
      <point x="206" y="0" type="line"/>
      <point x="98" y="0" type="line"/>
      <point x="98" y="700" type="line"/>
      <point x="206" y="700" type="line"/>
    </contour>
    <contour>
      <point x="539" y="0" type="line"/>
      <point x="147" y="0" type="line"/>
      <point x="147" y="104" type="line"/>
      <point x="539" y="104" type="line"/>
    </contour>
    <contour>
      <point x="484" y="307" type="line"/>
      <point x="147" y="307" type="line"/>
      <point x="147" y="411" type="line"/>
      <point x="484" y="411" type="line"/>
    </contour>
    <contour>
      <point x="539" y="596" type="line"/>
      <point x="147" y="596" type="line"/>
      <point x="147" y="700" type="line"/>
      <point x="539" y="700" type="line"/>
    </contour>
    <contour>
      <point x="385" y="805" type="line"/>
      <point x="351" y="754" type="line"/>
      <point x="177" y="848" type="line"/>
      <point x="242" y="930" type="line"/>
    </contour>
  </outline>
</glyph>
<glyph name="Eacute" format="2">
  <advance width="614"/>
  <unicode hex="00C9"/>
  <outline>
    <contour>
      <point x="206" y="0" type="line"/>
      <point x="98" y="0" type="line"/>
      <point x="98" y="700" type="line"/>
      <point x="206" y="700" type="line"/>
    </contour>
    <contour>
      <point x="539" y="0" type="line"/>
      <point x="147" y="0" type="line"/>
      <point x="147" y="104" type="line"/>
      <point x="539" y="104" type="line"/>
    </contour>
    <contour>
      <point x="484" y="307" type="line"/>
      <point x="147" y="307" type="line"/>
      <point x="147" y="411" type="line"/>
      <point x="484" y="411" type="line"/>
    </contour>
    <contour>
      <point x="539" y="596" type="line"/>
      <point x="147" y="596" type="line"/>
      <point x="147" y="700" type="line"/>
      <point x="539" y="700" type="line"/>
    </contour>
    <contour>
      <point x="465" y="844" type="line"/>
      <point x="291" y="750" type="line"/>
      <point x="257" y="801" type="line"/>
      <point x="400" y="926" type="line"/>
    </contour>
  </outline>
</glyph>
<glyph name="Ntilde" format="2">
  <advance width="793"/>
  <unicode hex="00D1"/>
  <outline>
    <contour>
      <point x="587" y="470" type="qcurve"/>
      <point x="587" y="700" type="line"/>
      <point x="695" y="700" type="line"/>
      <point x="695" y="0" type="line"/>
      <point x="596" y="0" type="line"/>
      <point x="175" y="552" type="line"/>
      <point x="186" y="566" type="line"/>
      <point x="192" y="502"/>
      <point x="206" y="336"/>
      <point x="206" y="291" type="qcurve"/>
      <point x="206" y="0" type="line"/>
      <point x="98" y="0" type="line"/>
      <point x="98" y="700" type="line"/>
      <point x="195" y="700" type="line"/>
      <point x="623" y="127" type="line"/>
      <point x="607" y="118" type="line"/>
      <point x="597" y="180"/>
      <point x="587" y="360"/>
    </contour>
    <contour>
      <point x="300" y="816" type="qcurve"/>
      <point x="223" y="816" type="line"/>
      <point x="223" y="868"/>
      <point x="280" y="929"/>
      <point x="329" y="929" type="qcurve"/>
      <point x="344" y="929"/>
      <point x="378" y="920"/>
      <point x="410" y="906" type="qcurve"/>
      <point x="435" y="895"/>
      <point x="457" y="889"/>
      <point x="465" y="889" type="qcurve"/>
      <point x="478" y="889"/>
      <point x="491" y="911"/>
      <point x="490" y="929" type="qcurve"/>
      <point x="566" y="929" type="line"/>
      <point x="566" y="880"/>
      <point x="515" y="815"/>
      <point x="474" y="815" type="qcurve"/>
      <point x="457" y="815"/>
      <point x="418" y="825"/>
      <point x="381" y="839" type="qcurve"/>
      <point x="356" y="849"/>
      <point x="334" y="855"/>
      <point x="327" y="855" type="qcurve"/>
      <point x="315" y="855"/>
      <point x="300" y="834"/>
    </contour>
  </outline>
</glyph>
<glyph name="Ocircumflex" format="2">
  <advance width="782"/>
  <unicode hex="00D4"/>
  <outline>
    <contour>
      <point x="391" y="710" type="qcurve"/>
      <point x="539" y="710"/>
      <point x="734" y="504"/>
      <point x="734" y="350" type="qcurve"/>
      <point x="734" y="196"/>
      <point x="539" y="-10"/>
      <point x="391" y="-10" type="qcurve"/>
      <point x="243" y="-10"/>
      <point x="48" y="195"/>
      <point x="48" y="350" type="qcurve"/>
      <point x="48" y="505"/>
      <point x="243" y="710"/>
    </contour>
    <contour>
      <point x="391" y="95" type="qcurve"/>
      <point x="492" y="95"/>
      <point x="624" y="240"/>
      <point x="624" y="350" type="qcurve"/>
      <point x="624" y="460"/>
      <point x="492" y="605"/>
      <point x="391" y="605" type="qcurve"/>
      <point x="289" y="605"/>
      <point x="158" y="461"/>
      <point x="158" y="350" type="qcurve"/>
      <point x="158" y="239"/>
      <point x="289" y="95"/>
    </contour>
    <contour>
      <point x="504" y="748" type="line"/>
      <point x="371" y="823" type="line"/>
      <point x="400" y="823" type="line"/>
      <point x="267" y="748" type="line"/>
      <point x="230" y="783" type="line"/>
      <point x="349" y="894" type="line"/>
      <point x="422" y="894" type="line"/>
      <point x="541" y="783" type="line"/>
    </contour>
  </outline>
</glyph>
<glyph name="Otilde" format="2">
  <advance width="782"/>
  <unicode hex="00D5"/>
  <outline>
    <contour>
      <point x="391" y="710" type="qcurve"/>
      <point x="539" y="710"/>
      <point x="734" y="504"/>
      <point x="734" y="350" type="qcurve"/>
      <point x="734" y="196"/>
      <point x="539" y="-10"/>
      <point x="391" y="-10" type="qcurve"/>
      <point x="243" y="-10"/>
      <point x="48" y="195"/>
      <point x="48" y="350" type="qcurve"/>
      <point x="48" y="505"/>
      <point x="243" y="710"/>
    </contour>
    <contour>
      <point x="391" y="95" type="qcurve"/>
      <point x="492" y="95"/>
      <point x="624" y="240"/>
      <point x="624" y="350" type="qcurve"/>
      <point x="624" y="460"/>
      <point x="492" y="605"/>
      <point x="391" y="605" type="qcurve"/>
      <point x="289" y="605"/>
      <point x="158" y="461"/>
      <point x="158" y="350" type="qcurve"/>
      <point x="158" y="239"/>
      <point x="289" y="95"/>
    </contour>
    <contour>
      <point x="293" y="816" type="qcurve"/>
      <point x="216" y="816" type="line"/>
      <point x="216" y="868"/>
      <point x="273" y="929"/>
      <point x="322" y="929" type="qcurve"/>
      <point x="337" y="929"/>
      <point x="371" y="920"/>
      <point x="403" y="906" type="qcurve"/>
      <point x="428" y="895"/>
      <point x="450" y="889"/>
      <point x="458" y="889" type="qcurve"/>
      <point x="471" y="889"/>
      <point x="484" y="911"/>
      <point x="483" y="929" type="qcurve"/>
      <point x="559" y="929" type="line"/>
      <point x="559" y="880"/>
      <point x="508" y="815"/>
      <point x="467" y="815" type="qcurve"/>
      <point x="450" y="815"/>
      <point x="411" y="825"/>
      <point x="374" y="839" type="qcurve"/>
      <point x="349" y="849"/>
      <point x="327" y="855"/>
      <point x="320" y="855" type="qcurve"/>
      <point x="308" y="855"/>
      <point x="293" y="834"/>
    </contour>
  </outline>
</glyph>
<glyph name="Odieresis" format="2">
  <advance width="782"/>
  <unicode hex="00D6"/>
  <outline>
    <contour>
      <point x="391" y="710" type="qcurve"/>
      <point x="539" y="710"/>
      <point x="734" y="504"/>
      <point x="734" y="350" type="qcurve"/>
      <point x="734" y="196"/>
      <point x="539" y="-10"/>
      <point x="391" y="-10" type="qcurve"/>
      <point x="243" y="-10"/>
      <point x="48" y="195"/>
      <point x="48" y="350" type="qcurve"/>
      <point x="48" y="505"/>
      <point x="243" y="710"/>
    </contour>
    <contour>
      <point x="391" y="95" type="qcurve"/>
      <point x="492" y="95"/>
      <point x="624" y="240"/>
      <point x="624" y="350" type="qcurve"/>
      <point x="624" y="460"/>
      <point x="492" y="605"/>
      <point x="391" y="605" type="qcurve"/>
      <point x="289" y="605"/>
      <point x="158" y="461"/>
      <point x="158" y="350" type="qcurve"/>
      <point x="158" y="239"/>
      <point x="289" y="95"/>
    </contour>
    <contour>
      <point x="354" y="814" type="qcurve"/>
      <point x="354" y="785"/>
      <point x="317" y="749"/>
      <point x="285" y="749" type="qcurve"/>
      <point x="252" y="749"/>
      <point x="216" y="783"/>
      <point x="216" y="814" type="qcurve"/>
      <point x="216" y="843"/>
      <point x="253" y="879"/>
      <point x="285" y="879" type="qcurve"/>
      <point x="318" y="879"/>
      <point x="354" y="845"/>
    </contour>
    <contour>
      <point x="560" y="814" type="qcurve"/>
      <point x="560" y="785"/>
      <point x="523" y="749"/>
      <point x="491" y="749" type="qcurve"/>
      <point x="458" y="749"/>
      <point x="422" y="783"/>
      <point x="422" y="814" type="qcurve"/>
      <point x="422" y="843"/>
      <point x="459" y="879"/>
      <point x="491" y="879" type="qcurve"/>
      <point x="524" y="879"/>
      <point x="560" y="845"/>
    </contour>
  </outline>
</glyph>
<glyph name="Ucircumflex" format="2">
  <advance width="740"/>
  <unicode hex="00DB"/>
  <outline>
    <contour>
      <point x="549" y="701" type="line"/>
      <point x="652" y="701" type="line"/>
      <point x="652" y="269" type="line"/>
      <point x="652" y="150"/>
      <point x="492" y="-6"/>
      <point x="370" y="-6" type="qcurve"/>
      <point x="248" y="-6"/>
      <point x="88" y="150"/>
      <point x="88" y="269" type="qcurve"/>
      <point x="88" y="701" type="line"/>
      <point x="196" y="701" type="line"/>
      <point x="196" y="278" type="line"/>
      <point x="196" y="202"/>
      <point x="299" y="98"/>
      <point x="370" y="98" type="qcurve"/>
      <point x="445" y="98"/>
      <point x="549" y="202"/>
      <point x="549" y="278" type="qcurve"/>
    </contour>
    <contour>
      <point x="488" y="748" type="line"/>
      <point x="355" y="823" type="line"/>
      <point x="384" y="823" type="line"/>
      <point x="251" y="748" type="line"/>
      <point x="214" y="783" type="line"/>
      <point x="333" y="894" type="line"/>
      <point x="406" y="894" type="line"/>
      <point x="525" y="783" type="line"/>
    </contour>
  </outline>
</glyph>
<glyph name="Udieresis" format="2">
  <advance width="740"/>
  <unicode hex="00DC"/>
  <outline>
    <contour>
      <point x="549" y="701" type="line"/>
      <point x="652" y="701" type="line"/>
      <point x="652" y="269" type="line"/>
      <point x="652" y="150"/>
      <point x="492" y="-6"/>
      <point x="370" y="-6" type="qcurve"/>
      <point x="248" y="-6"/>
      <point x="88" y="150"/>
      <point x="88" y="269" type="qcurve"/>
      <point x="88" y="701" type="line"/>
      <point x="196" y="701" type="line"/>
      <point x="196" y="278" type="line"/>
      <point x="196" y="202"/>
      <point x="299" y="98"/>
      <point x="370" y="98" type="qcurve"/>
      <point x="445" y="98"/>
      <point x="549" y="202"/>
      <point x="549" y="278" type="qcurve"/>
    </contour>
    <contour>
      <point x="338" y="814" type="qcurve"/>
      <point x="338" y="785"/>
      <point x="301" y="749"/>
      <point x="269" y="749" type="qcurve"/>
      <point x="236" y="749"/>
      <point x="200" y="783"/>
      <point x="200" y="814" type="qcurve"/>
      <point x="200" y="843"/>
      <point x="237" y="879"/>
      <point x="269" y="879" type="qcurve"/>
      <point x="302" y="879"/>
      <point x="338" y="845"/>
    </contour>
    <contour>
      <point x="544" y="814" type="qcurve"/>
      <point x="544" y="785"/>
      <point x="507" y="749"/>
      <point x="475" y="749" type="qcurve"/>
      <point x="442" y="749"/>
      <point x="406" y="783"/>
      <point x="406" y="814" type="qcurve"/>
      <point x="406" y="843"/>
      <point x="443" y="879"/>
      <point x="475" y="879" type="qcurve"/>
      <point x="508" y="879"/>
      <point x="544" y="845"/>
    </contour>
  </outline>
</glyph>
<glyph name="atilde" format="2">
  <advance width="633"/>
  <unicode hex="00E3"/>
  <outline>
    <contour>
      <point x="457" y="525" type="line"/>
      <point x="561" y="525" type="line"/>
      <point x="561" y="0" type="line"/>
      <point x="457" y="0" type="line"/>
      <point x="457" y="125" type="line"/>
      <point x="481" y="132" type="line"/>
      <point x="469" y="78"/>
      <point x="350" y="-10"/>
      <point x="274" y="-10" type="qcurve"/>
      <point x="176" y="-10"/>
      <point x="38" y="147"/>
      <point x="38" y="264" type="qcurve"/>
      <point x="38" y="383"/>
      <point x="180" y="536"/>
      <point x="283" y="536" type="qcurve"/>
      <point x="364" y="536"/>
      <point x="471" y="445"/>
      <point x="480" y="381" type="qcurve"/>
      <point x="457" y="389" type="line"/>
    </contour>
    <contour>
      <point x="143" y="264" type="qcurve"/>
      <point x="143" y="186"/>
      <point x="232" y="85"/>
      <point x="301" y="85" type="qcurve"/>
      <point x="371" y="85"/>
      <point x="461" y="186"/>
      <point x="461" y="264" type="qcurve"/>
      <point x="461" y="341"/>
      <point x="371" y="441"/>
      <point x="301" y="441" type="qcurve"/>
      <point x="232" y="441"/>
      <point x="143" y="341"/>
    </contour>
    <contour>
      <point x="217" y="634" type="qcurve"/>
      <point x="144" y="644" type="line"/>
      <point x="146" y="696"/>
      <point x="208" y="765"/>
      <point x="254" y="765" type="qcurve"/>
      <point x="273" y="765"/>
      <point x="306" y="749"/>
      <point x="328" y="726" type="qcurve"/>
      <point x="343" y="711"/>
      <point x="357" y="703"/>
      <point x="364" y="703" type="qcurve"/>
      <point x="377" y="703"/>
      <point x="393" y="732"/>
      <point x="392" y="753" type="qcurve"/>
      <point x="465" y="737" type="line"/>
      <point x="462" y="693"/>
      <point x="406" y="631"/>
      <point x="364" y="631" type="qcurve"/>
      <point x="341" y="631"/>
      <point x="303" y="649"/>
      <point x="279" y="673" type="qcurve"/>
      <point x="267" y="685"/>
      <point x="257" y="692"/>
      <point x="252" y="692" type="qcurve"/>
      <point x="235" y="692"/>
      <point x="217" y="663"/>
    </contour>
  </outline>
</glyph>
<glyph name="aring" format="2">
  <advance width="633"/>
  <unicode hex="00E5"/>
  <outline>
    <contour>
      <point x="457" y="525" type="line"/>
      <point x="561" y="525" type="line"/>
      <point x="561" y="0" type="line"/>
      <point x="457" y="0" type="line"/>
      <point x="457" y="125" type="line"/>
      <point x="481" y="132" type="line"/>
      <point x="469" y="78"/>
      <point x="350" y="-10"/>
      <point x="274" y="-10" type="qcurve"/>
      <point x="176" y="-10"/>
      <point x="38" y="147"/>
      <point x="38" y="264" type="qcurve"/>
      <point x="38" y="383"/>
      <point x="180" y="536"/>
      <point x="283" y="536" type="qcurve"/>
      <point x="364" y="536"/>
      <point x="471" y="445"/>
      <point x="480" y="381" type="qcurve"/>
      <point x="457" y="389" type="line"/>
    </contour>
    <contour>
      <point x="143" y="264" type="qcurve"/>
      <point x="143" y="186"/>
      <point x="232" y="85"/>
      <point x="301" y="85" type="qcurve"/>
      <point x="371" y="85"/>
      <point x="461" y="186"/>
      <point x="461" y="264" type="qcurve"/>
      <point x="461" y="341"/>
      <point x="371" y="441"/>
      <point x="301" y="441" type="qcurve"/>
      <point x="232" y="441"/>
      <point x="143" y="341"/>
    </contour>
    <contour>
      <point x="418" y="709" type="qcurve"/>
      <point x="418" y="667"/>
      <point x="352" y="604"/>
      <point x="308" y="604" type="qcurve"/>
      <point x="265" y="604"/>
      <point x="199" y="667"/>
      <point x="199" y="709" type="qcurve"/>
      <point x="199" y="752"/>
      <point x="264" y="815"/>
      <point x="308" y="815" type="qcurve"/>
      <point x="352" y="815"/>
      <point x="418" y="752"/>
    </contour>
    <contour>
      <point x="259" y="709" type="qcurve"/>
      <point x="259" y="690"/>
      <point x="288" y="663"/>
      <point x="308" y="663" type="qcurve"/>
      <point x="329" y="663"/>
      <point x="358" y="690"/>
      <point x="358" y="709" type="qcurve"/>
      <point x="358" y="730"/>
      <point x="329" y="756"/>
      <point x="308" y="756" type="qcurve"/>
      <point x="287" y="756"/>
      <point x="259" y="729"/>
    </contour>
  </outline>
</glyph>
<glyph name="icircumflex" format="2">
  <advance width="243"/>
  <unicode hex="00EE"/>
  <outline>
    <contour>
      <point x="175" y="525" type="line"/>
      <point x="175" y="0" type="line"/>
      <point x="72" y="0" type="line"/>
      <point x="72" y="525" type="line"/>
    </contour>
    <contour>
      <point x="247" y="628" type="line"/>
      <point x="112" y="701" type="line"/>
      <point x="142" y="701" type="line"/>
      <point x="7" y="628" type="line"/>
      <point x="-31" y="661" type="line"/>
      <point x="84" y="774" type="line"/>
      <point x="170" y="774" type="line"/>
      <point x="285" y="661" type="line"/>
    </contour>
  </outline>
</glyph>
<glyph name="ntilde" format="2">
  <advance width="595"/>
  <unicode hex="00F1"/>
  <outline>
    <contour>
      <point x="347" y="536" type="qcurve"/>
      <point x="437" y="536"/>
      <point x="527" y="429"/>
      <point x="527" y="320" type="qcurve"/>
      <point x="527" y="0" type="line"/>
      <point x="424" y="0" type="line"/>
      <point x="424" y="313" type="line"/>
      <point x="424" y="381"/>
      <point x="369" y="445"/>
      <point x="313" y="442" type="qcurve"/>
      <point x="254" y="442"/>
      <point x="175" y="370"/>
      <point x="175" y="318" type="qcurve"/>
      <point x="175" y="0" type="line"/>
      <point x="149" y="0"/>
      <point x="98" y="0"/>
      <point x="72" y="0" type="qcurve"/>
      <point x="72" y="525" type="line"/>
      <point x="175" y="525" type="line"/>
      <point x="175" y="417" type="line"/>
      <point x="157" y="405" type="line"/>
      <point x="172" y="457"/>
      <point x="284" y="536"/>
    </contour>
    <contour>
      <point x="213" y="614" type="qcurve"/>
      <point x="140" y="624" type="line"/>
      <point x="142" y="676"/>
      <point x="204" y="745"/>
      <point x="250" y="745" type="qcurve"/>
      <point x="269" y="745"/>
      <point x="302" y="729"/>
      <point x="324" y="706" type="qcurve"/>
      <point x="339" y="691"/>
      <point x="353" y="683"/>
      <point x="360" y="683" type="qcurve"/>
      <point x="373" y="683"/>
      <point x="389" y="712"/>
      <point x="388" y="733" type="qcurve"/>
      <point x="461" y="717" type="line"/>
      <point x="458" y="673"/>
      <point x="402" y="611"/>
      <point x="360" y="611" type="qcurve"/>
      <point x="337" y="611"/>
      <point x="299" y="629"/>
      <point x="275" y="653" type="qcurve"/>
      <point x="263" y="665"/>
      <point x="253" y="672"/>
      <point x="248" y="672" type="qcurve"/>
      <point x="231" y="672"/>
      <point x="213" y="643"/>
    </contour>
  </outline>
</glyph>
<glyph name="ugrave" format="2">
  <advance width="605"/>
  <unicode hex="00F9"/>
  <outline>
    <contour>
      <point x="298" y="80" type="qcurve"/>
      <point x="355" y="80"/>
      <point x="430" y="152"/>
      <point x="430" y="209" type="qcurve"/>
      <point x="430" y="525" type="line"/>
      <point x="533" y="525" type="line"/>
      <point x="533" y="0" type="line"/>
      <point x="430" y="0" type="line"/>
      <point x="430" y="110" type="line"/>
      <point x="448" y="122" type="line"/>
      <point x="430" y="66"/>
      <point x="323" y="-10"/>
      <point x="256" y="-10" type="qcurve"/>
      <point x="172" y="-10"/>
      <point x="72" y="104"/>
      <point x="72" y="201" type="qcurve"/>
      <point x="72" y="525" type="line"/>
      <point x="175" y="525" type="line"/>
      <point x="175" y="229" type="line"/>
      <point x="175" y="160"/>
      <point x="240" y="80"/>
    </contour>
    <contour>
      <point x="359" y="664" type="line"/>
      <point x="325" y="613" type="line"/>
      <point x="151" y="707" type="line"/>
      <point x="216" y="789" type="line"/>
    </contour>
  </outline>
</glyph>
<glyph name="Abreve" format="2">
  <advance width="700"/>
  <unicode hex="0102"/>
  <outline>
    <contour>
      <point x="337" y="612" type="qcurve"/>
      <point x="360" y="613" type="line"/>
      <point x="348" y="580"/>
      <point x="306" y="449"/>
      <point x="294" y="418" type="qcurve"/>
      <point x="135" y="0" type="line"/>
      <point x="25" y="0" type="line"/>
      <point x="296" y="700" type="line"/>
      <point x="406" y="700" type="line"/>
      <point x="675" y="0" type="line"/>
      <point x="560" y="0" type="line"/>
      <point x="400" y="422" type="line"/>
      <point x="390" y="451"/>
      <point x="349" y="579"/>
    </contour>
    <contour>
      <point x="354" y="174" type="line"/>
      <point x="145" y="174" type="line"/>
      <point x="185" y="278" type="line"/>
      <point x="354" y="278" type="line"/>
    </contour>
    <contour>
      <point x="549" y="174" type="line"/>
      <point x="354" y="174" type="line"/>
      <point x="354" y="278" type="line"/>
      <point x="503" y="278" type="line"/>
    </contour>
    <contour>
      <point x="349" y="751" type="qcurve"/>
      <point x="288" y="751"/>
      <point x="201" y="834"/>
      <point x="187" y="905" type="qcurve"/>
      <point x="261" y="917" type="line"/>
      <point x="274" y="878"/>
      <point x="322" y="832"/>
      <point x="349" y="832" type="qcurve"/>
      <point x="376" y="832"/>
      <point x="424" y="878"/>
      <point x="437" y="917" type="qcurve"/>
      <point x="511" y="905" type="line"/>
      <point x="497" y="834"/>
      <point x="410" y="751"/>
    </contour>
  </outline>
</glyph>
<glyph name="cacute" format="2">
  <advance width="535"/>
  <unicode hex="0107"/>
  <outline>
    <contour>
      <point x="305" y="443" type="qcurve"/>
      <point x="233" y="443"/>
      <point x="138" y="340"/>
      <point x="138" y="263" type="qcurve"/>
      <point x="138" y="187"/>
      <point x="237" y="83"/>
      <point x="306" y="83" type="qcurve"/>
      <point x="346" y="83"/>
      <point x="421" y="124"/>
      <point x="453" y="163" type="qcurve"/>
      <point x="510" y="93" type="line"/>
      <point x="478" y="48"/>
      <point x="359" y="-10"/>
      <point x="295" y="-10" type="qcurve"/>
      <point x="186" y="-10"/>
      <point x="40" y="147"/>
      <point x="40" y="263" type="qcurve"/>
      <point x="40" y="379"/>
      <point x="186" y="536"/>
      <point x="295" y="536" type="qcurve"/>
      <point x="365" y="536"/>
      <point x="480" y="479"/>
      <point x="510" y="430" type="qcurve"/>
      <point x="453" y="360" type="line"/>
      <point x="429" y="395"/>
      <point x="344" y="443"/>
    </contour>
    <contour>
      <point x="456" y="725" type="line"/>
      <point x="282" y="631" type="line"/>
      <point x="248" y="682" type="line"/>
      <point x="391" y="807" type="line"/>
    </contour>
  </outline>
</glyph>
<glyph name="cdotaccent" format="2">
  <advance width="535"/>
  <unicode hex="010B"/>
  <outline>
    <contour>
      <point x="305" y="443" type="qcurve"/>
      <point x="233" y="443"/>
      <point x="138" y="340"/>
      <point x="138" y="263" type="qcurve"/>
      <point x="138" y="187"/>
      <point x="237" y="83"/>
      <point x="306" y="83" type="qcurve"/>
      <point x="346" y="83"/>
      <point x="421" y="124"/>
      <point x="453" y="163" type="qcurve"/>
      <point x="510" y="93" type="line"/>
      <point x="478" y="48"/>
      <point x="359" y="-10"/>
      <point x="295" y="-10" type="qcurve"/>
      <point x="186" y="-10"/>
      <point x="40" y="147"/>
      <point x="40" y="263" type="qcurve"/>
      <point x="40" y="379"/>
      <point x="186" y="536"/>
      <point x="295" y="536" type="qcurve"/>
      <point x="365" y="536"/>
      <point x="480" y="479"/>
      <point x="510" y="430" type="qcurve"/>
      <point x="453" y="360" type="line"/>
      <point x="429" y="395"/>
      <point x="344" y="443"/>
    </contour>
    <contour>
      <point x="369" y="709" type="qcurve"/>
      <point x="369" y="680"/>
      <point x="332" y="644"/>
      <point x="300" y="644" type="qcurve"/>
      <point x="267" y="644"/>
      <point x="231" y="678"/>
      <point x="231" y="709" type="qcurve"/>
      <point x="231" y="738"/>
      <point x="268" y="774"/>
      <point x="300" y="774" type="qcurve"/>
      <point x="333" y="774"/>
      <point x="369" y="740"/>
    </contour>
  </outline>
</glyph>
<glyph name="Ccaron" format="2">
  <advance width="679"/>
  <unicode hex="010C"/>
  <outline>
    <contour>
      <point x="576" y="174" type="qcurve"/>
      <point x="630" y="86" type="line"/>
      <point x="595" y="45"/>
      <point x="456" y="-10"/>
      <point x="382" y="-10" type="qcurve"/>
      <point x="236" y="-10"/>
      <point x="48" y="191"/>
      <point x="48" y="350" type="qcurve"/>
      <point x="48" y="500"/>
      <point x="248" y="706"/>
      <point x="391" y="706" type="qcurve"/>
      <point x="467" y="706"/>
      <point x="606" y="638"/>
      <point x="643" y="585" type="qcurve"/>
      <point x="571" y="510" type="line"/>
      <point x="528" y="554"/>
      <point x="438" y="598"/>
      <point x="391" y="598" type="qcurve"/>
      <point x="293" y="598"/>
      <point x="158" y="458"/>
      <point x="158" y="350" type="qcurve"/>
      <point x="158" y="235"/>
      <point x="292" y="99"/>
      <point x="400" y="99" type="qcurve"/>
      <point x="450" y="99"/>
      <point x="542" y="139"/>
    </contour>
    <contour>
      <point x="488" y="902" type="line"/>
      <point x="353" y="829" type="line"/>
      <point x="383" y="829" type="line"/>
      <point x="248" y="902" type="line"/>
      <point x="210" y="869" type="line"/>
      <point x="325" y="756" type="line"/>
      <point x="411" y="756" type="line"/>
      <point x="526" y="869" type="line"/>
    </contour>
  </outline>
</glyph>
<glyph name="Dcaron" format="2">
  <advance width="748"/>
  <unicode hex="010E"/>
  <outline>
    <contour>
      <point x="98" y="700" type="line"/>
      <point x="372" y="700" type="line"/>
      <point x="522" y="700"/>
      <point x="700" y="506"/>
      <point x="700" y="350" type="qcurve"/>
      <point x="700" y="193"/>
      <point x="523" y="0"/>
      <point x="372" y="0" type="qcurve"/>
      <point x="98" y="0" type="line"/>
    </contour>
    <contour>
      <point x="203" y="104" type="line"/>
      <point x="367" y="104" type="line"/>
      <point x="473" y="104"/>
      <point x="590" y="235"/>
      <point x="590" y="350" type="qcurve"/>
      <point x="590" y="464"/>
      <point x="472" y="596"/>
      <point x="367" y="596" type="qcurve"/>
      <point x="200" y="596" type="line"/>
      <point x="206" y="605" type="line"/>
      <point x="206" y="93" type="line"/>
    </contour>
    <contour>
      <point x="441" y="902" type="line"/>
      <point x="306" y="829" type="line"/>
      <point x="336" y="829" type="line"/>
      <point x="201" y="902" type="line"/>
      <point x="163" y="869" type="line"/>
      <point x="278" y="756" type="line"/>
      <point x="364" y="756" type="line"/>
      <point x="479" y="869" type="line"/>
    </contour>
  </outline>
</glyph>
<glyph name="dcaron" format="2">
  <advance width="841"/>
  <unicode hex="010F"/>
  <outline>
    <contour>
      <point x="461" y="740" type="line"/>
      <point x="564" y="740" type="line"/>
      <point x="564" y="0" type="line"/>
      <point x="461" y="0" type="line"/>
      <point x="461" y="125" type="line"/>
      <point x="481" y="125" type="line"/>
      <point x="481" y="78"/>
      <point x="364" y="-10"/>
      <point x="291" y="-10" type="qcurve"/>
      <point x="183" y="-10"/>
      <point x="40" y="145"/>
      <point x="40" y="263" type="qcurve"/>
      <point x="40" y="381"/>
      <point x="182" y="536"/>
      <point x="288" y="536" type="qcurve"/>
      <point x="367" y="536"/>
      <point x="491" y="443"/>
      <point x="491" y="391" type="qcurve"/>
      <point x="461" y="389" type="line"/>
    </contour>
    <contour>
      <point x="145" y="263" type="qcurve"/>
      <point x="145" y="183"/>
      <point x="235" y="79"/>
      <point x="305" y="79" type="qcurve"/>
      <point x="375" y="79"/>
      <point x="465" y="183"/>
      <point x="465" y="263" type="qcurve"/>
      <point x="465" y="343"/>
      <point x="375" y="447"/>
      <point x="305" y="447" type="qcurve"/>
      <point x="235" y="447"/>
      <point x="145" y="343"/>
    </contour>
    <contour>
      <point x="653" y="593" type="qcurve"/>
      <point x="629" y="635" type="line"/>
      <point x="650" y="640"/>
      <point x="683" y="672"/>
      <point x="683" y="687" type="qcurve"/>
      <point x="683" y="693"/>
      <point x="676" y="701"/>
      <point x="664" y="704" type="qcurve"/>
      <point x="646" y="709"/>
      <point x="634" y="727"/>
      <point x="634" y="742" type="qcurve"/>
      <point x="634" y="764"/>
      <point x="670" y="791"/>
      <point x="699" y="791" type="qcurve"/>
      <point x="732" y="791"/>
      <point x="777" y="749"/>
      <point x="777" y="714" type="qcurve"/>
      <point x="777" y="676"/>
      <point x="709" y="612"/>
    </contour>
  </outline>
</glyph>
<glyph name="Ebreve" format="2">
  <advance width="614"/>
  <unicode hex="0114"/>
  <outline>
    <contour>
      <point x="206" y="0" type="line"/>
      <point x="98" y="0" type="line"/>
      <point x="98" y="700" type="line"/>
      <point x="206" y="700" type="line"/>
    </contour>
    <contour>
      <point x="539" y="0" type="line"/>
      <point x="147" y="0" type="line"/>
      <point x="147" y="104" type="line"/>
      <point x="539" y="104" type="line"/>
    </contour>
    <contour>
      <point x="484" y="307" type="line"/>
      <point x="147" y="307" type="line"/>
      <point x="147" y="411" type="line"/>
      <point x="484" y="411" type="line"/>
    </contour>
    <contour>
      <point x="539" y="596" type="line"/>
      <point x="147" y="596" type="line"/>
      <point x="147" y="700" type="line"/>
      <point x="539" y="700" type="line"/>
    </contour>
    <contour>
      <point x="314" y="751" type="qcurve"/>
      <point x="253" y="751"/>
      <point x="166" y="834"/>
      <point x="152" y="905" type="qcurve"/>
      <point x="226" y="917" type="line"/>
      <point x="239" y="878"/>
      <point x="287" y="832"/>
      <point x="314" y="832" type="qcurve"/>
      <point x="341" y="832"/>
      <point x="389" y="878"/>
      <point x="402" y="917" type="qcurve"/>
      <point x="476" y="905" type="line"/>
      <point x="462" y="834"/>
      <point x="375" y="751"/>
    </contour>
  </outline>
</glyph>
<glyph name="Edotaccent" format="2">
  <advance width="614"/>
  <unicode hex="0116"/>
  <outline>
    <contour>
      <point x="206" y="0" type="line"/>
      <point x="98" y="0" type="line"/>
      <point x="98" y="700" type="line"/>
      <point x="206" y="700" type="line"/>
    </contour>
    <contour>
      <point x="539" y="0" type="line"/>
      <point x="147" y="0" type="line"/>
      <point x="147" y="104" type="line"/>
      <point x="539" y="104" type="line"/>
    </contour>
    <contour>
      <point x="484" y="307" type="line"/>
      <point x="147" y="307" type="line"/>
      <point x="147" y="411" type="line"/>
      <point x="484" y="411" type="line"/>
    </contour>
    <contour>
      <point x="539" y="596" type="line"/>
      <point x="147" y="596" type="line"/>
      <point x="147" y="700" type="line"/>
      <point x="539" y="700" type="line"/>
    </contour>
    <contour>
      <point x="387" y="824" type="qcurve"/>
      <point x="387" y="795"/>
      <point x="350" y="759"/>
      <point x="318" y="759" type="qcurve"/>
      <point x="285" y="759"/>
      <point x="249" y="793"/>
      <point x="249" y="824" type="qcurve"/>
      <point x="249" y="853"/>
      <point x="286" y="889"/>
      <point x="318" y="889" type="qcurve"/>
      <point x="351" y="889"/>
      <point x="387" y="855"/>
    </contour>
  </outline>
</glyph>
<glyph name="Eogonek" format="2">
  <advance width="614"/>
  <unicode hex="0118"/>
  <outline>
    <contour>
      <point x="206" y="0" type="line"/>
      <point x="98" y="0" type="line"/>
      <point x="98" y="700" type="line"/>
      <point x="206" y="700" type="line"/>
    </contour>
    <contour>
      <point x="539" y="0" type="line"/>
      <point x="147" y="0" type="line"/>
      <point x="147" y="104" type="line"/>
      <point x="539" y="104" type="line"/>
    </contour>
    <contour>
      <point x="484" y="307" type="line"/>
      <point x="147" y="307" type="line"/>
      <point x="147" y="411" type="line"/>
      <point x="484" y="411" type="line"/>
    </contour>
    <contour>
      <point x="539" y="596" type="line"/>
      <point x="147" y="596" type="line"/>
      <point x="147" y="700" type="line"/>
      <point x="539" y="700" type="line"/>
    </contour>
    <contour>
      <point x="449" y="-200" type="qcurve"/>
      <point x="406" y="-200"/>
      <point x="340" y="-139"/>
      <point x="340" y="-97" type="qcurve"/>
      <point x="340" y="-47"/>
      <point x="423" y="31"/>
      <point x="495" y="51" type="qcurve"/>
      <point x="539" y="44" type="line"/>
      <point x="539" y="0" type="line"/>
      <point x="495" y="-10"/>
      <point x="431" y="-60"/>
      <point x="431" y="-87" type="qcurve"/>
      <point x="431" y="-103"/>
      <point x="450" y="-123"/>
      <point x="465" y="-123" type="qcurve"/>
      <point x="476" y="-123"/>
      <point x="494" y="-110"/>
      <point x="502" y="-98" type="qcurve"/>
      <point x="558" y="-138" type="line"/>
      <point x="548" y="-163"/>
      <point x="485" y="-200"/>
    </contour>
  </outline>
</glyph>
<glyph name="Ecaron" format="2">
  <advance width="614"/>
  <unicode hex="011A"/>
  <outline>
    <contour>
      <point x="206" y="0" type="line"/>
      <point x="98" y="0" type="line"/>
      <point x="98" y="700" type="line"/>
      <point x="206" y="700" type="line"/>
    </contour>
    <contour>
      <point x="539" y="0" type="line"/>
      <point x="147" y="0" type="line"/>
      <point x="147" y="104" type="line"/>
      <point x="539" y="104" type="line"/>
    </contour>
    <contour>
      <point x="484" y="307" type="line"/>
      <point x="147" y="307" type="line"/>
      <point x="147" y="411" type="line"/>
      <point x="484" y="411" type="line"/>
    </contour>
    <contour>
      <point x="539" y="596" type="line"/>
      <point x="147" y="596" type="line"/>
      <point x="147" y="700" type="line"/>
      <point x="539" y="700" type="line"/>
    </contour>
    <contour>
      <point x="433" y="902" type="line"/>
      <point x="298" y="829" type="line"/>
      <point x="328" y="829" type="line"/>
      <point x="193" y="902" type="line"/>
      <point x="155" y="869" type="line"/>
      <point x="270" y="756" type="line"/>
      <point x="356" y="756" type="line"/>
      <point x="471" y="869" type="line"/>
    </contour>
  </outline>
</glyph>
<glyph name="ecaron" format="2">
  <advance width="586"/>
  <unicode hex="011B"/>
  <outline>
    <contour>
      <point x="472" y="144" type="qcurve"/>
      <point x="524" y="71" type="line"/>
      <point x="487" y="35"/>
      <point x="373" y="-10"/>
      <point x="317" y="-10" type="qcurve"/>
      <point x="195" y="-10"/>
      <point x="40" y="140"/>
      <point x="40" y="257" type="qcurve"/>
      <point x="40" y="381"/>
      <point x="191" y="536"/>
      <point x="308" y="537" type="qcurve"/>
      <point x="410" y="536"/>
      <point x="546" y="392"/>
      <point x="546" y="282" type="qcurve"/>
      <point x="545" y="238" type="line"/>
      <point x="116" y="238" type="line"/>
      <point x="93" y="320" type="line"/>
      <point x="456" y="320" type="line"/>
      <point x="441" y="303" type="line"/>
      <point x="441" y="327" type="line"/>
      <point x="436" y="376"/>
      <point x="359" y="442"/>
      <point x="308" y="442" type="qcurve"/>
      <point x="227" y="442"/>
      <point x="142" y="351"/>
      <point x="142" y="264" type="qcurve"/>
      <point x="142" y="182"/>
      <point x="244" y="84"/>
      <point x="327" y="84" type="qcurve"/>
      <point x="366" y="84"/>
      <point x="433" y="110"/>
    </contour>
    <contour>
      <point x="309" y="710" type="line"/>
      <point x="279" y="710" type="line"/>
      <point x="404" y="783" type="line"/>
      <point x="442" y="750" type="line"/>
      <point x="337" y="637" type="line"/>
      <point x="251" y="637" type="line"/>
      <point x="146" y="750" type="line"/>
      <point x="184" y="783" type="line"/>
    </contour>
  </outline>
</glyph>
<glyph name="gbreve" format="2">
  <advance width="649"/>
  <unicode hex="011F"/>
  <outline>
    <contour>
      <point x="106" y="-167" type="qcurve"/>
      <point x="144" y="-87" type="line"/>
      <point x="174" y="-110"/>
      <point x="263" y="-138"/>
      <point x="307" y="-138" type="qcurve"/>
      <point x="389" y="-138"/>
      <point x="474" y="-58"/>
      <point x="474" y="20" type="qcurve"/>
      <point x="474" y="121" type="line"/>
      <point x="485" y="114" type="line"/>
      <point x="478" y="68"/>
      <point x="365" y="-10"/>
      <point x="300" y="-10" type="qcurve"/>
      <point x="188" y="-10"/>
      <point x="40" y="145"/>
      <point x="40" y="263" type="qcurve"/>
      <point x="40" y="381"/>
      <point x="187" y="536"/>
      <point x="297" y="536" type="qcurve"/>
      <point x="371" y="536"/>
      <point x="489" y="451"/>
      <point x="496" y="410" type="qcurve"/>
      <point x="474" y="402" type="line"/>
      <point x="474" y="525" type="line"/>
      <point x="577" y="525" type="line"/>
      <point x="577" y="32" type="line"/>
      <point x="577" y="-93"/>
      <point x="433" y="-230"/>
      <point x="307" y="-230" type="qcurve"/>
      <point x="251" y="-230"/>
      <point x="140" y="-195"/>
    </contour>
    <contour>
      <point x="478" y="263" type="qcurve"/>
      <point x="478" y="341"/>
      <point x="384" y="442"/>
      <point x="311" y="442" type="qcurve"/>
      <point x="239" y="442"/>
      <point x="145" y="340"/>
      <point x="145" y="263" type="qcurve"/>
      <point x="145" y="186"/>
      <point x="239" y="85"/>
      <point x="311" y="85" type="qcurve"/>
      <point x="385" y="85"/>
      <point x="478" y="185"/>
    </contour>
    <contour>
      <point x="324" y="639" type="qcurve"/>
      <point x="263" y="639"/>
      <point x="176" y="722"/>
      <point x="162" y="793" type="qcurve"/>
      <point x="236" y="805" type="line"/>
      <point x="249" y="766"/>
      <point x="297" y="720"/>
      <point x="324" y="720" type="qcurve"/>
      <point x="351" y="720"/>
      <point x="399" y="766"/>
      <point x="412" y="805" type="qcurve"/>
      <point x="486" y="793" type="line"/>
      <point x="472" y="722"/>
      <point x="385" y="639"/>
    </contour>
  </outline>
</glyph>
<glyph name="gdotaccent" format="2">
  <advance width="649"/>
  <unicode hex="0121"/>
  <outline>
    <contour>
      <point x="106" y="-167" type="qcurve"/>
      <point x="144" y="-87" type="line"/>
      <point x="174" y="-110"/>
      <point x="263" y="-138"/>
      <point x="307" y="-138" type="qcurve"/>
      <point x="389" y="-138"/>
      <point x="474" y="-58"/>
      <point x="474" y="20" type="qcurve"/>
      <point x="474" y="121" type="line"/>
      <point x="485" y="114" type="line"/>
      <point x="478" y="68"/>
      <point x="365" y="-10"/>
      <point x="300" y="-10" type="qcurve"/>
      <point x="188" y="-10"/>
      <point x="40" y="145"/>
      <point x="40" y="263" type="qcurve"/>
      <point x="40" y="381"/>
      <point x="187" y="536"/>
      <point x="297" y="536" type="qcurve"/>
      <point x="371" y="536"/>
      <point x="489" y="451"/>
      <point x="496" y="410" type="qcurve"/>
      <point x="474" y="402" type="line"/>
      <point x="474" y="525" type="line"/>
      <point x="577" y="525" type="line"/>
      <point x="577" y="32" type="line"/>
      <point x="577" y="-93"/>
      <point x="433" y="-230"/>
      <point x="307" y="-230" type="qcurve"/>
      <point x="251" y="-230"/>
      <point x="140" y="-195"/>
    </contour>
    <contour>
      <point x="478" y="263" type="qcurve"/>
      <point x="478" y="341"/>
      <point x="384" y="442"/>
      <point x="311" y="442" type="qcurve"/>
      <point x="239" y="442"/>
      <point x="145" y="340"/>
      <point x="145" y="263" type="qcurve"/>
      <point x="145" y="186"/>
      <point x="239" y="85"/>
      <point x="311" y="85" type="qcurve"/>
      <point x="385" y="85"/>
      <point x="478" y="185"/>
    </contour>
    <contour>
      <point x="397" y="714" type="qcurve"/>
      <point x="397" y="685"/>
      <point x="360" y="649"/>
      <point x="328" y="649" type="qcurve"/>
      <point x="295" y="649"/>
      <point x="259" y="683"/>
      <point x="259" y="714" type="qcurve"/>
      <point x="259" y="743"/>
      <point x="296" y="779"/>
      <point x="328" y="779" type="qcurve"/>
      <point x="361" y="779"/>
      <point x="397" y="745"/>
    </contour>
  </outline>
</glyph>
<glyph name="uni0123" format="2">
  <advance width="649"/>
  <unicode hex="0123"/>
  <outline>
    <contour>
      <point x="106" y="-167" type="qcurve"/>
      <point x="144" y="-87" type="line"/>
      <point x="174" y="-110"/>
      <point x="263" y="-138"/>
      <point x="307" y="-138" type="qcurve"/>
      <point x="389" y="-138"/>
      <point x="474" y="-58"/>
      <point x="474" y="20" type="qcurve"/>
      <point x="474" y="121" type="line"/>
      <point x="485" y="114" type="line"/>
      <point x="478" y="68"/>
      <point x="365" y="-10"/>
      <point x="300" y="-10" type="qcurve"/>
      <point x="188" y="-10"/>
      <point x="40" y="145"/>
      <point x="40" y="263" type="qcurve"/>
      <point x="40" y="381"/>
      <point x="187" y="536"/>
      <point x="297" y="536" type="qcurve"/>
      <point x="371" y="536"/>
      <point x="489" y="451"/>
      <point x="496" y="410" type="qcurve"/>
      <point x="474" y="402" type="line"/>
      <point x="474" y="525" type="line"/>
      <point x="577" y="525" type="line"/>
      <point x="577" y="32" type="line"/>
      <point x="577" y="-93"/>
      <point x="433" y="-230"/>
      <point x="307" y="-230" type="qcurve"/>
      <point x="251" y="-230"/>
      <point x="140" y="-195"/>
    </contour>
    <contour>
      <point x="478" y="263" type="qcurve"/>
      <point x="478" y="341"/>
      <point x="384" y="442"/>
      <point x="311" y="442" type="qcurve"/>
      <point x="239" y="442"/>
      <point x="145" y="340"/>
      <point x="145" y="263" type="qcurve"/>
      <point x="145" y="186"/>
      <point x="239" y="85"/>
      <point x="311" y="85" type="qcurve"/>
      <point x="385" y="85"/>
      <point x="478" y="185"/>
    </contour>
    <contour>
      <point x="402" y="805" type="qcurve"/>
      <point x="426" y="763" type="line"/>
      <point x="405" y="758"/>
      <point x="372" y="726"/>
      <point x="372" y="711" type="qcurve"/>
      <point x="372" y="705"/>
      <point x="379" y="697"/>
      <point x="391" y="694" type="qcurve"/>
      <point x="409" y="689"/>
      <point x="421" y="671"/>
      <point x="421" y="656" type="qcurve"/>
      <point x="421" y="634"/>
      <point x="385" y="607"/>
      <point x="356" y="607" type="qcurve"/>
      <point x="323" y="607"/>
      <point x="278" y="649"/>
      <point x="278" y="684" type="qcurve"/>
      <point x="278" y="722"/>
      <point x="346" y="786"/>
    </contour>
  </outline>
</glyph>
<glyph name="Hcircumflex" format="2">
  <advance width="761"/>
  <unicode hex="0124"/>
  <outline>
    <contour>
      <point x="98" y="700" type="line"/>
      <point x="206" y="700" type="line"/>
      <point x="206" y="0" type="line"/>
      <point x="98" y="0" type="line"/>
    </contour>
    <contour>
      <point x="555" y="700" type="line"/>
      <point x="663" y="700" type="line"/>
      <point x="663" y="0" type="line"/>
      <point x="555" y="0" type="line"/>
    </contour>
    <contour>
      <point x="145" y="297" type="line"/>
      <point x="145" y="401" type="line"/>
      <point x="603" y="401" type="line"/>
      <point x="603" y="297" type="line"/>
    </contour>
    <contour>
      <point x="494" y="748" type="line"/>
      <point x="361" y="823" type="line"/>
      <point x="390" y="823" type="line"/>
      <point x="257" y="748" type="line"/>
      <point x="220" y="783" type="line"/>
      <point x="339" y="894" type="line"/>
      <point x="412" y="894" type="line"/>
      <point x="531" y="783" type="line"/>
    </contour>
  </outline>
</glyph>
<glyph name="hcircumflex" format="2">
  <advance width="595"/>
  <unicode hex="0125"/>
  <outline>
    <contour>
      <point x="347" y="536" type="qcurve"/>
      <point x="437" y="536"/>
      <point x="527" y="429"/>
      <point x="527" y="320" type="qcurve"/>
      <point x="527" y="0" type="line"/>
      <point x="424" y="0" type="line"/>
      <point x="424" y="313" type="line"/>
      <point x="424" y="381"/>
      <point x="369" y="445"/>
      <point x="313" y="442" type="qcurve"/>
      <point x="254" y="442"/>
      <point x="175" y="370"/>
      <point x="175" y="318" type="qcurve"/>
      <point x="175" y="0" type="line"/>
      <point x="149" y="0"/>
      <point x="98" y="0"/>
      <point x="72" y="0" type="qcurve"/>
      <point x="72" y="740" type="line"/>
      <point x="175" y="740" type="line"/>
      <point x="175" y="417" type="line"/>
      <point x="157" y="405" type="line"/>
      <point x="172" y="457"/>
      <point x="284" y="536"/>
    </contour>
    <contour>
      <point x="240" y="778" type="line"/>
      <point x="105" y="851" type="line"/>
      <point x="135" y="851" type="line"/>
      <point x="0" y="778" type="line"/>
      <point x="-38" y="811" type="line"/>
      <point x="77" y="924" type="line"/>
      <point x="163" y="924" type="line"/>
      <point x="278" y="811" type="line"/>
    </contour>
  </outline>
</glyph>
<glyph name="Imacron" format="2">
  <advance width="478"/>
  <unicode hex="012A"/>
  <outline>
    <contour>
      <point x="293" y="700" type="qcurve"/>
      <point x="293" y="0" type="line"/>
      <point x="185" y="0" type="line"/>
      <point x="185" y="700" type="line"/>
      <point x="212" y="700"/>
      <point x="266" y="700"/>
    </contour>
    <contour>
      <point x="406" y="700" type="line"/>
      <point x="406" y="600" type="line"/>
      <point x="72" y="600" type="line"/>
      <point x="72" y="700" type="line"/>
    </contour>
    <contour>
      <point x="406" y="100" type="line"/>
      <point x="406" y="0" type="line"/>
      <point x="72" y="0" type="line"/>
      <point x="72" y="100" type="line"/>
    </contour>
    <contour>
      <point x="405" y="776" type="line"/>
      <point x="74" y="776" type="line"/>
      <point x="74" y="851" type="line"/>
      <point x="405" y="851" type="line"/>
    </contour>
  </outline>
</glyph>
<glyph name="Ibreve" format="2">
  <advance width="478"/>
  <unicode hex="012C"/>
  <outline>
    <contour>
      <point x="293" y="700" type="qcurve"/>
      <point x="293" y="0" type="line"/>
      <point x="185" y="0" type="line"/>
      <point x="185" y="700" type="line"/>
      <point x="212" y="700"/>
      <point x="266" y="700"/>
    </contour>
    <contour>
      <point x="406" y="700" type="line"/>
      <point x="406" y="600" type="line"/>
      <point x="72" y="600" type="line"/>
      <point x="72" y="700" type="line"/>
    </contour>
    <contour>
      <point x="406" y="100" type="line"/>
      <point x="406" y="0" type="line"/>
      <point x="72" y="0" type="line"/>
      <point x="72" y="100" type="line"/>
    </contour>
    <contour>
      <point x="235" y="751" type="qcurve"/>
      <point x="174" y="751"/>
      <point x="87" y="834"/>
      <point x="73" y="905" type="qcurve"/>
      <point x="147" y="917" type="line"/>
      <point x="160" y="878"/>
      <point x="208" y="832"/>
      <point x="235" y="832" type="qcurve"/>
      <point x="262" y="832"/>
      <point x="310" y="878"/>
      <point x="323" y="917" type="qcurve"/>
      <point x="397" y="905" type="line"/>
      <point x="383" y="834"/>
      <point x="296" y="751"/>
    </contour>
  </outline>
</glyph>
<glyph name="iogonek" format="2">
  <advance width="289"/>
  <unicode hex="012F"/>
  <outline>
    <contour>
      <point x="145" y="52" type="qcurve"/>
      <point x="95" y="7" type="line"/>
      <point x="95" y="525" type="line"/>
      <point x="198" y="525" type="line"/>
      <point x="198" y="0" type="line"/>
      <point x="148" y="-21"/>
      <point x="93" y="-75"/>
      <point x="93" y="-102" type="qcurve"/>
      <point x="93" y="-120"/>
      <point x="120" y="-144"/>
      <point x="140" y="-144" type="qcurve"/>
      <point x="152" y="-144"/>
      <point x="180" y="-131"/>
      <point x="195" y="-118" type="qcurve"/>
      <point x="234" y="-177" type="line"/>
      <point x="204" y="-199"/>
      <point x="147" y="-221"/>
      <point x="120" y="-221" type="qcurve"/>
      <point x="68" y="-221"/>
      <point x="0" y="-161"/>
      <point x="0" y="-114" type="qcurve"/>
      <point x="0" y="-70"/>
      <point x="70" y="11"/>
    </contour>
    <contour>
      <point x="220" y="690" type="qcurve"/>
      <point x="220" y="661"/>
      <point x="183" y="625"/>
      <point x="151" y="625" type="qcurve"/>
      <point x="118" y="625"/>
      <point x="82" y="659"/>
      <point x="82" y="690" type="qcurve"/>
      <point x="82" y="719"/>
      <point x="119" y="755"/>
      <point x="151" y="755" type="qcurve"/>
      <point x="184" y="755"/>
      <point x="220" y="721"/>
    </contour>
  </outline>
</glyph>
<glyph name="Jcircumflex" format="2">
  <advance width="642"/>
  <unicode hex="0134"/>
  <outline>
    <contour>
      <point x="256" y="-10" type="qcurve"/>
      <point x="188" y="-10"/>
      <point x="79" y="60"/>
      <point x="50" y="117" type="qcurve"/>
      <point x="118" y="188" type="line"/>
      <point x="161" y="129"/>
      <point x="219" y="95"/>
      <point x="256" y="95" type="qcurve"/>
      <point x="310" y="95"/>
      <point x="376" y="167"/>
      <point x="376" y="223" type="qcurve"/>
      <point x="376" y="700" type="line"/>
      <point x="484" y="700" type="line"/>
      <point x="484" y="213" type="line"/>
      <point x="484" y="118"/>
      <point x="357" y="-10"/>
    </contour>
    <contour>
      <point x="592" y="700" type="line"/>
      <point x="592" y="600" type="line"/>
      <point x="248" y="600" type="line"/>
      <point x="248" y="700" type="line"/>
    </contour>
    <contour>
      <point x="542" y="748" type="line"/>
      <point x="409" y="823" type="line"/>
      <point x="438" y="823" type="line"/>
      <point x="305" y="748" type="line"/>
      <point x="268" y="783" type="line"/>
      <point x="387" y="894" type="line"/>
      <point x="460" y="894" type="line"/>
      <point x="579" y="783" type="line"/>
    </contour>
  </outline>
</glyph>
<glyph name="lacute" format="2">
  <advance width="251"/>
  <unicode hex="013A"/>
  <outline>
    <contour>
      <point x="177" y="0" type="line"/>
      <point x="74" y="0" type="line"/>
      <point x="74" y="740" type="line"/>
      <point x="177" y="740" type="line"/>
    </contour>
    <contour>
      <point x="271" y="884" type="line"/>
      <point x="97" y="790" type="line"/>
      <point x="63" y="841" type="line"/>
      <point x="206" y="966" type="line"/>
    </contour>
  </outline>
</glyph>
<glyph name="uni013B" format="2">
  <advance width="599"/>
  <unicode hex="013B"/>
  <outline>
    <contour>
      <point x="178" y="104" type="line"/>
      <point x="534" y="104" type="line"/>
      <point x="534" y="0" type="line"/>
      <point x="98" y="0" type="line"/>
      <point x="98" y="700" type="line"/>
      <point x="206" y="700" type="line"/>
      <point x="206" y="78" type="line"/>
    </contour>
    <contour>
      <point x="253" y="-243" type="qcurve"/>
      <point x="229" y="-201" type="line"/>
      <point x="250" y="-196"/>
      <point x="283" y="-164"/>
      <point x="283" y="-149" type="qcurve"/>
      <point x="283" y="-143"/>
      <point x="276" y="-135"/>
      <point x="264" y="-132" type="qcurve"/>
      <point x="246" y="-127"/>
      <point x="234" y="-109"/>
      <point x="234" y="-94" type="qcurve"/>
      <point x="234" y="-72"/>
      <point x="270" y="-45"/>
      <point x="299" y="-45" type="qcurve"/>
      <point x="332" y="-45"/>
      <point x="377" y="-87"/>
      <point x="377" y="-122" type="qcurve"/>
      <point x="377" y="-160"/>
      <point x="309" y="-224"/>
    </contour>
  </outline>
</glyph>
<glyph name="lcaron" format="2">
  <advance width="424"/>
  <unicode hex="013E"/>
  <outline>
    <contour>
      <point x="177" y="0" type="line"/>
      <point x="74" y="0" type="line"/>
      <point x="74" y="740" type="line"/>
      <point x="177" y="740" type="line"/>
    </contour>
    <contour>
      <point x="260" y="542" type="qcurve"/>
      <point x="236" y="584" type="line"/>
      <point x="257" y="589"/>
      <point x="290" y="621"/>
      <point x="290" y="636" type="qcurve"/>
      <point x="290" y="642"/>
      <point x="283" y="650"/>
      <point x="271" y="653" type="qcurve"/>
      <point x="253" y="658"/>
      <point x="241" y="676"/>
      <point x="241" y="691" type="qcurve"/>
      <point x="241" y="713"/>
      <point x="277" y="740"/>
      <point x="306" y="740" type="qcurve"/>
      <point x="339" y="740"/>
      <point x="384" y="698"/>
      <point x="384" y="663" type="qcurve"/>
      <point x="384" y="625"/>
      <point x="316" y="561"/>
    </contour>
  </outline>
</glyph>
<glyph name="Lslash" format="2">
  <advance width="638"/>
  <unicode hex="0141"/>
  <outline>
    <contour>
      <point x="217" y="104" type="line"/>
      <point x="573" y="104" type="line"/>
      <point x="573" y="0" type="line"/>
      <point x="137" y="0" type="line"/>
      <point x="137" y="700" type="line"/>
      <point x="245" y="700" type="line"/>
      <point x="245" y="78" type="line"/>
    </contour>
    <contour>
      <point x="69" y="256" type="line"/>
      <point x="40" y="328" type="line"/>
      <point x="331" y="459" type="line"/>
      <point x="363" y="382" type="line"/>
    </contour>
  </outline>
</glyph>
<glyph name="uni0145" format="2">
  <advance width="793"/>
  <unicode hex="0145"/>
  <outline>
    <contour>
      <point x="587" y="470" type="qcurve"/>
      <point x="587" y="700" type="line"/>
      <point x="695" y="700" type="line"/>
      <point x="695" y="0" type="line"/>
      <point x="596" y="0" type="line"/>
      <point x="175" y="552" type="line"/>
      <point x="186" y="566" type="line"/>
      <point x="192" y="502"/>
      <point x="206" y="336"/>
      <point x="206" y="291" type="qcurve"/>
      <point x="206" y="0" type="line"/>
      <point x="98" y="0" type="line"/>
      <point x="98" y="700" type="line"/>
      <point x="195" y="700" type="line"/>
      <point x="623" y="127" type="line"/>
      <point x="607" y="118" type="line"/>
      <point x="597" y="180"/>
      <point x="587" y="360"/>
    </contour>
    <contour>
      <point x="348" y="-243" type="qcurve"/>
      <point x="324" y="-201" type="line"/>
      <point x="345" y="-196"/>
      <point x="378" y="-164"/>
      <point x="378" y="-149" type="qcurve"/>
      <point x="378" y="-143"/>
      <point x="371" y="-135"/>
      <point x="359" y="-132" type="qcurve"/>
      <point x="341" y="-127"/>
      <point x="329" y="-109"/>
      <point x="329" y="-94" type="qcurve"/>
      <point x="329" y="-72"/>
      <point x="365" y="-45"/>
      <point x="394" y="-45" type="qcurve"/>
      <point x="427" y="-45"/>
      <point x="472" y="-87"/>
      <point x="472" y="-122" type="qcurve"/>
      <point x="472" y="-160"/>
      <point x="404" y="-224"/>
    </contour>
  </outline>
</glyph>
<glyph name="uni0146" format="2">
  <advance width="595"/>
  <unicode hex="0146"/>
  <outline>
    <contour>
      <point x="347" y="536" type="qcurve"/>
      <point x="437" y="536"/>
      <point x="527" y="429"/>
      <point x="527" y="320" type="qcurve"/>
      <point x="527" y="0" type="line"/>
      <point x="424" y="0" type="line"/>
      <point x="424" y="313" type="line"/>
      <point x="424" y="381"/>
      <point x="369" y="445"/>
      <point x="313" y="442" type="qcurve"/>
      <point x="254" y="442"/>
      <point x="175" y="370"/>
      <point x="175" y="318" type="qcurve"/>
      <point x="175" y="0" type="line"/>
      <point x="149" y="0"/>
      <point x="98" y="0"/>
      <point x="72" y="0" type="qcurve"/>
      <point x="72" y="525" type="line"/>
      <point x="175" y="525" type="line"/>
      <point x="175" y="417" type="line"/>
      <point x="157" y="405" type="line"/>
      <point x="172" y="457"/>
      <point x="284" y="536"/>
    </contour>
    <contour>
      <point x="258" y="-242" type="qcurve"/>
      <point x="234" y="-200" type="line"/>
      <point x="255" y="-195"/>
      <point x="288" y="-163"/>
      <point x="288" y="-148" type="qcurve"/>
      <point x="288" y="-142"/>
      <point x="281" y="-134"/>
      <point x="269" y="-131" type="qcurve"/>
      <point x="251" y="-126"/>
      <point x="239" y="-108"/>
      <point x="239" y="-93" type="qcurve"/>
      <point x="239" y="-71"/>
      <point x="275" y="-44"/>
      <point x="304" y="-44" type="qcurve"/>
      <point x="337" y="-44"/>
      <point x="382" y="-86"/>
      <point x="382" y="-121" type="qcurve"/>
      <point x="382" y="-159"/>
      <point x="314" y="-223"/>
    </contour>
  </outline>
</glyph>
<glyph name="ncaron" format="2">
  <advance width="595"/>
  <unicode hex="0148"/>
  <outline>
    <contour>
      <point x="347" y="536" type="qcurve"/>
      <point x="437" y="536"/>
      <point x="527" y="429"/>
      <point x="527" y="320" type="qcurve"/>
      <point x="527" y="0" type="line"/>
      <point x="424" y="0" type="line"/>
      <point x="424" y="313" type="line"/>
      <point x="424" y="381"/>
      <point x="369" y="445"/>
      <point x="313" y="442" type="qcurve"/>
      <point x="254" y="442"/>
      <point x="175" y="370"/>
      <point x="175" y="318" type="qcurve"/>
      <point x="175" y="0" type="line"/>
      <point x="149" y="0"/>
      <point x="98" y="0"/>
      <point x="72" y="0" type="qcurve"/>
      <point x="72" y="525" type="line"/>
      <point x="175" y="525" type="line"/>
      <point x="175" y="417" type="line"/>
      <point x="157" y="405" type="line"/>
      <point x="172" y="457"/>
      <point x="284" y="536"/>
    </contour>
    <contour>
      <point x="319" y="690" type="line"/>
      <point x="289" y="690" type="line"/>
      <point x="414" y="763" type="line"/>
      <point x="452" y="730" type="line"/>
      <point x="347" y="617" type="line"/>
      <point x="261" y="617" type="line"/>
      <point x="156" y="730" type="line"/>
      <point x="194" y="763" type="line"/>
    </contour>
  </outline>
</glyph>
<glyph name="eng" format="2">
  <advance width="595"/>
  <unicode hex="014B"/>
  <outline>
    <contour>
      <point x="347" y="536" type="qcurve"/>
      <point x="437" y="536"/>
      <point x="527" y="429"/>
      <point x="527" y="320" type="qcurve"/>
      <point x="527" y="-24" type="line"/>
      <point x="527" y="-101"/>
      <point x="427" y="-197"/>
      <point x="347" y="-197" type="qcurve"/>
      <point x="308" y="-118" type="line"/>
      <point x="365" y="-118"/>
      <point x="423" y="-58"/>
      <point x="424" y="0" type="qcurve"/>
      <point x="424" y="313" type="line"/>
      <point x="424" y="381"/>
      <point x="369" y="445"/>
      <point x="313" y="442" type="qcurve"/>
      <point x="254" y="442"/>
      <point x="175" y="370"/>
      <point x="175" y="318" type="qcurve"/>
      <point x="175" y="0" type="line"/>
      <point x="72" y="0" type="line"/>
      <point x="72" y="525" type="line"/>
      <point x="175" y="525" type="line"/>
      <point x="175" y="443" type="line"/>
      <point x="201" y="482"/>
      <point x="296" y="536"/>
    </contour>
  </outline>
</glyph>
<glyph name="Obreve" format="2">
  <advance width="782"/>
  <unicode hex="014E"/>
  <outline>
    <contour>
      <point x="391" y="710" type="qcurve"/>
      <point x="539" y="710"/>
      <point x="734" y="504"/>
      <point x="734" y="350" type="qcurve"/>
      <point x="734" y="196"/>
      <point x="539" y="-10"/>
      <point x="391" y="-10" type="qcurve"/>
      <point x="243" y="-10"/>
      <point x="48" y="195"/>
      <point x="48" y="350" type="qcurve"/>
      <point x="48" y="505"/>
      <point x="243" y="710"/>
    </contour>
    <contour>
      <point x="391" y="95" type="qcurve"/>
      <point x="492" y="95"/>
      <point x="624" y="240"/>
      <point x="624" y="350" type="qcurve"/>
      <point x="624" y="460"/>
      <point x="492" y="605"/>
      <point x="391" y="605" type="qcurve"/>
      <point x="289" y="605"/>
      <point x="158" y="461"/>
      <point x="158" y="350" type="qcurve"/>
      <point x="158" y="239"/>
      <point x="289" y="95"/>
    </contour>
    <contour>
      <point x="383" y="751" type="qcurve"/>
      <point x="322" y="751"/>
      <point x="235" y="834"/>
      <point x="221" y="905" type="qcurve"/>
      <point x="295" y="917" type="line"/>
      <point x="308" y="878"/>
      <point x="356" y="832"/>
      <point x="383" y="832" type="qcurve"/>
      <point x="410" y="832"/>
      <point x="458" y="878"/>
      <point x="471" y="917" type="qcurve"/>
      <point x="545" y="905" type="line"/>
      <point x="531" y="834"/>
      <point x="444" y="751"/>
    </contour>
  </outline>
</glyph>
<glyph name="oe" format="2">
  <advance width="1019"/>
  <unicode hex="0153"/>
  <outline>
    <contour>
      <point x="308" y="536" type="qcurve"/>
      <point x="422" y="536"/>
      <point x="575" y="381"/>
      <point x="575" y="263" type="qcurve"/>
      <point x="575" y="145"/>
      <point x="422" y="-10"/>
      <point x="308" y="-10" type="qcurve"/>
      <point x="193" y="-10"/>
      <point x="40" y="145"/>
      <point x="40" y="263" type="qcurve"/>
      <point x="40" y="381"/>
      <point x="193" y="536"/>
    </contour>
    <contour>
      <point x="308" y="84" type="qcurve"/>
      <point x="379" y="84"/>
      <point x="471" y="186"/>
      <point x="470" y="263" type="qcurve"/>
      <point x="471" y="341"/>
      <point x="379" y="442"/>
      <point x="308" y="442" type="qcurve"/>
      <point x="237" y="442"/>
      <point x="144" y="340"/>
      <point x="145" y="263" type="qcurve"/>
      <point x="144" y="186"/>
      <point x="237" y="84"/>
    </contour>
    <contour>
      <point x="905" y="144" type="qcurve"/>
      <point x="957" y="71" type="line"/>
      <point x="920" y="35"/>
      <point x="806" y="-10"/>
      <point x="750" y="-10" type="qcurve"/>
      <point x="628" y="-10"/>
      <point x="473" y="140"/>
      <point x="473" y="257" type="qcurve"/>
      <point x="473" y="381"/>
      <point x="624" y="536"/>
      <point x="741" y="537" type="qcurve"/>
      <point x="843" y="536"/>
      <point x="979" y="392"/>
      <point x="979" y="282" type="qcurve"/>
      <point x="978" y="238" type="line"/>
      <point x="549" y="238" type="line"/>
      <point x="526" y="320" type="line"/>
      <point x="889" y="320" type="line"/>
      <point x="874" y="303" type="line"/>
      <point x="874" y="327" type="line"/>
      <point x="869" y="376"/>
      <point x="792" y="442"/>
      <point x="741" y="442" type="qcurve"/>
      <point x="660" y="442"/>
      <point x="575" y="351"/>
      <point x="575" y="264" type="qcurve"/>
      <point x="575" y="182"/>
      <point x="677" y="84"/>
      <point x="760" y="84" type="qcurve"/>
      <point x="799" y="84"/>
      <point x="866" y="110"/>
    </contour>
  </outline>
</glyph>
<glyph name="uni0157" format="2">
  <advance width="403"/>
  <unicode hex="0157"/>
  <outline>
    <contour>
      <point x="393" y="526" type="qcurve"/>
      <point x="366" y="414" type="line"/>
      <point x="354" y="419"/>
      <point x="325" y="426"/>
      <point x="311" y="426" type="qcurve"/>
      <point x="257" y="426"/>
      <point x="176" y="347"/>
      <point x="176" y="290" type="qcurve"/>
      <point x="176" y="0" type="line"/>
      <point x="72" y="0" type="line"/>
      <point x="72" y="525" type="line"/>
      <point x="176" y="525" type="line"/>
      <point x="176" y="360" type="line"/>
      <point x="166" y="400" type="line"/>
      <point x="183" y="457"/>
      <point x="281" y="536"/>
      <point x="336" y="536" type="qcurve"/>
      <point x="353" y="536"/>
      <point x="384" y="530"/>
    </contour>
    <contour>
      <point x="81" y="-242" type="qcurve"/>
      <point x="57" y="-200" type="line"/>
      <point x="78" y="-195"/>
      <point x="111" y="-163"/>
      <point x="111" y="-148" type="qcurve"/>
      <point x="111" y="-142"/>
      <point x="104" y="-134"/>
      <point x="92" y="-131" type="qcurve"/>
      <point x="74" y="-126"/>
      <point x="62" y="-108"/>
      <point x="62" y="-93" type="qcurve"/>
      <point x="62" y="-71"/>
      <point x="98" y="-44"/>
      <point x="127" y="-44" type="qcurve"/>
      <point x="160" y="-44"/>
      <point x="205" y="-86"/>
      <point x="205" y="-121" type="qcurve"/>
      <point x="205" y="-159"/>
      <point x="137" y="-223"/>
    </contour>
  </outline>
</glyph>
<glyph name="scedilla" format="2">
  <advance width="479"/>
  <unicode hex="015F"/>
  <outline>
    <contour>
      <point x="40" y="81" type="qcurve"/>
      <point x="110" y="141" type="line"/>
      <point x="140" y="106"/>
      <point x="211" y="75"/>
      <point x="256" y="75" type="qcurve"/>
      <point x="293" y="75"/>
      <point x="340" y="111"/>
      <point x="340" y="142" type="qcurve"/>
      <point x="340" y="168"/>
      <point x="302" y="199"/>
      <point x="234" y="217" type="qcurve"/>
      <point x="132" y="244"/>
      <point x="53" y="323"/>
      <point x="53" y="385" type="qcurve"/>
      <point x="53" y="451"/>
      <point x="162" y="536"/>
      <point x="241" y="536" type="qcurve"/>
      <point x="297" y="536"/>
      <point x="402" y="491"/>
      <point x="434" y="452" type="qcurve"/>
      <point x="375" y="387" type="line"/>
      <point x="346" y="416"/>
      <point x="275" y="451"/>
      <point x="246" y="451" type="qcurve"/>
      <point x="203" y="451"/>
      <point x="156" y="419"/>
      <point x="156" y="388" type="qcurve"/>
      <point x="157" y="361"/>
      <point x="199" y="327"/>
      <point x="267" y="310" type="qcurve"/>
      <point x="366" y="284"/>
      <point x="437" y="208"/>
      <point x="437" y="146" type="qcurve"/>
      <point x="437" y="78"/>
      <point x="326" y="-10"/>
      <point x="247" y="-10" type="qcurve"/>
      <point x="181" y="-10"/>
      <point x="75" y="36"/>
    </contour>
    <contour>
      <point x="218" y="-97" type="line"/>
      <point x="160" y="-90" type="line"/>
      <point x="232" y="24" type="line"/>
      <point x="291" y="24" type="line"/>
    </contour>
    <contour>
      <point x="348" y="-139" type="qcurve"/>
      <point x="348" y="-162"/>
      <point x="308" y="-210"/>
      <point x="274" y="-225" type="qcurve"/>
      <point x="250" y="-235"/>
      <point x="191" y="-245"/>
      <point x="158" y="-244" type="qcurve"/>
      <point x="151" y="-191" type="line"/>
      <point x="187" y="-191"/>
      <point x="263" y="-157"/>
      <point x="263" y="-138" type="qcurve"/>
      <point x="263" y="-124"/>
      <point x="212" y="-101"/>
      <point x="173" y="-100" type="qcurve"/>
      <point x="160" y="-92" type="line"/>
      <point x="160" y="-90" type="line"/>
      <point x="219" y="-41" type="line"/>
      <point x="283" y="-49"/>
      <point x="348" y="-99"/>
    </contour>
  </outline>
</glyph>
<glyph name="uni0163" format="2">
  <advance width="384"/>
  <unicode hex="0163"/>
  <outline>
    <contour>
      <point x="240" y="659" type="line"/>
      <point x="240" y="0" type="line"/>
      <point x="137" y="0" type="line"/>
      <point x="137" y="659" type="line"/>
    </contour>
    <contour>
      <point x="362" y="525" type="line"/>
      <point x="362" y="425" type="line"/>
      <point x="28" y="425" type="line"/>
      <point x="28" y="525" type="line"/>
    </contour>
    <contour>
      <point x="162" y="-97" type="line"/>
      <point x="104" y="-90" type="line"/>
      <point x="176" y="24" type="line"/>
      <point x="235" y="24" type="line"/>
    </contour>
    <contour>
      <point x="292" y="-139" type="qcurve"/>
      <point x="292" y="-162"/>
      <point x="252" y="-210"/>
      <point x="218" y="-225" type="qcurve"/>
      <point x="194" y="-235"/>
      <point x="135" y="-245"/>
      <point x="102" y="-244" type="qcurve"/>
      <point x="95" y="-191" type="line"/>
      <point x="131" y="-191"/>
      <point x="207" y="-157"/>
      <point x="207" y="-138" type="qcurve"/>
      <point x="207" y="-124"/>
      <point x="156" y="-101"/>
      <point x="117" y="-100" type="qcurve"/>
      <point x="104" y="-92" type="line"/>
      <point x="104" y="-90" type="line"/>
      <point x="163" y="-41" type="line"/>
      <point x="227" y="-49"/>
      <point x="292" y="-99"/>
    </contour>
  </outline>
</glyph>
<glyph name="Tbar" format="2">
  <advance width="576"/>
  <unicode hex="0166"/>
  <outline>
    <contour>
      <point x="339" y="0" type="line"/>
      <point x="231" y="0" type="line"/>
      <point x="231" y="651" type="line"/>
      <point x="339" y="651" type="line"/>
    </contour>
    <contour>
      <point x="541" y="596" type="line"/>
      <point x="35" y="596" type="line"/>
      <point x="35" y="700" type="line"/>
      <point x="541" y="700" type="line"/>
    </contour>
    <contour>
      <point x="429" y="307" type="line"/>
      <point x="161" y="307" type="line"/>
      <point x="161" y="397" type="line"/>
      <point x="429" y="397" type="line"/>
    </contour>
  </outline>
</glyph>
<glyph name="tbar" format="2">
  <advance width="384"/>
  <unicode hex="0167"/>
  <outline>
    <contour>
      <point x="240" y="659" type="line"/>
      <point x="240" y="0" type="line"/>
      <point x="137" y="0" type="line"/>
      <point x="137" y="659" type="line"/>
    </contour>
    <contour>
      <point x="362" y="525" type="line"/>
      <point x="362" y="425" type="line"/>
      <point x="28" y="425" type="line"/>
      <point x="28" y="525" type="line"/>
    </contour>
    <contour>
      <point x="323" y="213" type="line"/>
      <point x="55" y="213" type="line"/>
      <point x="55" y="303" type="line"/>
      <point x="323" y="303" type="line"/>
    </contour>
  </outline>
</glyph>
<glyph name="utilde" format="2">
  <advance width="605"/>
  <unicode hex="0169"/>
  <outline>
    <contour>
      <point x="298" y="80" type="qcurve"/>
      <point x="355" y="80"/>
      <point x="430" y="152"/>
      <point x="430" y="209" type="qcurve"/>
      <point x="430" y="525" type="line"/>
      <point x="533" y="525" type="line"/>
      <point x="533" y="0" type="line"/>
      <point x="430" y="0" type="line"/>
      <point x="430" y="110" type="line"/>
      <point x="448" y="122" type="line"/>
      <point x="430" y="66"/>
      <point x="323" y="-10"/>
      <point x="256" y="-10" type="qcurve"/>
      <point x="172" y="-10"/>
      <point x="72" y="104"/>
      <point x="72" y="201" type="qcurve"/>
      <point x="72" y="525" type="line"/>
      <point x="175" y="525" type="line"/>
      <point x="175" y="229" type="line"/>
      <point x="175" y="160"/>
      <point x="240" y="80"/>
    </contour>
    <contour>
      <point x="209" y="614" type="qcurve"/>
      <point x="136" y="624" type="line"/>
      <point x="138" y="676"/>
      <point x="200" y="745"/>
      <point x="246" y="745" type="qcurve"/>
      <point x="265" y="745"/>
      <point x="298" y="729"/>
      <point x="320" y="706" type="qcurve"/>
      <point x="335" y="691"/>
      <point x="349" y="683"/>
      <point x="356" y="683" type="qcurve"/>
      <point x="369" y="683"/>
      <point x="385" y="712"/>
      <point x="384" y="733" type="qcurve"/>
      <point x="457" y="717" type="line"/>
      <point x="454" y="673"/>
      <point x="398" y="611"/>
      <point x="356" y="611" type="qcurve"/>
      <point x="333" y="611"/>
      <point x="295" y="629"/>
      <point x="271" y="653" type="qcurve"/>
      <point x="259" y="665"/>
      <point x="249" y="672"/>
      <point x="244" y="672" type="qcurve"/>
      <point x="227" y="672"/>
      <point x="209" y="643"/>
    </contour>
  </outline>
</glyph>
<glyph name="Ubreve" format="2">
  <advance width="740"/>
  <unicode hex="016C"/>
  <outline>
    <contour>
      <point x="549" y="701" type="line"/>
      <point x="652" y="701" type="line"/>
      <point x="652" y="269" type="line"/>
      <point x="652" y="150"/>
      <point x="492" y="-6"/>
      <point x="370" y="-6" type="qcurve"/>
      <point x="248" y="-6"/>
      <point x="88" y="150"/>
      <point x="88" y="269" type="qcurve"/>
      <point x="88" y="701" type="line"/>
      <point x="196" y="701" type="line"/>
      <point x="196" y="278" type="line"/>
      <point x="196" y="202"/>
      <point x="299" y="98"/>
      <point x="370" y="98" type="qcurve"/>
      <point x="445" y="98"/>
      <point x="549" y="202"/>
      <point x="549" y="278" type="qcurve"/>
    </contour>
    <contour>
      <point x="367" y="751" type="qcurve"/>
      <point x="306" y="751"/>
      <point x="219" y="834"/>
      <point x="205" y="905" type="qcurve"/>
      <point x="279" y="917" type="line"/>
      <point x="292" y="878"/>
      <point x="340" y="832"/>
      <point x="367" y="832" type="qcurve"/>
      <point x="394" y="832"/>
      <point x="442" y="878"/>
      <point x="455" y="917" type="qcurve"/>
      <point x="529" y="905" type="line"/>
      <point x="515" y="834"/>
      <point x="428" y="751"/>
    </contour>
  </outline>
</glyph>
<glyph name="Ycircumflex" format="2">
  <advance width="660"/>
  <unicode hex="0176"/>
  <outline>
    <contour>
      <point x="526" y="700" type="line"/>
      <point x="650" y="700" type="line"/>
      <point x="379" y="289" type="line"/>
      <point x="394" y="357" type="line"/>
      <point x="394" y="0" type="line"/>
      <point x="286" y="0" type="line"/>
      <point x="286" y="349" type="line"/>
      <point x="293" y="300" type="line"/>
      <point x="10" y="700" type="line"/>
      <point x="140" y="700" type="line"/>
      <point x="356" y="390" type="line"/>
      <point x="331" y="393" type="line"/>
    </contour>
    <contour>
      <point x="449" y="748" type="line"/>
      <point x="316" y="823" type="line"/>
      <point x="345" y="823" type="line"/>
      <point x="212" y="748" type="line"/>
      <point x="175" y="783" type="line"/>
      <point x="294" y="894" type="line"/>
      <point x="367" y="894" type="line"/>
      <point x="486" y="783" type="line"/>
    </contour>
  </outline>
</glyph>
<glyph name="Ydieresis" format="2">
  <advance width="660"/>
  <unicode hex="0178"/>
  <outline>
    <contour>
      <point x="526" y="700" type="line"/>
      <point x="650" y="700" type="line"/>
      <point x="379" y="289" type="line"/>
      <point x="394" y="357" type="line"/>
      <point x="394" y="0" type="line"/>
      <point x="286" y="0" type="line"/>
      <point x="286" y="349" type="line"/>
      <point x="293" y="300" type="line"/>
      <point x="10" y="700" type="line"/>
      <point x="140" y="700" type="line"/>
      <point x="356" y="390" type="line"/>
      <point x="331" y="393" type="line"/>
    </contour>
    <contour>
      <point x="299" y="814" type="qcurve"/>
      <point x="299" y="785"/>
      <point x="262" y="749"/>
      <point x="230" y="749" type="qcurve"/>
      <point x="197" y="749"/>
      <point x="161" y="783"/>
      <point x="161" y="814" type="qcurve"/>
      <point x="161" y="843"/>
      <point x="198" y="879"/>
      <point x="230" y="879" type="qcurve"/>
      <point x="263" y="879"/>
      <point x="299" y="845"/>
    </contour>
    <contour>
      <point x="505" y="814" type="qcurve"/>
      <point x="505" y="785"/>
      <point x="468" y="749"/>
      <point x="436" y="749" type="qcurve"/>
      <point x="403" y="749"/>
      <point x="367" y="783"/>
      <point x="367" y="814" type="qcurve"/>
      <point x="367" y="843"/>
      <point x="404" y="879"/>
      <point x="436" y="879" type="qcurve"/>
      <point x="469" y="879"/>
      <point x="505" y="845"/>
    </contour>
  </outline>
</glyph>
<glyph name="Zacute" format="2">
  <advance width="659"/>
  <unicode hex="0179"/>
  <outline>
    <contour>
      <point x="86" y="700" type="line"/>
      <point x="593" y="700" type="line"/>
      <point x="593" y="622" type="line"/>
      <point x="196" y="87" type="line"/>
      <point x="180" y="104" type="line"/>
      <point x="604" y="104" type="line"/>
      <point x="604" y="0" type="line"/>
      <point x="60" y="0" type="line"/>
      <point x="60" y="79" type="line"/>
      <point x="459" y="613" type="line"/>
      <point x="474" y="596" type="line"/>
      <point x="86" y="596" type="line"/>
    </contour>
    <contour>
      <point x="478" y="844" type="line"/>
      <point x="304" y="750" type="line"/>
      <point x="270" y="801" type="line"/>
      <point x="413" y="926" type="line"/>
    </contour>
  </outline>
</glyph>
<glyph name="zacute" format="2">
  <advance width="484"/>
  <unicode hex="017A"/>
  <outline>
    <contour>
      <point x="162" y="89" type="line"/>
      <point x="439" y="89" type="line"/>
      <point x="439" y="0" type="line"/>
      <point x="50" y="0" type="line"/>
      <point x="50" y="86" type="line"/>
      <point x="321" y="448" type="line"/>
      <point x="321" y="436" type="line"/>
      <point x="50" y="436" type="line"/>
      <point x="50" y="525" type="line"/>
      <point x="433" y="525" type="line"/>
      <point x="433" y="441" type="line"/>
      <point x="166" y="84" type="line"/>
    </contour>
    <contour>
      <point x="405" y="705" type="line"/>
      <point x="231" y="611" type="line"/>
      <point x="197" y="662" type="line"/>
      <point x="340" y="787" type="line"/>
    </contour>
  </outline>
</glyph>
<glyph name="Zdotaccent" format="2">
  <advance width="659"/>
  <unicode hex="017B"/>
  <outline>
    <contour>
      <point x="86" y="700" type="line"/>
      <point x="593" y="700" type="line"/>
      <point x="593" y="622" type="line"/>
      <point x="196" y="87" type="line"/>
      <point x="180" y="104" type="line"/>
      <point x="604" y="104" type="line"/>
      <point x="604" y="0" type="line"/>
      <point x="60" y="0" type="line"/>
      <point x="60" y="79" type="line"/>
      <point x="459" y="613" type="line"/>
      <point x="474" y="596" type="line"/>
      <point x="86" y="596" type="line"/>
    </contour>
    <contour>
      <point x="400" y="824" type="qcurve"/>
      <point x="400" y="795"/>
      <point x="363" y="759"/>
      <point x="331" y="759" type="qcurve"/>
      <point x="298" y="759"/>
      <point x="262" y="793"/>
      <point x="262" y="824" type="qcurve"/>
      <point x="262" y="853"/>
      <point x="299" y="889"/>
      <point x="331" y="889" type="qcurve"/>
      <point x="364" y="889"/>
      <point x="400" y="855"/>
    </contour>
  </outline>
</glyph>
<glyph name="Zcaron" format="2">
  <advance width="659"/>
  <unicode hex="017D"/>
  <outline>
    <contour>
      <point x="86" y="700" type="line"/>
      <point x="593" y="700" type="line"/>
      <point x="593" y="622" type="line"/>
      <point x="196" y="87" type="line"/>
      <point x="180" y="104" type="line"/>
      <point x="604" y="104" type="line"/>
      <point x="604" y="0" type="line"/>
      <point x="60" y="0" type="line"/>
      <point x="60" y="79" type="line"/>
      <point x="459" y="613" type="line"/>
      <point x="474" y="596" type="line"/>
      <point x="86" y="596" type="line"/>
    </contour>
    <contour>
      <point x="446" y="902" type="line"/>
      <point x="311" y="829" type="line"/>
      <point x="341" y="829" type="line"/>
      <point x="206" y="902" type="line"/>
      <point x="168" y="869" type="line"/>
      <point x="283" y="756" type="line"/>
      <point x="369" y="756" type="line"/>
      <point x="484" y="869" type="line"/>
    </contour>
  </outline>
</glyph>
<glyph name="uni019D" format="2">
  <advance width="777"/>
  <unicode hex="019D"/>
  <outline>
    <contour>
      <point x="190" y="291" type="qcurve"/>
      <point x="190" y="-24" type="line"/>
      <point x="190" y="-102"/>
      <point x="88" y="-197"/>
      <point x="5" y="-197" type="qcurve"/>
      <point x="-34" y="-118" type="line"/>
      <point x="24" y="-118"/>
      <point x="82" y="-58"/>
      <point x="82" y="1" type="qcurve"/>
      <point x="82" y="700" type="line"/>
      <point x="179" y="700" type="line"/>
      <point x="607" y="127" type="line"/>
      <point x="591" y="118" type="line"/>
      <point x="581" y="180"/>
      <point x="571" y="360"/>
      <point x="571" y="470" type="qcurve"/>
      <point x="571" y="700" type="line"/>
      <point x="679" y="700" type="line"/>
      <point x="679" y="0" type="line"/>
      <point x="580" y="0" type="line"/>
      <point x="159" y="552" type="line"/>
      <point x="170" y="566" type="line"/>
      <point x="172" y="543"/>
      <point x="181" y="451"/>
      <point x="183" y="428" type="qcurve"/>
      <point x="187" y="387"/>
      <point x="190" y="320"/>
    </contour>
  </outline>
</glyph>
<glyph name="uhorn" format="2">
  <advance width="605"/>
  <unicode hex="01B0"/>
  <outline>
    <contour>
      <point x="298" y="80" type="qcurve"/>
      <point x="355" y="80"/>
      <point x="430" y="152"/>
      <point x="430" y="209" type="qcurve"/>
      <point x="430" y="525" type="line"/>
      <point x="533" y="525" type="line"/>
      <point x="533" y="0" type="line"/>
      <point x="430" y="0" type="line"/>
      <point x="430" y="110" type="line"/>
      <point x="448" y="122" type="line"/>
      <point x="430" y="66"/>
      <point x="323" y="-10"/>
      <point x="256" y="-10" type="qcurve"/>
      <point x="172" y="-10"/>
      <point x="72" y="104"/>
      <point x="72" y="201" type="qcurve"/>
      <point x="72" y="525" type="line"/>
      <point x="175" y="525" type="line"/>
      <point x="175" y="229" type="line"/>
      <point x="175" y="160"/>
      <point x="240" y="80"/>
    </contour>
    <contour>
      <point x="460" y="442" type="qcurve"/>
      <point x="460" y="524" type="line"/>
      <point x="504" y="524"/>
      <point x="548" y="581"/>
      <point x="548" y="638" type="qcurve"/>
      <point x="630" y="638" type="line"/>
      <point x="630" y="547"/>
      <point x="540" y="442"/>
    </contour>
  </outline>
</glyph>
<glyph name="uni01C5" format="2">
  <advance width="1231"/>
  <unicode hex="01C5"/>
  <outline>
    <contour>
      <point x="98" y="700" type="line"/>
      <point x="372" y="700" type="line"/>
      <point x="522" y="700"/>
      <point x="700" y="506"/>
      <point x="700" y="350" type="qcurve"/>
      <point x="700" y="193"/>
      <point x="523" y="0"/>
      <point x="372" y="0" type="qcurve"/>
      <point x="98" y="0" type="line"/>
    </contour>
    <contour>
      <point x="203" y="104" type="line"/>
      <point x="367" y="104" type="line"/>
      <point x="473" y="104"/>
      <point x="590" y="235"/>
      <point x="590" y="350" type="qcurve"/>
      <point x="590" y="464"/>
      <point x="472" y="596"/>
      <point x="367" y="596" type="qcurve"/>
      <point x="200" y="596" type="line"/>
      <point x="206" y="605" type="line"/>
      <point x="206" y="93" type="line"/>
    </contour>
    <contour>
      <point x="909" y="89" type="line"/>
      <point x="1186" y="89" type="line"/>
      <point x="1186" y="0" type="line"/>
      <point x="797" y="0" type="line"/>
      <point x="797" y="86" type="line"/>
      <point x="1068" y="448" type="line"/>
      <point x="1068" y="436" type="line"/>
      <point x="797" y="436" type="line"/>
      <point x="797" y="525" type="line"/>
      <point x="1180" y="525" type="line"/>
      <point x="1180" y="441" type="line"/>
      <point x="913" y="84" type="line"/>
    </contour>
    <contour>
      <point x="1011" y="690" type="line"/>
      <point x="981" y="690" type="line"/>
      <point x="1106" y="763" type="line"/>
      <point x="1144" y="730" type="line"/>
      <point x="1039" y="617" type="line"/>
      <point x="953" y="617" type="line"/>
      <point x="848" y="730" type="line"/>
      <point x="886" y="763" type="line"/>
    </contour>
  </outline>
</glyph>
<glyph name="uni01C6" format="2">
  <advance width="1118"/>
  <unicode hex="01C6"/>
  <outline>
    <contour>
      <point x="461" y="740" type="line"/>
      <point x="564" y="740" type="line"/>
      <point x="564" y="0" type="line"/>
      <point x="461" y="0" type="line"/>
      <point x="461" y="125" type="line"/>
      <point x="481" y="125" type="line"/>
      <point x="481" y="78"/>
      <point x="364" y="-10"/>
      <point x="291" y="-10" type="qcurve"/>
      <point x="183" y="-10"/>
      <point x="40" y="145"/>
      <point x="40" y="263" type="qcurve"/>
      <point x="40" y="381"/>
      <point x="182" y="536"/>
      <point x="288" y="536" type="qcurve"/>
      <point x="367" y="536"/>
      <point x="491" y="443"/>
      <point x="491" y="391" type="qcurve"/>
      <point x="461" y="389" type="line"/>
    </contour>
    <contour>
      <point x="145" y="263" type="qcurve"/>
      <point x="145" y="183"/>
      <point x="235" y="79"/>
      <point x="305" y="79" type="qcurve"/>
      <point x="375" y="79"/>
      <point x="465" y="183"/>
      <point x="465" y="263" type="qcurve"/>
      <point x="465" y="343"/>
      <point x="375" y="447"/>
      <point x="305" y="447" type="qcurve"/>
      <point x="235" y="447"/>
      <point x="145" y="343"/>
    </contour>
    <contour>
      <point x="796" y="89" type="line"/>
      <point x="1073" y="89" type="line"/>
      <point x="1073" y="0" type="line"/>
      <point x="684" y="0" type="line"/>
      <point x="684" y="86" type="line"/>
      <point x="955" y="448" type="line"/>
      <point x="955" y="436" type="line"/>
      <point x="684" y="436" type="line"/>
      <point x="684" y="525" type="line"/>
      <point x="1067" y="525" type="line"/>
      <point x="1067" y="441" type="line"/>
      <point x="800" y="84" type="line"/>
    </contour>
    <contour>
      <point x="898" y="690" type="line"/>
      <point x="868" y="690" type="line"/>
      <point x="993" y="763" type="line"/>
      <point x="1031" y="730" type="line"/>
      <point x="926" y="617" type="line"/>
      <point x="840" y="617" type="line"/>
      <point x="735" y="730" type="line"/>
      <point x="773" y="763" type="line"/>
    </contour>
  </outline>
</glyph>
<glyph name="uni01C8" format="2">
  <advance width="862"/>
  <unicode hex="01C8"/>
  <outline>
    <contour>
      <point x="178" y="104" type="line"/>
      <point x="534" y="104" type="line"/>
      <point x="534" y="0" type="line"/>
      <point x="98" y="0" type="line"/>
      <point x="98" y="700" type="line"/>
      <point x="206" y="700" type="line"/>
      <point x="206" y="78" type="line"/>
    </contour>
    <contour>
      <point x="787" y="525" type="line"/>
      <point x="787" y="-24" type="line"/>
      <point x="787" y="-101"/>
      <point x="687" y="-197"/>
      <point x="607" y="-197" type="qcurve"/>
      <point x="568" y="-118" type="line"/>
      <point x="626" y="-118"/>
      <point x="684" y="-58"/>
      <point x="684" y="1" type="qcurve"/>
      <point x="684" y="525" type="line"/>
    </contour>
    <contour>
      <point x="807" y="710" type="qcurve"/>
      <point x="807" y="681"/>
      <point x="770" y="645"/>
      <point x="738" y="645" type="qcurve"/>
      <point x="705" y="645"/>
      <point x="669" y="679"/>
      <point x="669" y="710" type="qcurve"/>
      <point x="669" y="739"/>
      <point x="706" y="775"/>
      <point x="738" y="775" type="qcurve"/>
      <point x="771" y="775"/>
      <point x="807" y="741"/>
    </contour>
  </outline>
</glyph>
<glyph name="uni01C9" format="2">
  <advance width="500"/>
  <unicode hex="01C9"/>
  <outline>
    <contour>
      <point x="177" y="0" type="line"/>
      <point x="74" y="0" type="line"/>
      <point x="74" y="740" type="line"/>
      <point x="177" y="740" type="line"/>
    </contour>
    <contour>
      <point x="425" y="525" type="line"/>
      <point x="425" y="-24" type="line"/>
      <point x="425" y="-101"/>
      <point x="325" y="-197"/>
      <point x="245" y="-197" type="qcurve"/>
      <point x="206" y="-118" type="line"/>
      <point x="264" y="-118"/>
      <point x="322" y="-58"/>
      <point x="322" y="1" type="qcurve"/>
      <point x="322" y="525" type="line"/>
    </contour>
    <contour>
      <point x="445" y="710" type="qcurve"/>
      <point x="445" y="681"/>
      <point x="408" y="645"/>
      <point x="376" y="645" type="qcurve"/>
      <point x="343" y="645"/>
      <point x="307" y="679"/>
      <point x="307" y="710" type="qcurve"/>
      <point x="307" y="739"/>
      <point x="344" y="775"/>
      <point x="376" y="775" type="qcurve"/>
      <point x="409" y="775"/>
      <point x="445" y="741"/>
    </contour>
  </outline>
</glyph>
<glyph name="uni01CB" format="2">
  <advance width="1056"/>
  <unicode hex="01CB"/>
  <outline>
    <contour>
      <point x="587" y="470" type="qcurve"/>
      <point x="587" y="700" type="line"/>
      <point x="695" y="700" type="line"/>
      <point x="695" y="0" type="line"/>
      <point x="596" y="0" type="line"/>
      <point x="175" y="552" type="line"/>
      <point x="186" y="566" type="line"/>
      <point x="192" y="502"/>
      <point x="206" y="336"/>
      <point x="206" y="291" type="qcurve"/>
      <point x="206" y="0" type="line"/>
      <point x="98" y="0" type="line"/>
      <point x="98" y="700" type="line"/>
      <point x="195" y="700" type="line"/>
      <point x="623" y="127" type="line"/>
      <point x="607" y="118" type="line"/>
      <point x="597" y="180"/>
      <point x="587" y="360"/>
    </contour>
    <contour>
      <point x="981" y="525" type="line"/>
      <point x="981" y="-24" type="line"/>
      <point x="981" y="-101"/>
      <point x="881" y="-197"/>
      <point x="801" y="-197" type="qcurve"/>
      <point x="762" y="-118" type="line"/>
      <point x="820" y="-118"/>
      <point x="878" y="-58"/>
      <point x="878" y="1" type="qcurve"/>
      <point x="878" y="525" type="line"/>
    </contour>
    <contour>
      <point x="1001" y="710" type="qcurve"/>
      <point x="1001" y="681"/>
      <point x="964" y="645"/>
      <point x="932" y="645" type="qcurve"/>
      <point x="899" y="645"/>
      <point x="863" y="679"/>
      <point x="863" y="710" type="qcurve"/>
      <point x="863" y="739"/>
      <point x="900" y="775"/>
      <point x="932" y="775" type="qcurve"/>
      <point x="965" y="775"/>
      <point x="1001" y="741"/>
    </contour>
  </outline>
</glyph>
<glyph name="uni01CC" format="2">
  <advance width="858"/>
  <unicode hex="01CC"/>
  <outline>
    <contour>
      <point x="347" y="536" type="qcurve"/>
      <point x="437" y="536"/>
      <point x="527" y="429"/>
      <point x="527" y="320" type="qcurve"/>
      <point x="527" y="0" type="line"/>
      <point x="424" y="0" type="line"/>
      <point x="424" y="313" type="line"/>
      <point x="424" y="381"/>
      <point x="369" y="445"/>
      <point x="313" y="442" type="qcurve"/>
      <point x="254" y="442"/>
      <point x="175" y="370"/>
      <point x="175" y="318" type="qcurve"/>
      <point x="175" y="0" type="line"/>
      <point x="149" y="0"/>
      <point x="98" y="0"/>
      <point x="72" y="0" type="qcurve"/>
      <point x="72" y="525" type="line"/>
      <point x="175" y="525" type="line"/>
      <point x="175" y="417" type="line"/>
      <point x="157" y="405" type="line"/>
      <point x="172" y="457"/>
      <point x="284" y="536"/>
    </contour>
    <contour>
      <point x="783" y="525" type="line"/>
      <point x="783" y="-24" type="line"/>
      <point x="783" y="-101"/>
      <point x="683" y="-197"/>
      <point x="603" y="-197" type="qcurve"/>
      <point x="564" y="-118" type="line"/>
      <point x="622" y="-118"/>
      <point x="680" y="-58"/>
      <point x="680" y="1" type="qcurve"/>
      <point x="680" y="525" type="line"/>
    </contour>
    <contour>
      <point x="803" y="710" type="qcurve"/>
      <point x="803" y="681"/>
      <point x="766" y="645"/>
      <point x="734" y="645" type="qcurve"/>
      <point x="701" y="645"/>
      <point x="665" y="679"/>
      <point x="665" y="710" type="qcurve"/>
      <point x="665" y="739"/>
      <point x="702" y="775"/>
      <point x="734" y="775" type="qcurve"/>
      <point x="767" y="775"/>
      <point x="803" y="741"/>
    </contour>
  </outline>
</glyph>
<glyph name="uni01CD" format="2">
  <advance width="700"/>
  <unicode hex="01CD"/>
  <outline>
    <contour>
      <point x="337" y="612" type="qcurve"/>
      <point x="360" y="613" type="line"/>
      <point x="348" y="580"/>
      <point x="306" y="449"/>
      <point x="294" y="418" type="qcurve"/>
      <point x="135" y="0" type="line"/>
      <point x="25" y="0" type="line"/>
      <point x="296" y="700" type="line"/>
      <point x="406" y="700" type="line"/>
      <point x="675" y="0" type="line"/>
      <point x="560" y="0" type="line"/>
      <point x="400" y="422" type="line"/>
      <point x="390" y="451"/>
      <point x="349" y="579"/>
    </contour>
    <contour>
      <point x="354" y="174" type="line"/>
      <point x="145" y="174" type="line"/>
      <point x="185" y="278" type="line"/>
      <point x="354" y="278" type="line"/>
    </contour>
    <contour>
      <point x="549" y="174" type="line"/>
      <point x="354" y="174" type="line"/>
      <point x="354" y="278" type="line"/>
      <point x="503" y="278" type="line"/>
    </contour>
    <contour>
      <point x="468" y="902" type="line"/>
      <point x="333" y="829" type="line"/>
      <point x="363" y="829" type="line"/>
      <point x="228" y="902" type="line"/>
      <point x="190" y="869" type="line"/>
      <point x="305" y="756" type="line"/>
      <point x="391" y="756" type="line"/>
      <point x="506" y="869" type="line"/>
    </contour>
  </outline>
</glyph>
<glyph name="uni01CF" format="2">
  <advance width="478"/>
  <unicode hex="01CF"/>
  <outline>
    <contour>
      <point x="293" y="700" type="qcurve"/>
      <point x="293" y="0" type="line"/>
      <point x="185" y="0" type="line"/>
      <point x="185" y="700" type="line"/>
      <point x="212" y="700"/>
      <point x="266" y="700"/>
    </contour>
    <contour>
      <point x="406" y="700" type="line"/>
      <point x="406" y="600" type="line"/>
      <point x="72" y="600" type="line"/>
      <point x="72" y="700" type="line"/>
    </contour>
    <contour>
      <point x="406" y="100" type="line"/>
      <point x="406" y="0" type="line"/>
      <point x="72" y="0" type="line"/>
      <point x="72" y="100" type="line"/>
    </contour>
    <contour>
      <point x="354" y="902" type="line"/>
      <point x="219" y="829" type="line"/>
      <point x="249" y="829" type="line"/>
      <point x="114" y="902" type="line"/>
      <point x="76" y="869" type="line"/>
      <point x="191" y="756" type="line"/>
      <point x="277" y="756" type="line"/>
      <point x="392" y="869" type="line"/>
    </contour>
  </outline>
</glyph>
<glyph name="uni01D0" format="2">
  <advance width="243"/>
  <unicode hex="01D0"/>
  <outline>
    <contour>
      <point x="175" y="525" type="line"/>
      <point x="175" y="0" type="line"/>
      <point x="72" y="0" type="line"/>
      <point x="72" y="525" type="line"/>
    </contour>
    <contour>
      <point x="140" y="705" type="line"/>
      <point x="110" y="705" type="line"/>
      <point x="235" y="778" type="line"/>
      <point x="273" y="745" type="line"/>
      <point x="168" y="632" type="line"/>
      <point x="82" y="632" type="line"/>
      <point x="-23" y="745" type="line"/>
      <point x="15" y="778" type="line"/>
    </contour>
  </outline>
</glyph>
<glyph name="uni01D2" format="2">
  <advance width="615"/>
  <unicode hex="01D2"/>
  <outline>
    <contour>
      <point x="308" y="536" type="qcurve"/>
      <point x="422" y="536"/>
      <point x="575" y="381"/>
      <point x="575" y="263" type="qcurve"/>
      <point x="575" y="145"/>
      <point x="422" y="-10"/>
      <point x="308" y="-10" type="qcurve"/>
      <point x="193" y="-10"/>
      <point x="40" y="145"/>
      <point x="40" y="263" type="qcurve"/>
      <point x="40" y="381"/>
      <point x="193" y="536"/>
    </contour>
    <contour>
      <point x="308" y="84" type="qcurve"/>
      <point x="379" y="84"/>
      <point x="471" y="186"/>
      <point x="470" y="263" type="qcurve"/>
      <point x="471" y="341"/>
      <point x="379" y="442"/>
      <point x="308" y="442" type="qcurve"/>
      <point x="237" y="442"/>
      <point x="144" y="340"/>
      <point x="145" y="263" type="qcurve"/>
      <point x="144" y="186"/>
      <point x="237" y="84"/>
    </contour>
    <contour>
      <point x="321" y="693" type="line"/>
      <point x="291" y="693" type="line"/>
      <point x="416" y="766" type="line"/>
      <point x="454" y="733" type="line"/>
      <point x="349" y="620" type="line"/>
      <point x="263" y="620" type="line"/>
      <point x="158" y="733" type="line"/>
      <point x="196" y="766" type="line"/>
    </contour>
  </outline>
</glyph>
<glyph name="uni01D3" format="2">
  <advance width="740"/>
  <unicode hex="01D3"/>
  <outline>
    <contour>
      <point x="549" y="701" type="line"/>
      <point x="652" y="701" type="line"/>
      <point x="652" y="269" type="line"/>
      <point x="652" y="150"/>
      <point x="492" y="-6"/>
      <point x="370" y="-6" type="qcurve"/>
      <point x="248" y="-6"/>
      <point x="88" y="150"/>
      <point x="88" y="269" type="qcurve"/>
      <point x="88" y="701" type="line"/>
      <point x="196" y="701" type="line"/>
      <point x="196" y="278" type="line"/>
      <point x="196" y="202"/>
      <point x="299" y="98"/>
      <point x="370" y="98" type="qcurve"/>
      <point x="445" y="98"/>
      <point x="549" y="202"/>
      <point x="549" y="278" type="qcurve"/>
    </contour>
    <contour>
      <point x="486" y="902" type="line"/>
      <point x="351" y="829" type="line"/>
      <point x="381" y="829" type="line"/>
      <point x="246" y="902" type="line"/>
      <point x="208" y="869" type="line"/>
      <point x="323" y="756" type="line"/>
      <point x="409" y="756" type="line"/>
      <point x="524" y="869" type="line"/>
    </contour>
  </outline>
</glyph>
<glyph name="uni01D4" format="2">
  <advance width="605"/>
  <unicode hex="01D4"/>
  <outline>
    <contour>
      <point x="298" y="80" type="qcurve"/>
      <point x="355" y="80"/>
      <point x="430" y="152"/>
      <point x="430" y="209" type="qcurve"/>
      <point x="430" y="525" type="line"/>
      <point x="533" y="525" type="line"/>
      <point x="533" y="0" type="line"/>
      <point x="430" y="0" type="line"/>
      <point x="430" y="110" type="line"/>
      <point x="448" y="122" type="line"/>
      <point x="430" y="66"/>
      <point x="323" y="-10"/>
      <point x="256" y="-10" type="qcurve"/>
      <point x="172" y="-10"/>
      <point x="72" y="104"/>
      <point x="72" y="201" type="qcurve"/>
      <point x="72" y="525" type="line"/>
      <point x="175" y="525" type="line"/>
      <point x="175" y="229" type="line"/>
      <point x="175" y="160"/>
      <point x="240" y="80"/>
    </contour>
    <contour>
      <point x="315" y="690" type="line"/>
      <point x="285" y="690" type="line"/>
      <point x="410" y="763" type="line"/>
      <point x="448" y="730" type="line"/>
      <point x="343" y="617" type="line"/>
      <point x="257" y="617" type="line"/>
      <point x="152" y="730" type="line"/>
      <point x="190" y="763" type="line"/>
    </contour>
  </outline>
</glyph>
<glyph name="Aringacute" format="2">
  <advance width="700"/>
  <unicode hex="01FA"/>
  <outline>
    <contour>
      <point x="337" y="612" type="qcurve"/>
      <point x="360" y="613" type="line"/>
      <point x="348" y="580"/>
      <point x="306" y="449"/>
      <point x="294" y="418" type="qcurve"/>
      <point x="135" y="0" type="line"/>
      <point x="25" y="0" type="line"/>
      <point x="296" y="700" type="line"/>
      <point x="406" y="700" type="line"/>
      <point x="675" y="0" type="line"/>
      <point x="560" y="0" type="line"/>
      <point x="400" y="422" type="line"/>
      <point x="390" y="451"/>
      <point x="349" y="579"/>
    </contour>
    <contour>
      <point x="354" y="174" type="line"/>
      <point x="145" y="174" type="line"/>
      <point x="185" y="278" type="line"/>
      <point x="354" y="278" type="line"/>
    </contour>
    <contour>
      <point x="549" y="174" type="line"/>
      <point x="354" y="174" type="line"/>
      <point x="354" y="278" type="line"/>
      <point x="503" y="278" type="line"/>
    </contour>
    <contour>
      <point x="459" y="746" type="qcurve"/>
      <point x="459" y="704"/>
      <point x="393" y="641"/>
      <point x="349" y="641" type="qcurve"/>
      <point x="306" y="641"/>
      <point x="240" y="704"/>
      <point x="240" y="746" type="qcurve"/>
      <point x="240" y="789"/>
      <point x="305" y="852"/>
      <point x="349" y="852" type="qcurve"/>
      <point x="393" y="852"/>
      <point x="459" y="789"/>
    </contour>
    <contour>
      <point x="300" y="746" type="qcurve"/>
      <point x="300" y="727"/>
      <point x="329" y="700"/>
      <point x="349" y="700" type="qcurve"/>
      <point x="370" y="700"/>
      <point x="399" y="727"/>
      <point x="399" y="746" type="qcurve"/>
      <point x="399" y="767"/>
      <point x="370" y="793"/>
      <point x="349" y="793" type="qcurve"/>
      <point x="328" y="793"/>
      <point x="300" y="766"/>
    </contour>
    <contour>
      <point x="502" y="997" type="line"/>
      <point x="328" y="903" type="line"/>
      <point x="294" y="954" type="line"/>
      <point x="437" y="1079" type="line"/>
    </contour>
  </outline>
</glyph>
<glyph name="uni0200" format="2">
  <advance width="700"/>
  <unicode hex="0200"/>
  <outline>
    <contour>
      <point x="337" y="612" type="qcurve"/>
      <point x="360" y="613" type="line"/>
      <point x="348" y="580"/>
      <point x="306" y="449"/>
      <point x="294" y="418" type="qcurve"/>
      <point x="135" y="0" type="line"/>
      <point x="25" y="0" type="line"/>
      <point x="296" y="700" type="line"/>
      <point x="406" y="700" type="line"/>
      <point x="675" y="0" type="line"/>
      <point x="560" y="0" type="line"/>
      <point x="400" y="422" type="line"/>
      <point x="390" y="451"/>
      <point x="349" y="579"/>
    </contour>
    <contour>
      <point x="354" y="174" type="line"/>
      <point x="145" y="174" type="line"/>
      <point x="185" y="278" type="line"/>
      <point x="354" y="278" type="line"/>
    </contour>
    <contour>
      <point x="549" y="174" type="line"/>
      <point x="354" y="174" type="line"/>
      <point x="354" y="278" type="line"/>
      <point x="503" y="278" type="line"/>
    </contour>
    <contour>
      <point x="318" y="804" type="line"/>
      <point x="284" y="763" type="line"/>
      <point x="124" y="847" type="line"/>
      <point x="179" y="919" type="line"/>
    </contour>
    <contour>
      <point x="508" y="804" type="line"/>
      <point x="474" y="763" type="line"/>
      <point x="314" y="847" type="line"/>
      <point x="369" y="919" type="line"/>
    </contour>
  </outline>
</glyph>
<glyph name="uni0202" format="2">
  <advance width="700"/>
  <unicode hex="0202"/>
  <outline>
    <contour>
      <point x="337" y="612" type="qcurve"/>
      <point x="360" y="613" type="line"/>
      <point x="348" y="580"/>
      <point x="306" y="449"/>
      <point x="294" y="418" type="qcurve"/>
      <point x="135" y="0" type="line"/>
      <point x="25" y="0" type="line"/>
      <point x="296" y="700" type="line"/>
      <point x="406" y="700" type="line"/>
      <point x="675" y="0" type="line"/>
      <point x="560" y="0" type="line"/>
      <point x="400" y="422" type="line"/>
      <point x="390" y="451"/>
      <point x="349" y="579"/>
    </contour>
    <contour>
      <point x="354" y="174" type="line"/>
      <point x="145" y="174" type="line"/>
      <point x="185" y="278" type="line"/>
      <point x="354" y="278" type="line"/>
    </contour>
    <contour>
      <point x="549" y="174" type="line"/>
      <point x="354" y="174" type="line"/>
      <point x="354" y="278" type="line"/>
      <point x="503" y="278" type="line"/>
    </contour>
    <contour>
      <point x="348" y="945" type="qcurve"/>
      <point x="409" y="945"/>
      <point x="496" y="862"/>
      <point x="510" y="791" type="qcurve"/>
      <point x="436" y="779" type="line"/>
      <point x="423" y="818"/>
      <point x="375" y="864"/>
      <point x="348" y="864" type="qcurve"/>
      <point x="321" y="864"/>
      <point x="273" y="818"/>
      <point x="260" y="779" type="qcurve"/>
      <point x="186" y="791" type="line"/>
      <point x="200" y="862"/>
      <point x="287" y="945"/>
    </contour>
  </outline>
</glyph>
<glyph name="uni0203" format="2">
  <advance width="633"/>
  <unicode hex="0203"/>
  <outline>
    <contour>
      <point x="457" y="525" type="line"/>
      <point x="561" y="525" type="line"/>
      <point x="561" y="0" type="line"/>
      <point x="457" y="0" type="line"/>
      <point x="457" y="125" type="line"/>
      <point x="481" y="132" type="line"/>
      <point x="469" y="78"/>
      <point x="350" y="-10"/>
      <point x="274" y="-10" type="qcurve"/>
      <point x="176" y="-10"/>
      <point x="38" y="147"/>
      <point x="38" y="264" type="qcurve"/>
      <point x="38" y="383"/>
      <point x="180" y="536"/>
      <point x="283" y="536" type="qcurve"/>
      <point x="364" y="536"/>
      <point x="471" y="445"/>
      <point x="480" y="381" type="qcurve"/>
      <point x="457" y="389" type="line"/>
    </contour>
    <contour>
      <point x="143" y="264" type="qcurve"/>
      <point x="143" y="186"/>
      <point x="232" y="85"/>
      <point x="301" y="85" type="qcurve"/>
      <point x="371" y="85"/>
      <point x="461" y="186"/>
      <point x="461" y="264" type="qcurve"/>
      <point x="461" y="341"/>
      <point x="371" y="441"/>
      <point x="301" y="441" type="qcurve"/>
      <point x="232" y="441"/>
      <point x="143" y="341"/>
    </contour>
    <contour>
      <point x="301" y="790" type="qcurve"/>
      <point x="362" y="790"/>
      <point x="449" y="707"/>
      <point x="463" y="636" type="qcurve"/>
      <point x="389" y="624" type="line"/>
      <point x="376" y="663"/>
      <point x="328" y="709"/>
      <point x="301" y="709" type="qcurve"/>
      <point x="274" y="709"/>
      <point x="226" y="663"/>
      <point x="213" y="624" type="qcurve"/>
      <point x="139" y="636" type="line"/>
      <point x="153" y="707"/>
      <point x="240" y="790"/>
    </contour>
  </outline>
</glyph>
<glyph name="uni0204" format="2">
  <advance width="614"/>
  <unicode hex="0204"/>
  <outline>
    <contour>
      <point x="206" y="0" type="line"/>
      <point x="98" y="0" type="line"/>
      <point x="98" y="700" type="line"/>
      <point x="206" y="700" type="line"/>
    </contour>
    <contour>
      <point x="539" y="0" type="line"/>
      <point x="147" y="0" type="line"/>
      <point x="147" y="104" type="line"/>
      <point x="539" y="104" type="line"/>
    </contour>
    <contour>
      <point x="484" y="307" type="line"/>
      <point x="147" y="307" type="line"/>
      <point x="147" y="411" type="line"/>
      <point x="484" y="411" type="line"/>
    </contour>
    <contour>
      <point x="539" y="596" type="line"/>
      <point x="147" y="596" type="line"/>
      <point x="147" y="700" type="line"/>
      <point x="539" y="700" type="line"/>
    </contour>
    <contour>
      <point x="283" y="804" type="line"/>
      <point x="249" y="763" type="line"/>
      <point x="89" y="847" type="line"/>
      <point x="144" y="919" type="line"/>
    </contour>
    <contour>
      <point x="473" y="804" type="line"/>
      <point x="439" y="763" type="line"/>
      <point x="279" y="847" type="line"/>
      <point x="334" y="919" type="line"/>
    </contour>
  </outline>
</glyph>
<glyph name="uni0206" format="2">
  <advance width="614"/>
  <unicode hex="0206"/>
  <outline>
    <contour>
      <point x="206" y="0" type="line"/>
      <point x="98" y="0" type="line"/>
      <point x="98" y="700" type="line"/>
      <point x="206" y="700" type="line"/>
    </contour>
    <contour>
      <point x="539" y="0" type="line"/>
      <point x="147" y="0" type="line"/>
      <point x="147" y="104" type="line"/>
      <point x="539" y="104" type="line"/>
    </contour>
    <contour>
      <point x="484" y="307" type="line"/>
      <point x="147" y="307" type="line"/>
      <point x="147" y="411" type="line"/>
      <point x="484" y="411" type="line"/>
    </contour>
    <contour>
      <point x="539" y="596" type="line"/>
      <point x="147" y="596" type="line"/>
      <point x="147" y="700" type="line"/>
      <point x="539" y="700" type="line"/>
    </contour>
    <contour>
      <point x="313" y="945" type="qcurve"/>
      <point x="374" y="945"/>
      <point x="461" y="862"/>
      <point x="475" y="791" type="qcurve"/>
      <point x="401" y="779" type="line"/>
      <point x="388" y="818"/>
      <point x="340" y="864"/>
      <point x="313" y="864" type="qcurve"/>
      <point x="286" y="864"/>
      <point x="238" y="818"/>
      <point x="225" y="779" type="qcurve"/>
      <point x="151" y="791" type="line"/>
      <point x="165" y="862"/>
      <point x="252" y="945"/>
    </contour>
  </outline>
</glyph>
<glyph name="uni0208" format="2">
  <advance width="478"/>
  <unicode hex="0208"/>
  <outline>
    <contour>
      <point x="293" y="700" type="qcurve"/>
      <point x="293" y="0" type="line"/>
      <point x="185" y="0" type="line"/>
      <point x="185" y="700" type="line"/>
      <point x="212" y="700"/>
      <point x="266" y="700"/>
    </contour>
    <contour>
      <point x="406" y="700" type="line"/>
      <point x="406" y="600" type="line"/>
      <point x="72" y="600" type="line"/>
      <point x="72" y="700" type="line"/>
    </contour>
    <contour>
      <point x="406" y="100" type="line"/>
      <point x="406" y="0" type="line"/>
      <point x="72" y="0" type="line"/>
      <point x="72" y="100" type="line"/>
    </contour>
    <contour>
      <point x="204" y="804" type="line"/>
      <point x="170" y="763" type="line"/>
      <point x="10" y="847" type="line"/>
      <point x="65" y="919" type="line"/>
    </contour>
    <contour>
      <point x="394" y="804" type="line"/>
      <point x="360" y="763" type="line"/>
      <point x="200" y="847" type="line"/>
      <point x="255" y="919" type="line"/>
    </contour>
  </outline>
</glyph>
<glyph name="uni020B" format="2">
  <advance width="243"/>
  <unicode hex="020B"/>
  <outline>
    <contour>
      <point x="175" y="525" type="line"/>
      <point x="175" y="0" type="line"/>
      <point x="72" y="0" type="line"/>
      <point x="72" y="525" type="line"/>
    </contour>
    <contour>
      <point x="118" y="785" type="qcurve"/>
      <point x="179" y="785"/>
      <point x="266" y="702"/>
      <point x="280" y="631" type="qcurve"/>
      <point x="206" y="619" type="line"/>
      <point x="193" y="658"/>
      <point x="145" y="704"/>
      <point x="118" y="704" type="qcurve"/>
      <point x="91" y="704"/>
      <point x="43" y="658"/>
      <point x="30" y="619" type="qcurve"/>
      <point x="-44" y="631" type="line"/>
      <point x="-30" y="702"/>
      <point x="57" y="785"/>
    </contour>
  </outline>
</glyph>
<glyph name="uni020C" format="2">
  <advance width="782"/>
  <unicode hex="020C"/>
  <outline>
    <contour>
      <point x="391" y="710" type="qcurve"/>
      <point x="539" y="710"/>
      <point x="734" y="504"/>
      <point x="734" y="350" type="qcurve"/>
      <point x="734" y="196"/>
      <point x="539" y="-10"/>
      <point x="391" y="-10" type="qcurve"/>
      <point x="243" y="-10"/>
      <point x="48" y="195"/>
      <point x="48" y="350" type="qcurve"/>
      <point x="48" y="505"/>
      <point x="243" y="710"/>
    </contour>
    <contour>
      <point x="391" y="95" type="qcurve"/>
      <point x="492" y="95"/>
      <point x="624" y="240"/>
      <point x="624" y="350" type="qcurve"/>
      <point x="624" y="460"/>
      <point x="492" y="605"/>
      <point x="391" y="605" type="qcurve"/>
      <point x="289" y="605"/>
      <point x="158" y="461"/>
      <point x="158" y="350" type="qcurve"/>
      <point x="158" y="239"/>
      <point x="289" y="95"/>
    </contour>
    <contour>
      <point x="352" y="804" type="line"/>
      <point x="318" y="763" type="line"/>
      <point x="158" y="847" type="line"/>
      <point x="213" y="919" type="line"/>
    </contour>
    <contour>
      <point x="542" y="804" type="line"/>
      <point x="508" y="763" type="line"/>
      <point x="348" y="847" type="line"/>
      <point x="403" y="919" type="line"/>
    </contour>
  </outline>
</glyph>
<glyph name="uni020D" format="2">
  <advance width="615"/>
  <unicode hex="020D"/>
  <outline>
    <contour>
      <point x="308" y="536" type="qcurve"/>
      <point x="422" y="536"/>
      <point x="575" y="381"/>
      <point x="575" y="263" type="qcurve"/>
      <point x="575" y="145"/>
      <point x="422" y="-10"/>
      <point x="308" y="-10" type="qcurve"/>
      <point x="193" y="-10"/>
      <point x="40" y="145"/>
      <point x="40" y="263" type="qcurve"/>
      <point x="40" y="381"/>
      <point x="193" y="536"/>
    </contour>
    <contour>
      <point x="308" y="84" type="qcurve"/>
      <point x="379" y="84"/>
      <point x="471" y="186"/>
      <point x="470" y="263" type="qcurve"/>
      <point x="471" y="341"/>
      <point x="379" y="442"/>
      <point x="308" y="442" type="qcurve"/>
      <point x="237" y="442"/>
      <point x="144" y="340"/>
      <point x="145" y="263" type="qcurve"/>
      <point x="144" y="186"/>
      <point x="237" y="84"/>
    </contour>
    <contour>
      <point x="277" y="692" type="line"/>
      <point x="243" y="641" type="line"/>
      <point x="69" y="735" type="line"/>
      <point x="134" y="817" type="line"/>
    </contour>
    <contour>
      <point x="459" y="700" type="line"/>
      <point x="425" y="649" type="line"/>
      <point x="251" y="743" type="line"/>
      <point x="316" y="825" type="line"/>
    </contour>
  </outline>
</glyph>
<glyph name="uni020F" format="2">
  <advance width="615"/>
  <unicode hex="020F"/>
  <outline>
    <contour>
      <point x="308" y="536" type="qcurve"/>
      <point x="422" y="536"/>
      <point x="575" y="381"/>
      <point x="575" y="263" type="qcurve"/>
      <point x="575" y="145"/>
      <point x="422" y="-10"/>
      <point x="308" y="-10" type="qcurve"/>
      <point x="193" y="-10"/>
      <point x="40" y="145"/>
      <point x="40" y="263" type="qcurve"/>
      <point x="40" y="381"/>
      <point x="193" y="536"/>
    </contour>
    <contour>
      <point x="308" y="84" type="qcurve"/>
      <point x="379" y="84"/>
      <point x="471" y="186"/>
      <point x="470" y="263" type="qcurve"/>
      <point x="471" y="341"/>
      <point x="379" y="442"/>
      <point x="308" y="442" type="qcurve"/>
      <point x="237" y="442"/>
      <point x="144" y="340"/>
      <point x="145" y="263" type="qcurve"/>
      <point x="144" y="186"/>
      <point x="237" y="84"/>
    </contour>
    <contour>
      <point x="299" y="773" type="qcurve"/>
      <point x="360" y="773"/>
      <point x="447" y="690"/>
      <point x="461" y="619" type="qcurve"/>
      <point x="387" y="607" type="line"/>
      <point x="374" y="646"/>
      <point x="326" y="692"/>
      <point x="299" y="692" type="qcurve"/>
      <point x="272" y="692"/>
      <point x="224" y="646"/>
      <point x="211" y="607" type="qcurve"/>
      <point x="137" y="619" type="line"/>
      <point x="151" y="690"/>
      <point x="238" y="773"/>
    </contour>
  </outline>
</glyph>
<glyph name="uni0216" format="2">
  <advance width="740"/>
  <unicode hex="0216"/>
  <outline>
    <contour>
      <point x="549" y="701" type="line"/>
      <point x="652" y="701" type="line"/>
      <point x="652" y="269" type="line"/>
      <point x="652" y="150"/>
      <point x="492" y="-6"/>
      <point x="370" y="-6" type="qcurve"/>
      <point x="248" y="-6"/>
      <point x="88" y="150"/>
      <point x="88" y="269" type="qcurve"/>
      <point x="88" y="701" type="line"/>
      <point x="196" y="701" type="line"/>
      <point x="196" y="278" type="line"/>
      <point x="196" y="202"/>
      <point x="299" y="98"/>
      <point x="370" y="98" type="qcurve"/>
      <point x="445" y="98"/>
      <point x="549" y="202"/>
      <point x="549" y="278" type="qcurve"/>
    </contour>
    <contour>
      <point x="366" y="945" type="qcurve"/>
      <point x="427" y="945"/>
      <point x="514" y="862"/>
      <point x="528" y="791" type="qcurve"/>
      <point x="454" y="779" type="line"/>
      <point x="441" y="818"/>
      <point x="393" y="864"/>
      <point x="366" y="864" type="qcurve"/>
      <point x="339" y="864"/>
      <point x="291" y="818"/>
      <point x="278" y="779" type="qcurve"/>
      <point x="204" y="791" type="line"/>
      <point x="218" y="862"/>
      <point x="305" y="945"/>
    </contour>
  </outline>
</glyph>
<glyph name="uni021A" format="2">
  <advance width="576"/>
  <unicode hex="021A"/>
  <outline>
    <contour>
      <point x="339" y="0" type="line"/>
      <point x="231" y="0" type="line"/>
      <point x="231" y="651" type="line"/>
      <point x="339" y="651" type="line"/>
    </contour>
    <contour>
      <point x="541" y="596" type="line"/>
      <point x="35" y="596" type="line"/>
      <point x="35" y="700" type="line"/>
      <point x="541" y="700" type="line"/>
    </contour>
    <contour>
      <point x="243" y="-243" type="qcurve"/>
      <point x="219" y="-201" type="line"/>
      <point x="240" y="-196"/>
      <point x="273" y="-164"/>
      <point x="273" y="-149" type="qcurve"/>
      <point x="273" y="-143"/>
      <point x="266" y="-135"/>
      <point x="254" y="-132" type="qcurve"/>
      <point x="236" y="-127"/>
      <point x="224" y="-109"/>
      <point x="224" y="-94" type="qcurve"/>
      <point x="224" y="-72"/>
      <point x="260" y="-45"/>
      <point x="289" y="-45" type="qcurve"/>
      <point x="322" y="-45"/>
      <point x="367" y="-87"/>
      <point x="367" y="-122" type="qcurve"/>
      <point x="367" y="-160"/>
      <point x="299" y="-224"/>
    </contour>
  </outline>
</glyph>
<glyph name="uni021B" format="2">
  <advance width="384"/>
  <unicode hex="021B"/>
  <outline>
    <contour>
      <point x="240" y="659" type="line"/>
      <point x="240" y="0" type="line"/>
      <point x="137" y="0" type="line"/>
      <point x="137" y="659" type="line"/>
    </contour>
    <contour>
      <point x="362" y="525" type="line"/>
      <point x="362" y="425" type="line"/>
      <point x="28" y="425" type="line"/>
      <point x="28" y="525" type="line"/>
    </contour>
    <contour>
      <point x="137" y="-243" type="qcurve"/>
      <point x="113" y="-201" type="line"/>
      <point x="134" y="-196"/>
      <point x="167" y="-164"/>
      <point x="167" y="-149" type="qcurve"/>
      <point x="167" y="-143"/>
      <point x="160" y="-135"/>
      <point x="148" y="-132" type="qcurve"/>
      <point x="130" y="-127"/>
      <point x="118" y="-109"/>
      <point x="118" y="-94" type="qcurve"/>
      <point x="118" y="-72"/>
      <point x="154" y="-45"/>
      <point x="183" y="-45" type="qcurve"/>
      <point x="216" y="-45"/>
      <point x="261" y="-87"/>
      <point x="261" y="-122" type="qcurve"/>
      <point x="261" y="-160"/>
      <point x="193" y="-224"/>
    </contour>
  </outline>
</glyph>
<glyph name="uni0230" format="2">
  <advance width="782"/>
  <unicode hex="0230"/>
  <outline>
    <contour>
      <point x="391" y="710" type="qcurve"/>
      <point x="539" y="710"/>
      <point x="734" y="504"/>
      <point x="734" y="350" type="qcurve"/>
      <point x="734" y="196"/>
      <point x="539" y="-10"/>
      <point x="391" y="-10" type="qcurve"/>
      <point x="243" y="-10"/>
      <point x="48" y="195"/>
      <point x="48" y="350" type="qcurve"/>
      <point x="48" y="505"/>
      <point x="243" y="710"/>
    </contour>
    <contour>
      <point x="391" y="95" type="qcurve"/>
      <point x="492" y="95"/>
      <point x="624" y="240"/>
      <point x="624" y="350" type="qcurve"/>
      <point x="624" y="460"/>
      <point x="492" y="605"/>
      <point x="391" y="605" type="qcurve"/>
      <point x="289" y="605"/>
      <point x="158" y="461"/>
      <point x="158" y="350" type="qcurve"/>
      <point x="158" y="239"/>
      <point x="289" y="95"/>
    </contour>
    <contour>
      <point x="457" y="824" type="qcurve"/>
      <point x="457" y="795"/>
      <point x="420" y="759"/>
      <point x="388" y="759" type="qcurve"/>
      <point x="355" y="759"/>
      <point x="319" y="793"/>
      <point x="319" y="824" type="qcurve"/>
      <point x="319" y="853"/>
      <point x="356" y="889"/>
      <point x="388" y="889" type="qcurve"/>
      <point x="421" y="889"/>
      <point x="457" y="855"/>
    </contour>
    <contour>
      <point x="529" y="957" type="line"/>
      <point x="245" y="957" type="line"/>
      <point x="245" y="1032" type="line"/>
      <point x="529" y="1032" type="line"/>
    </contour>
  </outline>
</glyph>
<glyph name="uni0237" format="2">
  <advance width="263"/>
  <unicode hex="0237"/>
  <outline>
    <contour>
      <point x="188" y="525" type="line"/>
      <point x="188" y="-24" type="line"/>
      <point x="188" y="-101"/>
      <point x="88" y="-197"/>
      <point x="8" y="-197" type="qcurve"/>
      <point x="-31" y="-118" type="line"/>
      <point x="27" y="-118"/>
      <point x="85" y="-58"/>
      <point x="85" y="1" type="qcurve"/>
      <point x="85" y="525" type="line"/>
    </contour>
  </outline>
</glyph>
<glyph name="uni02C8" format="2">
  <advance width="231"/>
  <unicode hex="02C8"/>
  <outline>
    <contour>
      <point x="164" y="712" type="line"/>
      <point x="164" y="368" type="line"/>
      <point x="67" y="368" type="line"/>
      <point x="67" y="712" type="line"/>
    </contour>
  </outline>
</glyph>
<glyph name="uni02CA" format="2">
  <advance width="252"/>
  <unicode hex="02CA"/>
  <outline>
    <contour>
      <point x="225" y="659" type="line"/>
      <point x="51" y="565" type="line"/>
      <point x="17" y="616" type="line"/>
      <point x="160" y="741" type="line"/>
    </contour>
  </outline>
</glyph>
<glyph name="ring" format="2">
  <advance width="336"/>
  <unicode hex="02DA"/>
  <outline>
    <contour>
      <point x="269" y="669" type="qcurve"/>
      <point x="269" y="627"/>
      <point x="203" y="564"/>
      <point x="159" y="564" type="qcurve"/>
      <point x="116" y="564"/>
      <point x="50" y="627"/>
      <point x="50" y="669" type="qcurve"/>
      <point x="50" y="712"/>
      <point x="115" y="775"/>
      <point x="159" y="775" type="qcurve"/>
      <point x="203" y="775"/>
      <point x="269" y="712"/>
    </contour>
    <contour>
      <point x="110" y="669" type="qcurve"/>
      <point x="110" y="650"/>
      <point x="139" y="623"/>
      <point x="159" y="623" type="qcurve"/>
      <point x="180" y="623"/>
      <point x="209" y="650"/>
      <point x="209" y="669" type="qcurve"/>
      <point x="209" y="690"/>
      <point x="180" y="716"/>
      <point x="159" y="716" type="qcurve"/>
      <point x="138" y="716"/>
      <point x="110" y="689"/>
    </contour>
  </outline>
</glyph>
<glyph name="acutecomb" format="2">
  <unicode hex="0301"/>
  <outline>
    <contour>
      <point x="247" y="727" type="line"/>
      <point x="73" y="633" type="line"/>
      <point x="39" y="684" type="line"/>
      <point x="182" y="809" type="line"/>
    </contour>
  </outline>
</glyph>
<glyph name="uni0306" format="2">
  <unicode hex="0306"/>
  <outline>
    <contour>
      <point x="201" y="605" type="qcurve"/>
      <point x="140" y="605"/>
      <point x="53" y="688"/>
      <point x="39" y="759" type="qcurve"/>
      <point x="113" y="771" type="line"/>
      <point x="126" y="732"/>
      <point x="174" y="686"/>
      <point x="201" y="686" type="qcurve"/>
      <point x="228" y="686"/>
      <point x="276" y="732"/>
      <point x="289" y="771" type="qcurve"/>
      <point x="363" y="759" type="line"/>
      <point x="349" y="688"/>
      <point x="262" y="605"/>
    </contour>
  </outline>
</glyph>
<glyph name="uni0308" format="2">
  <unicode hex="0308"/>
  <outline>
    <contour>
      <point x="160" y="677" type="qcurve"/>
      <point x="160" y="648"/>
      <point x="123" y="612"/>
      <point x="91" y="612" type="qcurve"/>
      <point x="58" y="612"/>
      <point x="22" y="646"/>
      <point x="22" y="677" type="qcurve"/>
      <point x="22" y="706"/>
      <point x="59" y="742"/>
      <point x="91" y="742" type="qcurve"/>
      <point x="124" y="742"/>
      <point x="160" y="708"/>
    </contour>
    <contour>
      <point x="360" y="677" type="qcurve"/>
      <point x="360" y="648"/>
      <point x="323" y="612"/>
      <point x="291" y="612" type="qcurve"/>
      <point x="258" y="612"/>
      <point x="222" y="646"/>
      <point x="222" y="677" type="qcurve"/>
      <point x="222" y="706"/>
      <point x="259" y="742"/>
      <point x="291" y="742" type="qcurve"/>
      <point x="324" y="742"/>
      <point x="360" y="708"/>
    </contour>
  </outline>
</glyph>
<glyph name="hookabovecomb" format="2">
  <unicode hex="0309"/>
  <outline>
    <contour>
      <point x="83" y="676" type="qcurve"/>
      <point x="50" y="724" type="line"/>
      <point x="75" y="749"/>
      <point x="119" y="770"/>
      <point x="145" y="770" type="qcurve"/>
      <point x="194" y="770"/>
      <point x="247" y="725"/>
      <point x="247" y="688" type="qcurve"/>
      <point x="247" y="676"/>
      <point x="239" y="654"/>
      <point x="223" y="631" type="qcurve"/>
      <point x="216" y="621"/>
      <point x="204" y="596"/>
      <point x="203" y="588" type="qcurve"/>
      <point x="135" y="588" type="line"/>
      <point x="135" y="601"/>
      <point x="143" y="627"/>
      <point x="151" y="637" type="qcurve"/>
      <point x="169" y="661"/>
      <point x="176" y="675"/>
      <point x="176" y="681" type="qcurve"/>
      <point x="176" y="696"/>
      <point x="160" y="709"/>
      <point x="141" y="709" type="qcurve"/>
      <point x="128" y="709"/>
      <point x="101" y="694"/>
    </contour>
  </outline>
</glyph>
<glyph name="uni030B" format="2">
  <unicode hex="030B"/>
  <outline>
    <contour>
      <point x="225" y="667" type="line"/>
      <point x="51" y="573" type="line"/>
      <point x="17" y="624" type="line"/>
      <point x="160" y="749" type="line"/>
    </contour>
    <contour>
      <point x="424" y="667" type="line"/>
      <point x="250" y="573" type="line"/>
      <point x="216" y="624" type="line"/>
      <point x="359" y="749" type="line"/>
    </contour>
  </outline>
</glyph>
<glyph name="uni0311" format="2">
  <unicode hex="0311"/>
  <outline>
    <contour>
      <point x="198" y="784" type="qcurve"/>
      <point x="259" y="784"/>
      <point x="346" y="701"/>
      <point x="360" y="630" type="qcurve"/>
      <point x="286" y="618" type="line"/>
      <point x="273" y="657"/>
      <point x="225" y="703"/>
      <point x="198" y="703" type="qcurve"/>
      <point x="171" y="703"/>
      <point x="123" y="657"/>
      <point x="110" y="618" type="qcurve"/>
      <point x="36" y="630" type="line"/>
      <point x="50" y="701"/>
      <point x="137" y="784"/>
    </contour>
  </outline>
</glyph>
<glyph name="dotbelowcomb" format="2">
  <unicode hex="0323"/>
  <outline>
    <contour>
      <point x="170" y="-141" type="qcurve"/>
      <point x="170" y="-170"/>
      <point x="133" y="-206"/>
      <point x="101" y="-206" type="qcurve"/>
      <point x="68" y="-206"/>
      <point x="32" y="-172"/>
      <point x="32" y="-141" type="qcurve"/>
      <point x="32" y="-112"/>
      <point x="69" y="-76"/>
      <point x="101" y="-76" type="qcurve"/>
      <point x="134" y="-76"/>
      <point x="170" y="-110"/>
    </contour>
  </outline>
</glyph>
<glyph name="uni0331" format="2">
  <unicode hex="0331"/>
  <outline>
    <contour>
      <point x="351" y="-158" type="line"/>
      <point x="70" y="-158" type="line"/>
      <point x="70" y="-84" type="line"/>
      <point x="351" y="-84" type="line"/>
    </contour>
  </outline>
</glyph>
<glyph name="uni0335" format="2">
  <unicode hex="0335"/>
  <outline>
    <contour>
      <point x="318" y="251" type="line"/>
      <point x="50" y="251" type="line"/>
      <point x="50" y="341" type="line"/>
      <point x="318" y="341" type="line"/>
    </contour>
  </outline>
</glyph>
<glyph name="uni1E0D" format="2">
  <advance width="634"/>
  <unicode hex="1E0D"/>
  <outline>
    <contour>
      <point x="461" y="740" type="line"/>
      <point x="564" y="740" type="line"/>
      <point x="564" y="0" type="line"/>
      <point x="461" y="0" type="line"/>
      <point x="461" y="125" type="line"/>
      <point x="481" y="125" type="line"/>
      <point x="481" y="78"/>
      <point x="364" y="-10"/>
      <point x="291" y="-10" type="qcurve"/>
      <point x="183" y="-10"/>
      <point x="40" y="145"/>
      <point x="40" y="263" type="qcurve"/>
      <point x="40" y="381"/>
      <point x="182" y="536"/>
      <point x="288" y="536" type="qcurve"/>
      <point x="367" y="536"/>
      <point x="491" y="443"/>
      <point x="491" y="391" type="qcurve"/>
      <point x="461" y="389" type="line"/>
    </contour>
    <contour>
      <point x="145" y="263" type="qcurve"/>
      <point x="145" y="183"/>
      <point x="235" y="79"/>
      <point x="305" y="79" type="qcurve"/>
      <point x="375" y="79"/>
      <point x="465" y="183"/>
      <point x="465" y="263" type="qcurve"/>
      <point x="465" y="343"/>
      <point x="375" y="447"/>
      <point x="305" y="447" type="qcurve"/>
      <point x="235" y="447"/>
      <point x="145" y="343"/>
    </contour>
    <contour>
      <point x="386" y="-158" type="qcurve"/>
      <point x="386" y="-187"/>
      <point x="349" y="-223"/>
      <point x="317" y="-223" type="qcurve"/>
      <point x="284" y="-223"/>
      <point x="248" y="-189"/>
      <point x="248" y="-158" type="qcurve"/>
      <point x="248" y="-129"/>
      <point x="285" y="-93"/>
      <point x="317" y="-93" type="qcurve"/>
      <point x="350" y="-93"/>
      <point x="386" y="-127"/>
    </contour>
  </outline>
</glyph>
<glyph name="uni1E16" format="2">
  <advance width="614"/>
  <unicode hex="1E16"/>
  <outline>
    <contour>
      <point x="206" y="0" type="line"/>
      <point x="98" y="0" type="line"/>
      <point x="98" y="700" type="line"/>
      <point x="206" y="700" type="line"/>
    </contour>
    <contour>
      <point x="539" y="0" type="line"/>
      <point x="147" y="0" type="line"/>
      <point x="147" y="104" type="line"/>
      <point x="539" y="104" type="line"/>
    </contour>
    <contour>
      <point x="484" y="307" type="line"/>
      <point x="147" y="307" type="line"/>
      <point x="147" y="411" type="line"/>
      <point x="484" y="411" type="line"/>
    </contour>
    <contour>
      <point x="539" y="596" type="line"/>
      <point x="147" y="596" type="line"/>
      <point x="147" y="700" type="line"/>
      <point x="539" y="700" type="line"/>
    </contour>
    <contour>
      <point x="470" y="776" type="line"/>
      <point x="186" y="776" type="line"/>
      <point x="186" y="851" type="line"/>
      <point x="470" y="851" type="line"/>
    </contour>
    <contour>
      <point x="470" y="1011" type="line"/>
      <point x="296" y="917" type="line"/>
      <point x="262" y="968" type="line"/>
      <point x="405" y="1093" type="line"/>
    </contour>
  </outline>
</glyph>
<glyph name="uni1E24" format="2">
  <advance width="761"/>
  <unicode hex="1E24"/>
  <outline>
    <contour>
      <point x="98" y="700" type="line"/>
      <point x="206" y="700" type="line"/>
      <point x="206" y="0" type="line"/>
      <point x="98" y="0" type="line"/>
    </contour>
    <contour>
      <point x="555" y="700" type="line"/>
      <point x="663" y="700" type="line"/>
      <point x="663" y="0" type="line"/>
      <point x="555" y="0" type="line"/>
    </contour>
    <contour>
      <point x="145" y="297" type="line"/>
      <point x="145" y="401" type="line"/>
      <point x="603" y="401" type="line"/>
      <point x="603" y="297" type="line"/>
    </contour>
    <contour>
      <point x="446" y="-126" type="qcurve"/>
      <point x="446" y="-155"/>
      <point x="409" y="-191"/>
      <point x="377" y="-191" type="qcurve"/>
      <point x="344" y="-191"/>
      <point x="308" y="-157"/>
      <point x="308" y="-126" type="qcurve"/>
      <point x="308" y="-97"/>
      <point x="345" y="-61"/>
      <point x="377" y="-61" type="qcurve"/>
      <point x="410" y="-61"/>
      <point x="446" y="-95"/>
    </contour>
  </outline>
</glyph>
<glyph name="uni1E2A" format="2">
  <advance width="761"/>
  <unicode hex="1E2A"/>
  <outline>
    <contour>
      <point x="98" y="700" type="line"/>
      <point x="206" y="700" type="line"/>
      <point x="206" y="0" type="line"/>
      <point x="98" y="0" type="line"/>
    </contour>
    <contour>
      <point x="555" y="700" type="line"/>
      <point x="663" y="700" type="line"/>
      <point x="663" y="0" type="line"/>
      <point x="555" y="0" type="line"/>
    </contour>
    <contour>
      <point x="145" y="297" type="line"/>
      <point x="145" y="401" type="line"/>
      <point x="603" y="401" type="line"/>
      <point x="603" y="297" type="line"/>
    </contour>
    <contour>
      <point x="376" y="-128" type="qcurve"/>
      <point x="315" y="-128"/>
      <point x="228" y="-45"/>
      <point x="214" y="26" type="qcurve"/>
      <point x="288" y="38" type="line"/>
      <point x="301" y="-1"/>
      <point x="349" y="-47"/>
      <point x="376" y="-47" type="qcurve"/>
      <point x="403" y="-47"/>
      <point x="451" y="-1"/>
      <point x="464" y="38" type="qcurve"/>
      <point x="538" y="26" type="line"/>
      <point x="524" y="-45"/>
      <point x="437" y="-128"/>
    </contour>
  </outline>
</glyph>
<glyph name="uni1E36" format="2">
  <advance width="599"/>
  <unicode hex="1E36"/>
  <outline>
    <contour>
      <point x="178" y="104" type="line"/>
      <point x="534" y="104" type="line"/>
      <point x="534" y="0" type="line"/>
      <point x="98" y="0" type="line"/>
      <point x="98" y="700" type="line"/>
      <point x="206" y="700" type="line"/>
      <point x="206" y="78" type="line"/>
    </contour>
    <contour>
      <point x="368" y="-126" type="qcurve"/>
      <point x="368" y="-155"/>
      <point x="331" y="-191"/>
      <point x="299" y="-191" type="qcurve"/>
      <point x="266" y="-191"/>
      <point x="230" y="-157"/>
      <point x="230" y="-126" type="qcurve"/>
      <point x="230" y="-97"/>
      <point x="267" y="-61"/>
      <point x="299" y="-61" type="qcurve"/>
      <point x="332" y="-61"/>
      <point x="368" y="-95"/>
    </contour>
  </outline>
</glyph>
<glyph name="uni1E3B" format="2">
  <advance width="251"/>
  <unicode hex="1E3B"/>
  <outline>
    <contour>
      <point x="177" y="0" type="line"/>
      <point x="74" y="0" type="line"/>
      <point x="74" y="740" type="line"/>
      <point x="177" y="740" type="line"/>
    </contour>
    <contour>
      <point x="260" y="-158" type="line"/>
      <point x="-21" y="-158" type="line"/>
      <point x="-21" y="-84" type="line"/>
      <point x="260" y="-84" type="line"/>
    </contour>
  </outline>
</glyph>
<glyph name="uni1E43" format="2">
  <advance width="921"/>
  <unicode hex="1E43"/>
  <outline>
    <contour>
      <point x="339" y="534" type="qcurve"/>
      <point x="407" y="534"/>
      <point x="491" y="466"/>
      <point x="506" y="399" type="qcurve"/>
      <point x="490" y="403" type="line"/>
      <point x="497" y="420" type="line"/>
      <point x="519" y="466"/>
      <point x="625" y="534"/>
      <point x="680" y="534" type="qcurve"/>
      <point x="768" y="534"/>
      <point x="855" y="425"/>
      <point x="855" y="315" type="qcurve"/>
      <point x="855" y="0" type="line"/>
      <point x="751" y="0" type="line"/>
      <point x="751" y="309" type="line"/>
      <point x="751" y="376"/>
      <point x="700" y="439"/>
      <point x="646" y="439" type="qcurve"/>
      <point x="589" y="439"/>
      <point x="513" y="367"/>
      <point x="513" y="314" type="qcurve"/>
      <point x="513" y="0" type="line"/>
      <point x="409" y="0" type="line"/>
      <point x="409" y="311" type="line"/>
      <point x="409" y="373"/>
      <point x="356" y="439"/>
      <point x="306" y="439" type="qcurve"/>
      <point x="250" y="439"/>
      <point x="174" y="368"/>
      <point x="174" y="316" type="qcurve"/>
      <point x="174" y="0" type="line"/>
      <point x="70" y="0" type="line"/>
      <point x="70" y="525" type="line"/>
      <point x="174" y="525" type="line"/>
      <point x="174" y="413" type="line"/>
      <point x="155" y="401" type="line"/>
      <point x="170" y="453"/>
      <point x="277" y="534"/>
    </contour>
    <contour>
      <point x="531" y="-138" type="qcurve"/>
      <point x="531" y="-167"/>
      <point x="494" y="-203"/>
      <point x="462" y="-203" type="qcurve"/>
      <point x="429" y="-203"/>
      <point x="393" y="-169"/>
      <point x="393" y="-138" type="qcurve"/>
      <point x="393" y="-109"/>
      <point x="430" y="-73"/>
      <point x="462" y="-73" type="qcurve"/>
      <point x="495" y="-73"/>
      <point x="531" y="-107"/>
    </contour>
  </outline>
</glyph>
<glyph name="uni1E44" format="2">
  <advance width="793"/>
  <unicode hex="1E44"/>
  <outline>
    <contour>
      <point x="587" y="470" type="qcurve"/>
      <point x="587" y="700" type="line"/>
      <point x="695" y="700" type="line"/>
      <point x="695" y="0" type="line"/>
      <point x="596" y="0" type="line"/>
      <point x="175" y="552" type="line"/>
      <point x="186" y="566" type="line"/>
      <point x="192" y="502"/>
      <point x="206" y="336"/>
      <point x="206" y="291" type="qcurve"/>
      <point x="206" y="0" type="line"/>
      <point x="98" y="0" type="line"/>
      <point x="98" y="700" type="line"/>
      <point x="195" y="700" type="line"/>
      <point x="623" y="127" type="line"/>
      <point x="607" y="118" type="line"/>
      <point x="597" y="180"/>
      <point x="587" y="360"/>
    </contour>
    <contour>
      <point x="463" y="824" type="qcurve"/>
      <point x="463" y="795"/>
      <point x="426" y="759"/>
      <point x="394" y="759" type="qcurve"/>
      <point x="361" y="759"/>
      <point x="325" y="793"/>
      <point x="325" y="824" type="qcurve"/>
      <point x="325" y="853"/>
      <point x="362" y="889"/>
      <point x="394" y="889" type="qcurve"/>
      <point x="427" y="889"/>
      <point x="463" y="855"/>
    </contour>
  </outline>
</glyph>
<glyph name="uni1E46" format="2">
  <advance width="793"/>
  <unicode hex="1E46"/>
  <outline>
    <contour>
      <point x="587" y="470" type="qcurve"/>
      <point x="587" y="700" type="line"/>
      <point x="695" y="700" type="line"/>
      <point x="695" y="0" type="line"/>
      <point x="596" y="0" type="line"/>
      <point x="175" y="552" type="line"/>
      <point x="186" y="566" type="line"/>
      <point x="192" y="502"/>
      <point x="206" y="336"/>
      <point x="206" y="291" type="qcurve"/>
      <point x="206" y="0" type="line"/>
      <point x="98" y="0" type="line"/>
      <point x="98" y="700" type="line"/>
      <point x="195" y="700" type="line"/>
      <point x="623" y="127" type="line"/>
      <point x="607" y="118" type="line"/>
      <point x="597" y="180"/>
      <point x="587" y="360"/>
    </contour>
    <contour>
      <point x="463" y="-126" type="qcurve"/>
      <point x="463" y="-155"/>
      <point x="426" y="-191"/>
      <point x="394" y="-191" type="qcurve"/>
      <point x="361" y="-191"/>
      <point x="325" y="-157"/>
      <point x="325" y="-126" type="qcurve"/>
      <point x="325" y="-97"/>
      <point x="362" y="-61"/>
      <point x="394" y="-61" type="qcurve"/>
      <point x="427" y="-61"/>
      <point x="463" y="-95"/>
    </contour>
  </outline>
</glyph>
<glyph name="uni1E49" format="2">
  <advance width="595"/>
  <unicode hex="1E49"/>
  <outline>
    <contour>
      <point x="347" y="536" type="qcurve"/>
      <point x="437" y="536"/>
      <point x="527" y="429"/>
      <point x="527" y="320" type="qcurve"/>
      <point x="527" y="0" type="line"/>
      <point x="424" y="0" type="line"/>
      <point x="424" y="313" type="line"/>
      <point x="424" y="381"/>
      <point x="369" y="445"/>
      <point x="313" y="442" type="qcurve"/>
      <point x="254" y="442"/>
      <point x="175" y="370"/>
      <point x="175" y="318" type="qcurve"/>
      <point x="175" y="0" type="line"/>
      <point x="149" y="0"/>
      <point x="98" y="0"/>
      <point x="72" y="0" type="qcurve"/>
      <point x="72" y="525" type="line"/>
      <point x="175" y="525" type="line"/>
      <point x="175" y="417" type="line"/>
      <point x="157" y="405" type="line"/>
      <point x="172" y="457"/>
      <point x="284" y="536"/>
    </contour>
    <contour>
      <point x="441" y="-158" type="line"/>
      <point x="160" y="-158" type="line"/>
      <point x="160" y="-84" type="line"/>
      <point x="441" y="-84" type="line"/>
    </contour>
  </outline>
</glyph>
<glyph name="uni1E4C" format="2">
  <advance width="782"/>
  <unicode hex="1E4C"/>
  <outline>
    <contour>
      <point x="391" y="710" type="qcurve"/>
      <point x="539" y="710"/>
      <point x="734" y="504"/>
      <point x="734" y="350" type="qcurve"/>
      <point x="734" y="196"/>
      <point x="539" y="-10"/>
      <point x="391" y="-10" type="qcurve"/>
      <point x="243" y="-10"/>
      <point x="48" y="195"/>
      <point x="48" y="350" type="qcurve"/>
      <point x="48" y="505"/>
      <point x="243" y="710"/>
    </contour>
    <contour>
      <point x="391" y="95" type="qcurve"/>
      <point x="492" y="95"/>
      <point x="624" y="240"/>
      <point x="624" y="350" type="qcurve"/>
      <point x="624" y="460"/>
      <point x="492" y="605"/>
      <point x="391" y="605" type="qcurve"/>
      <point x="289" y="605"/>
      <point x="158" y="461"/>
      <point x="158" y="350" type="qcurve"/>
      <point x="158" y="239"/>
      <point x="289" y="95"/>
    </contour>
    <contour>
      <point x="323" y="817" type="qcurve"/>
      <point x="250" y="827" type="line"/>
      <point x="252" y="879"/>
      <point x="314" y="948"/>
      <point x="360" y="948" type="qcurve"/>
      <point x="379" y="948"/>
      <point x="412" y="932"/>
      <point x="434" y="909" type="qcurve"/>
      <point x="449" y="894"/>
      <point x="463" y="886"/>
      <point x="470" y="886" type="qcurve"/>
      <point x="483" y="886"/>
      <point x="499" y="915"/>
      <point x="498" y="936" type="qcurve"/>
      <point x="571" y="920" type="line"/>
      <point x="568" y="876"/>
      <point x="512" y="814"/>
      <point x="470" y="814" type="qcurve"/>
      <point x="447" y="814"/>
      <point x="409" y="832"/>
      <point x="385" y="856" type="qcurve"/>
      <point x="373" y="868"/>
      <point x="363" y="875"/>
      <point x="358" y="875" type="qcurve"/>
      <point x="341" y="875"/>
      <point x="323" y="846"/>
    </contour>
    <contour>
      <point x="558" y="1092" type="line"/>
      <point x="384" y="998" type="line"/>
      <point x="350" y="1049" type="line"/>
      <point x="493" y="1174" type="line"/>
    </contour>
  </outline>
</glyph>
<glyph name="uni1E4D" format="2">
  <advance width="615"/>
  <unicode hex="1E4D"/>
  <outline>
    <contour>
      <point x="308" y="536" type="qcurve"/>
      <point x="422" y="536"/>
      <point x="575" y="381"/>
      <point x="575" y="263" type="qcurve"/>
      <point x="575" y="145"/>
      <point x="422" y="-10"/>
      <point x="308" y="-10" type="qcurve"/>
      <point x="193" y="-10"/>
      <point x="40" y="145"/>
      <point x="40" y="263" type="qcurve"/>
      <point x="40" y="381"/>
      <point x="193" y="536"/>
    </contour>
    <contour>
      <point x="308" y="84" type="qcurve"/>
      <point x="379" y="84"/>
      <point x="471" y="186"/>
      <point x="470" y="263" type="qcurve"/>
      <point x="471" y="341"/>
      <point x="379" y="442"/>
      <point x="308" y="442" type="qcurve"/>
      <point x="237" y="442"/>
      <point x="144" y="340"/>
      <point x="145" y="263" type="qcurve"/>
      <point x="144" y="186"/>
      <point x="237" y="84"/>
    </contour>
    <contour>
      <point x="233" y="617" type="qcurve"/>
      <point x="160" y="627" type="line"/>
      <point x="162" y="679"/>
      <point x="224" y="748"/>
      <point x="270" y="748" type="qcurve"/>
      <point x="289" y="748"/>
      <point x="322" y="732"/>
      <point x="344" y="709" type="qcurve"/>
      <point x="359" y="694"/>
      <point x="373" y="686"/>
      <point x="380" y="686" type="qcurve"/>
      <point x="393" y="686"/>
      <point x="409" y="715"/>
      <point x="408" y="736" type="qcurve"/>
      <point x="481" y="720" type="line"/>
      <point x="478" y="676"/>
      <point x="422" y="614"/>
      <point x="380" y="614" type="qcurve"/>
      <point x="357" y="614"/>
      <point x="319" y="632"/>
      <point x="295" y="656" type="qcurve"/>
      <point x="283" y="668"/>
      <point x="273" y="675"/>
      <point x="268" y="675" type="qcurve"/>
      <point x="251" y="675"/>
      <point x="233" y="646"/>
    </contour>
    <contour>
      <point x="468" y="892" type="line"/>
      <point x="294" y="798" type="line"/>
      <point x="260" y="849" type="line"/>
      <point x="403" y="974" type="line"/>
    </contour>
  </outline>
</glyph>
<glyph name="uni1E4F" format="2">
  <advance width="615"/>
  <unicode hex="1E4F"/>
  <outline>
    <contour>
      <point x="308" y="536" type="qcurve"/>
      <point x="422" y="536"/>
      <point x="575" y="381"/>
      <point x="575" y="263" type="qcurve"/>
      <point x="575" y="145"/>
      <point x="422" y="-10"/>
      <point x="308" y="-10" type="qcurve"/>
      <point x="193" y="-10"/>
      <point x="40" y="145"/>
      <point x="40" y="263" type="qcurve"/>
      <point x="40" y="381"/>
      <point x="193" y="536"/>
    </contour>
    <contour>
      <point x="308" y="84" type="qcurve"/>
      <point x="379" y="84"/>
      <point x="471" y="186"/>
      <point x="470" y="263" type="qcurve"/>
      <point x="471" y="341"/>
      <point x="379" y="442"/>
      <point x="308" y="442" type="qcurve"/>
      <point x="237" y="442"/>
      <point x="144" y="340"/>
      <point x="145" y="263" type="qcurve"/>
      <point x="144" y="186"/>
      <point x="237" y="84"/>
    </contour>
    <contour>
      <point x="213" y="617" type="qcurve"/>
      <point x="140" y="627" type="line"/>
      <point x="142" y="679"/>
      <point x="204" y="748"/>
      <point x="250" y="748" type="qcurve"/>
      <point x="269" y="748"/>
      <point x="302" y="732"/>
      <point x="324" y="709" type="qcurve"/>
      <point x="339" y="694"/>
      <point x="353" y="686"/>
      <point x="360" y="686" type="qcurve"/>
      <point x="373" y="686"/>
      <point x="389" y="715"/>
      <point x="388" y="736" type="qcurve"/>
      <point x="461" y="720" type="line"/>
      <point x="458" y="676"/>
      <point x="402" y="614"/>
      <point x="360" y="614" type="qcurve"/>
      <point x="337" y="614"/>
      <point x="299" y="632"/>
      <point x="275" y="656" type="qcurve"/>
      <point x="263" y="668"/>
      <point x="253" y="675"/>
      <point x="248" y="675" type="qcurve"/>
      <point x="231" y="675"/>
      <point x="213" y="646"/>
    </contour>
    <contour>
      <point x="268" y="844" type="qcurve"/>
      <point x="268" y="815"/>
      <point x="231" y="779"/>
      <point x="199" y="779" type="qcurve"/>
      <point x="166" y="779"/>
      <point x="130" y="813"/>
      <point x="130" y="844" type="qcurve"/>
      <point x="130" y="873"/>
      <point x="167" y="909"/>
      <point x="199" y="909" type="qcurve"/>
      <point x="232" y="909"/>
      <point x="268" y="875"/>
    </contour>
    <contour>
      <point x="468" y="844" type="qcurve"/>
      <point x="468" y="815"/>
      <point x="431" y="779"/>
      <point x="399" y="779" type="qcurve"/>
      <point x="366" y="779"/>
      <point x="330" y="813"/>
      <point x="330" y="844" type="qcurve"/>
      <point x="330" y="873"/>
      <point x="367" y="909"/>
      <point x="399" y="909" type="qcurve"/>
      <point x="432" y="909"/>
      <point x="468" y="875"/>
    </contour>
  </outline>
</glyph>
<glyph name="uni1E52" format="2">
  <advance width="782"/>
  <unicode hex="1E52"/>
  <outline>
    <contour>
      <point x="391" y="710" type="qcurve"/>
      <point x="539" y="710"/>
      <point x="734" y="504"/>
      <point x="734" y="350" type="qcurve"/>
      <point x="734" y="196"/>
      <point x="539" y="-10"/>
      <point x="391" y="-10" type="qcurve"/>
      <point x="243" y="-10"/>
      <point x="48" y="195"/>
      <point x="48" y="350" type="qcurve"/>
      <point x="48" y="505"/>
      <point x="243" y="710"/>
    </contour>
    <contour>
      <point x="391" y="95" type="qcurve"/>
      <point x="492" y="95"/>
      <point x="624" y="240"/>
      <point x="624" y="350" type="qcurve"/>
      <point x="624" y="460"/>
      <point x="492" y="605"/>
      <point x="391" y="605" type="qcurve"/>
      <point x="289" y="605"/>
      <point x="158" y="461"/>
      <point x="158" y="350" type="qcurve"/>
      <point x="158" y="239"/>
      <point x="289" y="95"/>
    </contour>
    <contour>
      <point x="531" y="776" type="line"/>
      <point x="247" y="776" type="line"/>
      <point x="247" y="851" type="line"/>
      <point x="531" y="851" type="line"/>
    </contour>
    <contour>
      <point x="531" y="1011" type="line"/>
      <point x="357" y="917" type="line"/>
      <point x="323" y="968" type="line"/>
      <point x="466" y="1093" type="line"/>
    </contour>
  </outline>
</glyph>
<glyph name="uni1E64" format="2">
  <advance width="624"/>
  <unicode hex="1E64"/>
  <outline>
    <contour>
      <point x="50" y="126" type="qcurve"/>
      <point x="124" y="211" type="line"/>
      <point x="173" y="141"/>
      <point x="263" y="87"/>
      <point x="325" y="87" type="qcurve"/>
      <point x="382" y="87"/>
      <point x="461" y="139"/>
      <point x="461" y="180" type="qcurve"/>
      <point x="461" y="226"/>
      <point x="383" y="285"/>
      <point x="299" y="301" type="qcurve"/>
      <point x="191" y="322"/>
      <point x="85" y="428"/>
      <point x="85" y="514" type="qcurve"/>
      <point x="85" y="599"/>
      <point x="224" y="710"/>
      <point x="326" y="710" type="qcurve"/>
      <point x="407" y="710"/>
      <point x="528" y="647"/>
      <point x="563" y="587" type="qcurve"/>
      <point x="487" y="512" type="line"/>
      <point x="457" y="561"/>
      <point x="374" y="613"/>
      <point x="323" y="613" type="qcurve"/>
      <point x="265" y="613"/>
      <point x="193" y="560"/>
      <point x="193" y="517" type="qcurve"/>
      <point x="193" y="474"/>
      <point x="258" y="421"/>
      <point x="337" y="405" type="qcurve"/>
      <point x="447" y="382"/>
      <point x="569" y="280"/>
      <point x="569" y="208" type="qcurve"/>
      <point x="569" y="108"/>
      <point x="432" y="-10"/>
      <point x="314" y="-10" type="qcurve"/>
      <point x="228" y="-10"/>
      <point x="97" y="58"/>
    </contour>
    <contour>
      <point x="492" y="845" type="line"/>
      <point x="318" y="751" type="line"/>
      <point x="284" y="802" type="line"/>
      <point x="427" y="927" type="line"/>
    </contour>
    <contour>
      <point x="433" y="1014" type="qcurve"/>
      <point x="433" y="985"/>
      <point x="396" y="949"/>
      <point x="364" y="949" type="qcurve"/>
      <point x="331" y="949"/>
      <point x="295" y="983"/>
      <point x="295" y="1014" type="qcurve"/>
      <point x="295" y="1043"/>
      <point x="332" y="1079"/>
      <point x="364" y="1079" type="qcurve"/>
      <point x="397" y="1079"/>
      <point x="433" y="1045"/>
    </contour>
  </outline>
</glyph>
<glyph name="uni1E65" format="2">
  <advance width="479"/>
  <unicode hex="1E65"/>
  <outline>
    <contour>
      <point x="40" y="81" type="qcurve"/>
      <point x="110" y="141" type="line"/>
      <point x="140" y="106"/>
      <point x="211" y="75"/>
      <point x="256" y="75" type="qcurve"/>
      <point x="293" y="75"/>
      <point x="340" y="111"/>
      <point x="340" y="142" type="qcurve"/>
      <point x="340" y="168"/>
      <point x="302" y="199"/>
      <point x="234" y="217" type="qcurve"/>
      <point x="132" y="244"/>
      <point x="53" y="323"/>
      <point x="53" y="385" type="qcurve"/>
      <point x="53" y="451"/>
      <point x="162" y="536"/>
      <point x="241" y="536" type="qcurve"/>
      <point x="297" y="536"/>
      <point x="402" y="491"/>
      <point x="434" y="452" type="qcurve"/>
      <point x="375" y="387" type="line"/>
      <point x="346" y="416"/>
      <point x="275" y="451"/>
      <point x="246" y="451" type="qcurve"/>
      <point x="203" y="451"/>
      <point x="156" y="419"/>
      <point x="156" y="388" type="qcurve"/>
      <point x="157" y="361"/>
      <point x="199" y="327"/>
      <point x="267" y="310" type="qcurve"/>
      <point x="366" y="284"/>
      <point x="437" y="208"/>
      <point x="437" y="146" type="qcurve"/>
      <point x="437" y="78"/>
      <point x="326" y="-10"/>
      <point x="247" y="-10" type="qcurve"/>
      <point x="181" y="-10"/>
      <point x="75" y="36"/>
    </contour>
    <contour>
      <point x="453" y="725" type="line"/>
      <point x="279" y="631" type="line"/>
      <point x="245" y="682" type="line"/>
      <point x="388" y="807" type="line"/>
    </contour>
    <contour>
      <point x="210" y="685" type="qcurve"/>
      <point x="210" y="656"/>
      <point x="173" y="620"/>
      <point x="141" y="620" type="qcurve"/>
      <point x="108" y="620"/>
      <point x="72" y="654"/>
      <point x="72" y="685" type="qcurve"/>
      <point x="72" y="714"/>
      <point x="109" y="750"/>
      <point x="141" y="750" type="qcurve"/>
      <point x="174" y="750"/>
      <point x="210" y="716"/>
    </contour>
  </outline>
</glyph>
<glyph name="uni1E66" format="2">
  <advance width="624"/>
  <unicode hex="1E66"/>
  <outline>
    <contour>
      <point x="50" y="126" type="qcurve"/>
      <point x="124" y="211" type="line"/>
      <point x="173" y="141"/>
      <point x="263" y="87"/>
      <point x="325" y="87" type="qcurve"/>
      <point x="382" y="87"/>
      <point x="461" y="139"/>
      <point x="461" y="180" type="qcurve"/>
      <point x="461" y="226"/>
      <point x="383" y="285"/>
      <point x="299" y="301" type="qcurve"/>
      <point x="191" y="322"/>
      <point x="85" y="428"/>
      <point x="85" y="514" type="qcurve"/>
      <point x="85" y="599"/>
      <point x="224" y="710"/>
      <point x="326" y="710" type="qcurve"/>
      <point x="407" y="710"/>
      <point x="528" y="647"/>
      <point x="563" y="587" type="qcurve"/>
      <point x="487" y="512" type="line"/>
      <point x="457" y="561"/>
      <point x="374" y="613"/>
      <point x="323" y="613" type="qcurve"/>
      <point x="265" y="613"/>
      <point x="193" y="560"/>
      <point x="193" y="517" type="qcurve"/>
      <point x="193" y="474"/>
      <point x="258" y="421"/>
      <point x="337" y="405" type="qcurve"/>
      <point x="447" y="382"/>
      <point x="569" y="280"/>
      <point x="569" y="208" type="qcurve"/>
      <point x="569" y="108"/>
      <point x="432" y="-10"/>
      <point x="314" y="-10" type="qcurve"/>
      <point x="228" y="-10"/>
      <point x="97" y="58"/>
    </contour>
    <contour>
      <point x="351" y="830" type="line"/>
      <point x="321" y="830" type="line"/>
      <point x="446" y="903" type="line"/>
      <point x="484" y="870" type="line"/>
      <point x="379" y="757" type="line"/>
      <point x="293" y="757" type="line"/>
      <point x="188" y="870" type="line"/>
      <point x="226" y="903" type="line"/>
    </contour>
    <contour>
      <point x="406" y="996" type="qcurve"/>
      <point x="406" y="967"/>
      <point x="369" y="931"/>
      <point x="337" y="931" type="qcurve"/>
      <point x="304" y="931"/>
      <point x="268" y="965"/>
      <point x="268" y="996" type="qcurve"/>
      <point x="268" y="1025"/>
      <point x="305" y="1061"/>
      <point x="337" y="1061" type="qcurve"/>
      <point x="370" y="1061"/>
      <point x="406" y="1027"/>
    </contour>
  </outline>
</glyph>
<glyph name="uni1E67" format="2">
  <advance width="479"/>
  <unicode hex="1E67"/>
  <outline>
    <contour>
      <point x="40" y="81" type="qcurve"/>
      <point x="110" y="141" type="line"/>
      <point x="140" y="106"/>
      <point x="211" y="75"/>
      <point x="256" y="75" type="qcurve"/>
      <point x="293" y="75"/>
      <point x="340" y="111"/>
      <point x="340" y="142" type="qcurve"/>
      <point x="340" y="168"/>
      <point x="302" y="199"/>
      <point x="234" y="217" type="qcurve"/>
      <point x="132" y="244"/>
      <point x="53" y="323"/>
      <point x="53" y="385" type="qcurve"/>
      <point x="53" y="451"/>
      <point x="162" y="536"/>
      <point x="241" y="536" type="qcurve"/>
      <point x="297" y="536"/>
      <point x="402" y="491"/>
      <point x="434" y="452" type="qcurve"/>
      <point x="375" y="387" type="line"/>
      <point x="346" y="416"/>
      <point x="275" y="451"/>
      <point x="246" y="451" type="qcurve"/>
      <point x="203" y="451"/>
      <point x="156" y="419"/>
      <point x="156" y="388" type="qcurve"/>
      <point x="157" y="361"/>
      <point x="199" y="327"/>
      <point x="267" y="310" type="qcurve"/>
      <point x="366" y="284"/>
      <point x="437" y="208"/>
      <point x="437" y="146" type="qcurve"/>
      <point x="437" y="78"/>
      <point x="326" y="-10"/>
      <point x="247" y="-10" type="qcurve"/>
      <point x="181" y="-10"/>
      <point x="75" y="36"/>
    </contour>
    <contour>
      <point x="254" y="710" type="line"/>
      <point x="224" y="710" type="line"/>
      <point x="349" y="783" type="line"/>
      <point x="387" y="750" type="line"/>
      <point x="282" y="637" type="line"/>
      <point x="196" y="637" type="line"/>
      <point x="91" y="750" type="line"/>
      <point x="129" y="783" type="line"/>
    </contour>
    <contour>
      <point x="309" y="876" type="qcurve"/>
      <point x="309" y="847"/>
      <point x="272" y="811"/>
      <point x="240" y="811" type="qcurve"/>
      <point x="207" y="811"/>
      <point x="171" y="845"/>
      <point x="171" y="876" type="qcurve"/>
      <point x="171" y="905"/>
      <point x="208" y="941"/>
      <point x="240" y="941" type="qcurve"/>
      <point x="273" y="941"/>
      <point x="309" y="907"/>
    </contour>
  </outline>
</glyph>
<glyph name="uni1E6F" format="2">
  <advance width="384"/>
  <unicode hex="1E6F"/>
  <outline>
    <contour>
      <point x="240" y="659" type="line"/>
      <point x="240" y="0" type="line"/>
      <point x="137" y="0" type="line"/>
      <point x="137" y="659" type="line"/>
    </contour>
    <contour>
      <point x="362" y="525" type="line"/>
      <point x="362" y="425" type="line"/>
      <point x="28" y="425" type="line"/>
      <point x="28" y="525" type="line"/>
    </contour>
    <contour>
      <point x="320" y="-158" type="line"/>
      <point x="39" y="-158" type="line"/>
      <point x="39" y="-84" type="line"/>
      <point x="320" y="-84" type="line"/>
    </contour>
  </outline>
</glyph>
<glyph name="uni1E78" format="2">
  <advance width="740"/>
  <unicode hex="1E78"/>
  <outline>
    <contour>
      <point x="549" y="701" type="line"/>
      <point x="652" y="701" type="line"/>
      <point x="652" y="269" type="line"/>
      <point x="652" y="150"/>
      <point x="492" y="-6"/>
      <point x="370" y="-6" type="qcurve"/>
      <point x="248" y="-6"/>
      <point x="88" y="150"/>
      <point x="88" y="269" type="qcurve"/>
      <point x="88" y="701" type="line"/>
      <point x="196" y="701" type="line"/>
      <point x="196" y="278" type="line"/>
      <point x="196" y="202"/>
      <point x="299" y="98"/>
      <point x="370" y="98" type="qcurve"/>
      <point x="445" y="98"/>
      <point x="549" y="202"/>
      <point x="549" y="278" type="qcurve"/>
    </contour>
    <contour>
      <point x="290" y="807" type="qcurve"/>
      <point x="217" y="817" type="line"/>
      <point x="219" y="869"/>
      <point x="281" y="938"/>
      <point x="327" y="938" type="qcurve"/>
      <point x="346" y="938"/>
      <point x="379" y="922"/>
      <point x="401" y="899" type="qcurve"/>
      <point x="416" y="884"/>
      <point x="430" y="876"/>
      <point x="437" y="876" type="qcurve"/>
      <point x="450" y="876"/>
      <point x="466" y="905"/>
      <point x="465" y="926" type="qcurve"/>
      <point x="538" y="910" type="line"/>
      <point x="535" y="866"/>
      <point x="479" y="804"/>
      <point x="437" y="804" type="qcurve"/>
      <point x="414" y="804"/>
      <point x="376" y="822"/>
      <point x="352" y="846" type="qcurve"/>
      <point x="340" y="858"/>
      <point x="330" y="865"/>
      <point x="325" y="865" type="qcurve"/>
      <point x="308" y="865"/>
      <point x="290" y="836"/>
    </contour>
    <contour>
      <point x="525" y="1082" type="line"/>
      <point x="351" y="988" type="line"/>
      <point x="317" y="1039" type="line"/>
      <point x="460" y="1164" type="line"/>
    </contour>
  </outline>
</glyph>
<glyph name="uni1E7A" format="2">
  <advance width="740"/>
  <unicode hex="1E7A"/>
  <outline>
    <contour>
      <point x="549" y="701" type="line"/>
      <point x="652" y="701" type="line"/>
      <point x="652" y="269" type="line"/>
      <point x="652" y="150"/>
      <point x="492" y="-6"/>
      <point x="370" y="-6" type="qcurve"/>
      <point x="248" y="-6"/>
      <point x="88" y="150"/>
      <point x="88" y="269" type="qcurve"/>
      <point x="88" y="701" type="line"/>
      <point x="196" y="701" type="line"/>
      <point x="196" y="278" type="line"/>
      <point x="196" y="202"/>
      <point x="299" y="98"/>
      <point x="370" y="98" type="qcurve"/>
      <point x="445" y="98"/>
      <point x="549" y="202"/>
      <point x="549" y="278" type="qcurve"/>
    </contour>
    <contour>
      <point x="520" y="776" type="line"/>
      <point x="236" y="776" type="line"/>
      <point x="236" y="851" type="line"/>
      <point x="520" y="851" type="line"/>
    </contour>
    <contour>
      <point x="347" y="964" type="qcurve"/>
      <point x="347" y="935"/>
      <point x="310" y="899"/>
      <point x="278" y="899" type="qcurve"/>
      <point x="245" y="899"/>
      <point x="209" y="933"/>
      <point x="209" y="964" type="qcurve"/>
      <point x="209" y="993"/>
      <point x="246" y="1029"/>
      <point x="278" y="1029" type="qcurve"/>
      <point x="311" y="1029"/>
      <point x="347" y="995"/>
    </contour>
    <contour>
      <point x="547" y="964" type="qcurve"/>
      <point x="547" y="935"/>
      <point x="510" y="899"/>
      <point x="478" y="899" type="qcurve"/>
      <point x="445" y="899"/>
      <point x="409" y="933"/>
      <point x="409" y="964" type="qcurve"/>
      <point x="409" y="993"/>
      <point x="446" y="1029"/>
      <point x="478" y="1029" type="qcurve"/>
      <point x="511" y="1029"/>
      <point x="547" y="995"/>
    </contour>
  </outline>
</glyph>
<glyph name="Wdieresis" format="2">
  <advance width="996"/>
  <unicode hex="1E84"/>
  <outline>
    <contour>
      <point x="247" y="0" type="line"/>
      <point x="24" y="700" type="line"/>
      <point x="139" y="700" type="line"/>
      <point x="274" y="262" type="line"/>
      <point x="285" y="230"/>
      <point x="303" y="130"/>
      <point x="308" y="109" type="qcurve"/>
      <point x="279" y="110" type="line"/>
      <point x="286" y="133"/>
      <point x="313" y="231"/>
      <point x="325" y="263" type="qcurve"/>
      <point x="451" y="579" type="line"/>
      <point x="548" y="579" type="line"/>
      <point x="670" y="263" type="line"/>
      <point x="679" y="241"/>
      <point x="693" y="199"/>
      <point x="714" y="119" type="qcurve"/>
      <point x="688" y="112" type="line"/>
      <point x="704" y="197"/>
      <point x="716" y="241"/>
      <point x="723" y="265" type="qcurve"/>
      <point x="856" y="700" type="line"/>
      <point x="972" y="700" type="line"/>
      <point x="749" y="0" type="line"/>
      <point x="674" y="0" type="line"/>
      <point x="489" y="438" type="line"/>
      <point x="498" y="434" type="line"/>
      <point x="320" y="0" type="line"/>
    </contour>
    <contour>
      <point x="465" y="814" type="qcurve"/>
      <point x="465" y="785"/>
      <point x="428" y="749"/>
      <point x="396" y="749" type="qcurve"/>
      <point x="363" y="749"/>
      <point x="327" y="783"/>
      <point x="327" y="814" type="qcurve"/>
      <point x="327" y="843"/>
      <point x="364" y="879"/>
      <point x="396" y="879" type="qcurve"/>
      <point x="429" y="879"/>
      <point x="465" y="845"/>
    </contour>
    <contour>
      <point x="671" y="814" type="qcurve"/>
      <point x="671" y="785"/>
      <point x="634" y="749"/>
      <point x="602" y="749" type="qcurve"/>
      <point x="569" y="749"/>
      <point x="533" y="783"/>
      <point x="533" y="814" type="qcurve"/>
      <point x="533" y="843"/>
      <point x="570" y="879"/>
      <point x="602" y="879" type="qcurve"/>
      <point x="635" y="879"/>
      <point x="671" y="845"/>
    </contour>
  </outline>
</glyph>
<glyph name="wdieresis" format="2">
  <advance width="800"/>
  <unicode hex="1E85"/>
  <outline>
    <contour>
      <point x="674" y="525" type="line"/>
      <point x="778" y="525" type="line"/>
      <point x="601" y="0" type="line"/>
      <point x="530" y="0" type="line"/>
      <point x="384" y="334" type="line"/>
      <point x="407" y="331" type="line"/>
      <point x="271" y="0" type="line"/>
      <point x="201" y="0" type="line"/>
      <point x="22" y="525" type="line"/>
      <point x="126" y="526" type="line"/>
      <point x="254" y="133" type="line"/>
      <point x="231" y="135" type="line"/>
      <point x="370" y="442" type="line"/>
      <point x="432" y="442" type="line"/>
      <point x="572" y="134" type="line"/>
      <point x="545" y="132" type="line"/>
    </contour>
    <contour>
      <point x="375" y="681" type="qcurve"/>
      <point x="375" y="652"/>
      <point x="338" y="616"/>
      <point x="306" y="616" type="qcurve"/>
      <point x="273" y="616"/>
      <point x="237" y="650"/>
      <point x="237" y="681" type="qcurve"/>
      <point x="237" y="710"/>
      <point x="274" y="746"/>
      <point x="306" y="746" type="qcurve"/>
      <point x="339" y="746"/>
      <point x="375" y="712"/>
    </contour>
    <contour>
      <point x="575" y="681" type="qcurve"/>
      <point x="575" y="652"/>
      <point x="538" y="616"/>
      <point x="506" y="616" type="qcurve"/>
      <point x="473" y="616"/>
      <point x="437" y="650"/>
      <point x="437" y="681" type="qcurve"/>
      <point x="437" y="710"/>
      <point x="474" y="746"/>
      <point x="506" y="746" type="qcurve"/>
      <point x="539" y="746"/>
      <point x="575" y="712"/>
    </contour>
  </outline>
</glyph>
<glyph name="uni1E93" format="2">
  <advance width="484"/>
  <unicode hex="1E93"/>
  <outline>
    <contour>
      <point x="162" y="89" type="line"/>
      <point x="439" y="89" type="line"/>
      <point x="439" y="0" type="line"/>
      <point x="50" y="0" type="line"/>
      <point x="50" y="86" type="line"/>
      <point x="321" y="448" type="line"/>
      <point x="321" y="436" type="line"/>
      <point x="50" y="436" type="line"/>
      <point x="50" y="525" type="line"/>
      <point x="433" y="525" type="line"/>
      <point x="433" y="441" type="line"/>
      <point x="166" y="84" type="line"/>
    </contour>
    <contour>
      <point x="305" y="-138" type="qcurve"/>
      <point x="305" y="-167"/>
      <point x="268" y="-203"/>
      <point x="236" y="-203" type="qcurve"/>
      <point x="203" y="-203"/>
      <point x="167" y="-169"/>
      <point x="167" y="-138" type="qcurve"/>
      <point x="167" y="-109"/>
      <point x="204" y="-73"/>
      <point x="236" y="-73" type="qcurve"/>
      <point x="269" y="-73"/>
      <point x="305" y="-107"/>
    </contour>
  </outline>
</glyph>
<glyph name="uni1EA2" format="2">
  <advance width="700"/>
  <unicode hex="1EA2"/>
  <outline>
    <contour>
      <point x="337" y="612" type="qcurve"/>
      <point x="360" y="613" type="line"/>
      <point x="348" y="580"/>
      <point x="306" y="449"/>
      <point x="294" y="418" type="qcurve"/>
      <point x="135" y="0" type="line"/>
      <point x="25" y="0" type="line"/>
      <point x="296" y="700" type="line"/>
      <point x="406" y="700" type="line"/>
      <point x="675" y="0" type="line"/>
      <point x="560" y="0" type="line"/>
      <point x="400" y="422" type="line"/>
      <point x="390" y="451"/>
      <point x="349" y="579"/>
    </contour>
    <contour>
      <point x="354" y="174" type="line"/>
      <point x="145" y="174" type="line"/>
      <point x="185" y="278" type="line"/>
      <point x="354" y="278" type="line"/>
    </contour>
    <contour>
      <point x="549" y="174" type="line"/>
      <point x="354" y="174" type="line"/>
      <point x="354" y="278" type="line"/>
      <point x="503" y="278" type="line"/>
    </contour>
    <contour>
      <point x="270" y="832" type="qcurve"/>
      <point x="237" y="880" type="line"/>
      <point x="262" y="905"/>
      <point x="306" y="926"/>
      <point x="332" y="926" type="qcurve"/>
      <point x="381" y="926"/>
      <point x="434" y="881"/>
      <point x="434" y="844" type="qcurve"/>
      <point x="434" y="832"/>
      <point x="426" y="810"/>
      <point x="410" y="787" type="qcurve"/>
      <point x="403" y="777"/>
      <point x="391" y="752"/>
      <point x="390" y="744" type="qcurve"/>
      <point x="322" y="744" type="line"/>
      <point x="322" y="757"/>
      <point x="330" y="783"/>
      <point x="338" y="793" type="qcurve"/>
      <point x="356" y="817"/>
      <point x="363" y="831"/>
      <point x="363" y="837" type="qcurve"/>
      <point x="363" y="852"/>
      <point x="347" y="865"/>
      <point x="328" y="865" type="qcurve"/>
      <point x="315" y="865"/>
      <point x="288" y="850"/>
    </contour>
  </outline>
</glyph>
<glyph name="uni1EA3" format="2">
  <advance width="633"/>
  <unicode hex="1EA3"/>
  <outline>
    <contour>
      <point x="457" y="525" type="line"/>
      <point x="561" y="525" type="line"/>
      <point x="561" y="0" type="line"/>
      <point x="457" y="0" type="line"/>
      <point x="457" y="125" type="line"/>
      <point x="481" y="132" type="line"/>
      <point x="469" y="78"/>
      <point x="350" y="-10"/>
      <point x="274" y="-10" type="qcurve"/>
      <point x="176" y="-10"/>
      <point x="38" y="147"/>
      <point x="38" y="264" type="qcurve"/>
      <point x="38" y="383"/>
      <point x="180" y="536"/>
      <point x="283" y="536" type="qcurve"/>
      <point x="364" y="536"/>
      <point x="471" y="445"/>
      <point x="480" y="381" type="qcurve"/>
      <point x="457" y="389" type="line"/>
    </contour>
    <contour>
      <point x="143" y="264" type="qcurve"/>
      <point x="143" y="186"/>
      <point x="232" y="85"/>
      <point x="301" y="85" type="qcurve"/>
      <point x="371" y="85"/>
      <point x="461" y="186"/>
      <point x="461" y="264" type="qcurve"/>
      <point x="461" y="341"/>
      <point x="371" y="441"/>
      <point x="301" y="441" type="qcurve"/>
      <point x="232" y="441"/>
      <point x="143" y="341"/>
    </contour>
    <contour>
      <point x="235" y="714" type="qcurve"/>
      <point x="202" y="762" type="line"/>
      <point x="227" y="787"/>
      <point x="271" y="808"/>
      <point x="297" y="808" type="qcurve"/>
      <point x="346" y="808"/>
      <point x="399" y="763"/>
      <point x="399" y="726" type="qcurve"/>
      <point x="399" y="714"/>
      <point x="391" y="692"/>
      <point x="375" y="669" type="qcurve"/>
      <point x="368" y="659"/>
      <point x="356" y="634"/>
      <point x="355" y="626" type="qcurve"/>
      <point x="287" y="626" type="line"/>
      <point x="287" y="639"/>
      <point x="295" y="665"/>
      <point x="303" y="675" type="qcurve"/>
      <point x="321" y="699"/>
      <point x="328" y="713"/>
      <point x="328" y="719" type="qcurve"/>
      <point x="328" y="734"/>
      <point x="312" y="747"/>
      <point x="293" y="747" type="qcurve"/>
      <point x="280" y="747"/>
      <point x="253" y="732"/>
    </contour>
  </outline>
</glyph>
